<?xml version="1.0" encoding="utf-8"?>
<svg xmlns="http://www.w3.org/2000/svg" xmlns:xlink="http://www.w3.org/1999/xlink" width="600" height="400" viewBox="0 0 600 400">
<defs>
  <clipPath id="clip7500">
    <rect x="0" y="0" width="600" height="400"/>
  </clipPath>
</defs>
<polygon clip-path="url(#clip7500)" points="
0,400 600,400 600,0 0,0 
  " fill="#ffffff" fill-opacity="1"/>
<defs>
  <clipPath id="clip7501">
    <rect x="120" y="0" width="421" height="400"/>
  </clipPath>
</defs>
<polygon clip-path="url(#clip7500)" points="
47.0391,375.869 580.315,375.869 580.315,11.811 47.0391,11.811 
  " fill="#ffffff" fill-opacity="1"/>
<defs>
  <clipPath id="clip7502">
    <rect x="47" y="11" width="534" height="365"/>
  </clipPath>
</defs>
<polyline clip-path="url(#clip7502)" style="stroke:#000000; stroke-width:0.5; stroke-opacity:0.1; fill:none" points="
  141.992,375.869 141.992,11.811 
  "/>
<polyline clip-path="url(#clip7502)" style="stroke:#000000; stroke-width:0.5; stroke-opacity:0.1; fill:none" points="
  248.118,375.869 248.118,11.811 
  "/>
<polyline clip-path="url(#clip7502)" style="stroke:#000000; stroke-width:0.5; stroke-opacity:0.1; fill:none" points="
  354.244,375.869 354.244,11.811 
  "/>
<polyline clip-path="url(#clip7502)" style="stroke:#000000; stroke-width:0.5; stroke-opacity:0.1; fill:none" points="
  460.37,375.869 460.37,11.811 
  "/>
<polyline clip-path="url(#clip7502)" style="stroke:#000000; stroke-width:0.5; stroke-opacity:0.1; fill:none" points="
  566.496,375.869 566.496,11.811 
  "/>
<polyline clip-path="url(#clip7502)" style="stroke:#000000; stroke-width:0.5; stroke-opacity:0.1; fill:none" points="
  47.0391,365.565 580.315,365.565 
  "/>
<polyline clip-path="url(#clip7502)" style="stroke:#000000; stroke-width:0.5; stroke-opacity:0.1; fill:none" points="
  47.0391,279.703 580.315,279.703 
  "/>
<polyline clip-path="url(#clip7502)" style="stroke:#000000; stroke-width:0.5; stroke-opacity:0.1; fill:none" points="
  47.0391,193.84 580.315,193.84 
  "/>
<polyline clip-path="url(#clip7502)" style="stroke:#000000; stroke-width:0.5; stroke-opacity:0.1; fill:none" points="
  47.0391,107.977 580.315,107.977 
  "/>
<polyline clip-path="url(#clip7502)" style="stroke:#000000; stroke-width:0.5; stroke-opacity:0.1; fill:none" points="
  47.0391,22.1145 580.315,22.1145 
  "/>
<polyline clip-path="url(#clip7500)" style="stroke:#000000; stroke-width:1; stroke-opacity:1; fill:none" points="
  47.0391,375.869 580.315,375.869 
  "/>
<polyline clip-path="url(#clip7500)" style="stroke:#000000; stroke-width:1; stroke-opacity:1; fill:none" points="
  47.0391,375.869 47.0391,11.811 
  "/>
<polyline clip-path="url(#clip7500)" style="stroke:#000000; stroke-width:1; stroke-opacity:1; fill:none" points="
  141.992,375.869 141.992,370.408 
  "/>
<polyline clip-path="url(#clip7500)" style="stroke:#000000; stroke-width:1; stroke-opacity:1; fill:none" points="
  248.118,375.869 248.118,370.408 
  "/>
<polyline clip-path="url(#clip7500)" style="stroke:#000000; stroke-width:1; stroke-opacity:1; fill:none" points="
  354.244,375.869 354.244,370.408 
  "/>
<polyline clip-path="url(#clip7500)" style="stroke:#000000; stroke-width:1; stroke-opacity:1; fill:none" points="
  460.37,375.869 460.37,370.408 
  "/>
<polyline clip-path="url(#clip7500)" style="stroke:#000000; stroke-width:1; stroke-opacity:1; fill:none" points="
  566.496,375.869 566.496,370.408 
  "/>
<polyline clip-path="url(#clip7500)" style="stroke:#000000; stroke-width:1; stroke-opacity:1; fill:none" points="
  47.0391,365.565 55.0382,365.565 
  "/>
<polyline clip-path="url(#clip7500)" style="stroke:#000000; stroke-width:1; stroke-opacity:1; fill:none" points="
  47.0391,279.703 55.0382,279.703 
  "/>
<polyline clip-path="url(#clip7500)" style="stroke:#000000; stroke-width:1; stroke-opacity:1; fill:none" points="
  47.0391,193.84 55.0382,193.84 
  "/>
<polyline clip-path="url(#clip7500)" style="stroke:#000000; stroke-width:1; stroke-opacity:1; fill:none" points="
  47.0391,107.977 55.0382,107.977 
  "/>
<polyline clip-path="url(#clip7500)" style="stroke:#000000; stroke-width:1; stroke-opacity:1; fill:none" points="
  47.0391,22.1145 55.0382,22.1145 
  "/>
<g clip-path="url(#clip7500)">
<text style="fill:#000000; fill-opacity:1; font-family:Arial,Helvetica Neue,Helvetica,sans-serif; font-size:12; text-anchor:middle;" transform="rotate(0, 141.992, 389.669)" x="141.992" y="389.669">2</text>
</g>
<g clip-path="url(#clip7500)">
<text style="fill:#000000; fill-opacity:1; font-family:Arial,Helvetica Neue,Helvetica,sans-serif; font-size:12; text-anchor:middle;" transform="rotate(0, 248.118, 389.669)" x="248.118" y="389.669">4</text>
</g>
<g clip-path="url(#clip7500)">
<text style="fill:#000000; fill-opacity:1; font-family:Arial,Helvetica Neue,Helvetica,sans-serif; font-size:12; text-anchor:middle;" transform="rotate(0, 354.244, 389.669)" x="354.244" y="389.669">6</text>
</g>
<g clip-path="url(#clip7500)">
<text style="fill:#000000; fill-opacity:1; font-family:Arial,Helvetica Neue,Helvetica,sans-serif; font-size:12; text-anchor:middle;" transform="rotate(0, 460.37, 389.669)" x="460.37" y="389.669">8</text>
</g>
<g clip-path="url(#clip7500)">
<text style="fill:#000000; fill-opacity:1; font-family:Arial,Helvetica Neue,Helvetica,sans-serif; font-size:12; text-anchor:middle;" transform="rotate(0, 566.496, 389.669)" x="566.496" y="389.669">10</text>
</g>
<g clip-path="url(#clip7500)">
<text style="fill:#000000; fill-opacity:1; font-family:Arial,Helvetica Neue,Helvetica,sans-serif; font-size:12; text-anchor:end;" transform="rotate(0, 41.0391, 370.065)" x="41.0391" y="370.065">0.00</text>
</g>
<g clip-path="url(#clip7500)">
<text style="fill:#000000; fill-opacity:1; font-family:Arial,Helvetica Neue,Helvetica,sans-serif; font-size:12; text-anchor:end;" transform="rotate(0, 41.0391, 284.203)" x="41.0391" y="284.203">0.25</text>
</g>
<g clip-path="url(#clip7500)">
<text style="fill:#000000; fill-opacity:1; font-family:Arial,Helvetica Neue,Helvetica,sans-serif; font-size:12; text-anchor:end;" transform="rotate(0, 41.0391, 198.34)" x="41.0391" y="198.34">0.50</text>
</g>
<g clip-path="url(#clip7500)">
<text style="fill:#000000; fill-opacity:1; font-family:Arial,Helvetica Neue,Helvetica,sans-serif; font-size:12; text-anchor:end;" transform="rotate(0, 41.0391, 112.477)" x="41.0391" y="112.477">0.75</text>
</g>
<g clip-path="url(#clip7500)">
<text style="fill:#000000; fill-opacity:1; font-family:Arial,Helvetica Neue,Helvetica,sans-serif; font-size:12; text-anchor:end;" transform="rotate(0, 41.0391, 26.6145)" x="41.0391" y="26.6145">1.00</text>
</g>
<polygon clip-path="url(#clip7502)" points="
62.1318,365.565 66.9482,365.565 71.7646,363.071 76.581,356.091 81.3974,340.479 86.2138,306.18 91.0302,273.396 95.8467,246.317 100.663,221.936 105.479,205.095 
  110.296,191.215 115.112,177.174 119.929,160.149 124.745,148.702 129.561,143.781 134.378,130.21 139.194,127.655 144.011,124.834 148.827,117.041 153.644,114.758 
  158.46,111.424 163.276,106.873 168.093,105.769 172.909,103.917 177.726,101.186 182.542,96.4149 187.358,93.4936 192.175,84.7545 196.991,83.242 201.808,79.932 
  206.624,79.5859 211.44,75.8752 216.257,73.7762 221.073,68.7324 225.89,67.8425 230.706,66.2135 235.522,63.5461 240.339,62.2497 245.155,62.2497 249.972,61.2882 
  254.788,60.5648 259.604,58.0358 264.421,57.2853 269.237,54.1161 274.054,53.5127 278.87,51.6732 283.687,51.113 288.503,51.113 293.319,49.28 298.136,49.28 
  302.952,46.8653 307.769,46.6593 312.585,45.131 317.401,41.6849 322.218,39.1666 327.034,39.1666 331.851,38.7694 336.667,37.8787 341.483,37.1364 346.3,37.1364 
  351.116,36.7964 355.933,36.7964 360.749,36.7964 365.565,35.0084 370.382,34.8221 375.198,34.7068 380.015,33.2125 384.831,33.2125 389.647,33.2125 394.464,33.2125 
  399.28,33.2125 404.097,33.2125 408.913,33.2125 413.729,33.2125 418.546,32.0531 423.362,30.9553 428.179,28.9354 432.995,28.8336 437.812,28.8336 442.628,28.8336 
  447.444,28.8336 452.261,28.8336 457.077,26.5222 461.894,26.5222 466.71,26.5222 471.526,26.5222 476.343,25.6991 481.159,25.6991 485.976,25.6991 490.792,25.2694 
  495.608,25.2694 500.425,25.2694 505.241,25.2694 510.058,25.2694 514.874,25.2694 519.69,25.2694 524.507,24.1835 529.323,24.1835 534.14,24.1835 538.956,22.1145 
  538.956,22.1145 534.14,22.1145 529.323,22.1145 524.507,22.1145 519.69,22.9581 514.874,22.9581 510.058,22.9581 505.241,22.9581 500.425,22.9581 495.608,22.9581 
  490.792,22.9581 485.976,23.81 481.159,23.81 476.343,23.81 471.526,24.2684 466.71,24.2684 461.894,24.2684 457.077,24.2684 452.261,25.168 447.444,25.168 
  442.628,25.168 437.812,25.168 432.995,25.168 428.179,26.3197 423.362,27.6504 418.546,27.8341 413.729,28.6041 408.913,28.6041 404.097,28.6041 399.28,28.6041 
  394.464,28.6041 389.647,28.6041 384.831,28.6041 380.015,28.6041 375.198,29.0393 370.382,30.1775 365.565,31.2447 360.749,31.3862 355.933,31.3862 351.116,31.3862 
  346.3,32.2996 341.483,32.2996 336.667,32.8389 331.851,33.2297 327.034,34.086 322.218,34.086 317.401,34.7787 312.585,35.1916 307.769,37.4237 302.952,39.2867 
  298.136,40.055 293.319,40.055 288.503,40.1515 283.687,40.1515 278.87,40.8728 274.054,40.9629 269.237,41.641 264.421,42.9643 259.604,43.4953 254.788,44.1774 
  249.972,46.7765 245.155,48.3219 240.339,48.3219 235.522,49.5605 230.706,52.1731 225.89,53.1071 221.073,53.4988 216.257,54.2434 211.44,56.1429 206.624,58.9937 
  201.808,59.9012 196.991,63.1246 192.175,65.4006 187.358,68.9835 182.542,70.5267 177.726,72.1495 172.909,73.8552 168.093,73.932 163.276,75.3634 158.46,77.9943 
  153.644,81.1935 148.827,86.8093 144.011,89.8186 139.194,93.0647 134.378,98.4364 129.561,106.577 124.745,114.13 119.929,121.85 115.112,131.173 110.296,140.903 
  105.479,149.862 100.663,161.606 95.8467,180.03 91.0302,202.926 86.2138,229.784 81.3974,263.036 76.581,290.401 71.7646,320.629 66.9482,352.75 62.1318,364.284 
  
  " fill="#009af9" fill-opacity="0.5"/>
<polyline clip-path="url(#clip7502)" style="stroke:#009af9; stroke-width:1; stroke-opacity:1; fill:none" points="
  62.1318,364.924 66.9482,359.158 71.7646,341.85 76.581,323.246 81.3974,301.758 86.2138,267.982 91.0302,238.161 95.8467,213.174 100.663,191.771 105.479,177.478 
  110.296,166.059 115.112,154.174 119.929,140.999 124.745,131.416 129.561,125.179 134.378,114.323 139.194,110.36 144.011,107.326 148.827,101.925 153.644,97.9757 
  158.46,94.709 163.276,91.1183 168.093,89.8508 172.909,88.886 177.726,86.6678 182.542,83.4708 187.358,81.2385 192.175,75.0775 196.991,73.1833 201.808,69.9166 
  206.624,69.2898 211.44,66.0091 216.257,64.0098 221.073,61.1156 225.89,60.4748 230.706,59.1933 235.522,56.5533 240.339,55.2858 245.155,55.2858 249.972,54.0323 
  254.788,52.3711 259.604,50.7656 264.421,50.1248 269.237,47.8785 274.054,47.2378 278.87,46.273 283.687,45.6322 288.503,45.6322 293.319,44.6675 298.136,44.6675 
  302.952,43.076 307.769,42.0415 312.585,40.1613 317.401,38.2318 322.218,36.6263 327.034,36.6263 331.851,35.9996 336.667,35.3588 341.483,34.718 346.3,34.718 
  351.116,34.0913 355.933,34.0913 360.749,34.0913 365.565,33.1266 370.382,32.4998 375.198,31.8731 380.015,30.9083 384.831,30.9083 389.647,30.9083 394.464,30.9083 
  399.28,30.9083 404.097,30.9083 408.913,30.9083 413.729,30.9083 418.546,29.9436 423.362,29.3028 428.179,27.6276 432.995,27.0008 437.812,27.0008 442.628,27.0008 
  447.444,27.0008 452.261,27.0008 457.077,25.3953 461.894,25.3953 466.71,25.3953 471.526,25.3953 476.343,24.7545 481.159,24.7545 485.976,24.7545 490.792,24.1138 
  495.608,24.1138 500.425,24.1138 505.241,24.1138 510.058,24.1138 514.874,24.1138 519.69,24.1138 524.507,23.149 529.323,23.149 534.14,23.149 538.956,22.1145 
  
  "/>
<polygon clip-path="url(#clip7502)" points="
64.7319,365.565 69.7874,365.565 74.8428,365.565 79.8983,360.611 84.9537,341.791 90.0092,311.078 95.0646,277.91 100.12,267.375 105.176,248.87 110.231,228.235 
  115.286,208.086 120.342,197.392 125.397,182.974 130.453,171.505 135.508,168.624 140.564,164.53 145.619,163.328 150.675,159.413 155.73,149.878 160.786,143.892 
  165.841,137.505 170.897,130.414 175.952,128.441 181.007,126.885 186.063,124.3 191.118,122.748 196.174,122.748 201.229,120.458 206.285,120.033 211.34,116.513 
  216.396,116.062 221.451,113.213 226.507,112.796 231.562,107.888 236.617,103.054 241.673,103.054 246.728,100.637 251.784,97.3375 256.839,94.9227 261.895,89.6804 
  266.95,87.2704 272.006,83.5186 277.061,78.6889 282.117,75.7981 287.172,75.3458 292.228,75.3458 297.283,75.3458 302.338,75.3458 307.394,70.092 312.449,67.2404 
  317.505,64.8317 322.56,64.8317 327.616,64.8317 332.671,64.8317 337.727,62.4251 342.782,62.4251 347.838,60.0213 352.893,60.0213 357.948,56.8872 363.004,56.4875 
  368.059,50.9876 373.115,50.9876 378.17,50.5053 383.226,50.1143 388.281,50.1143 393.337,49.2858 398.392,49.2858 403.448,49.2858 408.503,48.5522 413.559,45.678 
  418.614,44.9984 423.669,42.5826 428.725,37.7557 433.78,35.3483 438.836,35.3483 443.891,32.955 448.947,32.955 454.002,32.955 459.058,32.7137 464.113,31.7451 
  469.169,29.4902 474.224,29.4902 479.279,29.4902 484.335,29.4902 489.39,29.4902 494.446,27.6496 499.501,26.4141 504.557,26.4141 509.612,26.4141 514.668,26.4141 
  519.723,24.7061 524.779,24.7061 529.834,24.7061 534.889,24.7061 539.945,24.7061 545,24.7061 550.056,24.7061 555.111,24.7061 560.167,23.5338 565.222,22.1145 
  565.222,22.1145 560.167,22.1145 555.111,22.7887 550.056,22.7887 545,22.7887 539.945,22.7887 534.889,22.7887 529.834,22.7887 524.779,22.7887 519.723,22.7887 
  514.668,22.9272 509.612,22.9272 504.557,22.9272 499.501,22.9272 494.446,25.452 489.39,26.03 484.335,26.03 479.279,26.03 474.224,26.03 469.169,26.03 
  464.113,26.1938 459.058,27.9084 454.002,29.0864 448.947,29.0864 443.891,29.0864 438.836,29.1117 433.78,29.1117 428.725,29.123 423.669,29.1335 418.614,29.1363 
  413.559,30.3032 408.503,31.1892 403.448,32.3022 398.392,32.3022 393.337,32.3022 388.281,34.2345 383.226,34.2345 378.17,35.2627 373.115,36.122 368.059,36.122 
  363.004,37.3059 357.948,38.3255 352.893,39.4565 347.838,39.4565 342.782,39.4714 337.727,39.4714 332.671,39.4835 327.616,39.4835 322.56,39.4835 317.505,39.4835 
  312.449,39.4934 307.394,40.4021 302.338,41.4049 297.283,41.4049 292.228,41.4049 287.172,41.4049 282.117,42.2941 277.061,43.1637 272.006,43.1713 266.95,45.5312 
  261.895,45.5398 256.839,46.5541 251.784,46.558 246.728,48.4379 241.673,48.4396 236.617,48.4396 231.562,48.4425 226.507,52.835 221.451,53.8374 216.396,54.7482 
  211.34,55.6392 206.285,57.8029 201.229,58.7978 196.174,63.0393 191.118,63.0393 186.063,66.0165 181.007,71.7914 175.952,74.8428 170.897,78.8193 165.841,83.0194 
  160.786,86.0764 155.73,88.194 150.675,92.3691 145.619,99.4369 140.564,101.424 135.508,109.149 130.453,114.318 125.397,122.917 120.342,138.601 115.286,147.608 
  110.231,161.466 105.176,177.038 100.12,198.45 95.0646,211.711 90.0092,239.519 84.9537,265.399 79.8983,299.201 74.8428,332.923 69.7874,347.115 64.7319,364.146 
  
  " fill="#e26f46" fill-opacity="0.5"/>
<polyline clip-path="url(#clip7502)" style="stroke:#e26f46; stroke-width:1; stroke-opacity:1; fill:none" points="
  64.7319,364.856 69.7874,356.34 74.8428,349.244 79.8983,329.906 84.9537,303.595 90.0092,275.299 95.0646,244.81 100.12,232.912 105.176,212.954 110.231,194.851 
  115.286,177.847 120.342,167.997 125.397,152.946 130.453,142.912 135.508,138.887 140.564,132.977 145.619,131.383 150.675,125.891 155.73,119.036 160.786,114.984 
  165.841,110.262 170.897,104.616 175.952,101.642 181.007,99.3383 186.063,95.1583 191.118,92.8934 196.174,92.8934 201.229,89.6277 206.285,88.9181 211.34,86.0759 
  216.396,85.4051 221.451,83.525 226.507,82.8154 231.562,78.1655 236.617,75.7468 241.673,75.7468 246.728,74.5375 251.784,71.9477 256.839,70.7384 261.895,67.6101 
  266.95,66.4008 272.006,63.3449 277.061,60.9263 282.117,59.0461 287.172,58.3753 292.228,58.3753 297.283,58.3753 302.338,58.3753 307.394,55.2471 312.449,53.3669 
  317.505,52.1576 322.56,52.1576 327.616,52.1576 332.671,52.1576 337.727,50.9483 342.782,50.9483 347.838,49.7389 352.893,49.7389 357.948,47.6063 363.004,46.8967 
  368.059,43.5548 373.115,43.5548 378.17,42.884 383.226,42.1744 388.281,42.1744 393.337,40.794 398.392,40.794 403.448,40.794 408.503,39.8707 413.559,37.9906 
  418.614,37.0673 423.669,35.858 428.725,33.4393 433.78,32.23 438.836,32.23 443.891,31.0207 448.947,31.0207 454.002,31.0207 459.058,30.3111 464.113,28.9695 
  469.169,27.7601 474.224,27.7601 479.279,27.7601 484.335,27.7601 489.39,27.7601 494.446,26.5508 499.501,24.6707 504.557,24.6707 509.612,24.6707 514.668,24.6707 
  519.723,23.7474 524.779,23.7474 529.834,23.7474 534.889,23.7474 539.945,23.7474 545,23.7474 550.056,23.7474 555.111,23.7474 560.167,22.8242 565.222,22.1145 
  
  "/>
<polygon clip-path="url(#clip7500)" points="
475.577,78.051 562.315,78.051 562.315,32.691 475.577,32.691 
  " fill="#ffffff" fill-opacity="1"/>
<polyline clip-path="url(#clip7500)" style="stroke:#000000; stroke-width:1; stroke-opacity:1; fill:none" points="
  475.577,78.051 562.315,78.051 562.315,32.691 475.577,32.691 475.577,78.051 
  "/>
<polyline clip-path="url(#clip7500)" style="stroke:#009af9; stroke-width:1; stroke-opacity:1; fill:none" points="
  481.577,47.811 517.577,47.811 
  "/>
<g clip-path="url(#clip7500)">
<text style="fill:#000000; fill-opacity:1; font-family:Arial,Helvetica Neue,Helvetica,sans-serif; font-size:12; text-anchor:start;" transform="rotate(0, 523.577, 52.311)" x="523.577" y="52.311">CNO</text>
</g>
<polyline clip-path="url(#clip7500)" style="stroke:#e26f46; stroke-width:1; stroke-opacity:1; fill:none" points="
  481.577,62.931 517.577,62.931 
  "/>
<g clip-path="url(#clip7500)">
<text style="fill:#000000; fill-opacity:1; font-family:Arial,Helvetica Neue,Helvetica,sans-serif; font-size:12; text-anchor:start;" transform="rotate(0, 523.577, 67.431)" x="523.577" y="67.431">SAL</text>
</g>
</svg>
