<?xml version="1.0" encoding="utf-8"?>
<svg xmlns="http://www.w3.org/2000/svg" xmlns:xlink="http://www.w3.org/1999/xlink" width="600" height="400" viewBox="0 0 600 400">
<defs>
  <clipPath id="clip4900">
    <rect x="0" y="0" width="600" height="400"/>
  </clipPath>
</defs>
<polygon clip-path="url(#clip4900)" points="
0,400 600,400 600,0 0,0 
  " fill="#ffffff" fill-opacity="1"/>
<defs>
  <clipPath id="clip4901">
    <rect x="120" y="0" width="421" height="400"/>
  </clipPath>
</defs>
<polygon clip-path="url(#clip4900)" points="
40.3485,375.869 580.315,375.869 580.315,11.811 40.3485,11.811 
  " fill="#ffffff" fill-opacity="1"/>
<defs>
  <clipPath id="clip4902">
    <rect x="40" y="11" width="541" height="365"/>
  </clipPath>
</defs>
<polyline clip-path="url(#clip4902)" style="stroke:#000000; stroke-width:0.5; stroke-opacity:0.1; fill:none" points="
  55.6306,375.869 55.6306,11.811 
  "/>
<polyline clip-path="url(#clip4902)" style="stroke:#000000; stroke-width:0.5; stroke-opacity:0.1; fill:none" points="
  157.511,375.869 157.511,11.811 
  "/>
<polyline clip-path="url(#clip4902)" style="stroke:#000000; stroke-width:0.5; stroke-opacity:0.1; fill:none" points="
  259.392,375.869 259.392,11.811 
  "/>
<polyline clip-path="url(#clip4902)" style="stroke:#000000; stroke-width:0.5; stroke-opacity:0.1; fill:none" points="
  361.272,375.869 361.272,11.811 
  "/>
<polyline clip-path="url(#clip4902)" style="stroke:#000000; stroke-width:0.5; stroke-opacity:0.1; fill:none" points="
  463.152,375.869 463.152,11.811 
  "/>
<polyline clip-path="url(#clip4902)" style="stroke:#000000; stroke-width:0.5; stroke-opacity:0.1; fill:none" points="
  565.033,375.869 565.033,11.811 
  "/>
<polyline clip-path="url(#clip4902)" style="stroke:#000000; stroke-width:0.5; stroke-opacity:0.1; fill:none" points="
  40.3485,330.306 580.315,330.306 
  "/>
<polyline clip-path="url(#clip4902)" style="stroke:#000000; stroke-width:0.5; stroke-opacity:0.1; fill:none" points="
  40.3485,273.293 580.315,273.293 
  "/>
<polyline clip-path="url(#clip4902)" style="stroke:#000000; stroke-width:0.5; stroke-opacity:0.1; fill:none" points="
  40.3485,216.281 580.315,216.281 
  "/>
<polyline clip-path="url(#clip4902)" style="stroke:#000000; stroke-width:0.5; stroke-opacity:0.1; fill:none" points="
  40.3485,159.268 580.315,159.268 
  "/>
<polyline clip-path="url(#clip4902)" style="stroke:#000000; stroke-width:0.5; stroke-opacity:0.1; fill:none" points="
  40.3485,102.255 580.315,102.255 
  "/>
<polyline clip-path="url(#clip4902)" style="stroke:#000000; stroke-width:0.5; stroke-opacity:0.1; fill:none" points="
  40.3485,45.2422 580.315,45.2422 
  "/>
<polyline clip-path="url(#clip4900)" style="stroke:#000000; stroke-width:1; stroke-opacity:1; fill:none" points="
  40.3485,375.869 580.315,375.869 
  "/>
<polyline clip-path="url(#clip4900)" style="stroke:#000000; stroke-width:1; stroke-opacity:1; fill:none" points="
  40.3485,375.869 40.3485,11.811 
  "/>
<polyline clip-path="url(#clip4900)" style="stroke:#000000; stroke-width:1; stroke-opacity:1; fill:none" points="
  55.6306,375.869 55.6306,370.408 
  "/>
<polyline clip-path="url(#clip4900)" style="stroke:#000000; stroke-width:1; stroke-opacity:1; fill:none" points="
  157.511,375.869 157.511,370.408 
  "/>
<polyline clip-path="url(#clip4900)" style="stroke:#000000; stroke-width:1; stroke-opacity:1; fill:none" points="
  259.392,375.869 259.392,370.408 
  "/>
<polyline clip-path="url(#clip4900)" style="stroke:#000000; stroke-width:1; stroke-opacity:1; fill:none" points="
  361.272,375.869 361.272,370.408 
  "/>
<polyline clip-path="url(#clip4900)" style="stroke:#000000; stroke-width:1; stroke-opacity:1; fill:none" points="
  463.152,375.869 463.152,370.408 
  "/>
<polyline clip-path="url(#clip4900)" style="stroke:#000000; stroke-width:1; stroke-opacity:1; fill:none" points="
  565.033,375.869 565.033,370.408 
  "/>
<polyline clip-path="url(#clip4900)" style="stroke:#000000; stroke-width:1; stroke-opacity:1; fill:none" points="
  40.3485,330.306 48.448,330.306 
  "/>
<polyline clip-path="url(#clip4900)" style="stroke:#000000; stroke-width:1; stroke-opacity:1; fill:none" points="
  40.3485,273.293 48.448,273.293 
  "/>
<polyline clip-path="url(#clip4900)" style="stroke:#000000; stroke-width:1; stroke-opacity:1; fill:none" points="
  40.3485,216.281 48.448,216.281 
  "/>
<polyline clip-path="url(#clip4900)" style="stroke:#000000; stroke-width:1; stroke-opacity:1; fill:none" points="
  40.3485,159.268 48.448,159.268 
  "/>
<polyline clip-path="url(#clip4900)" style="stroke:#000000; stroke-width:1; stroke-opacity:1; fill:none" points="
  40.3485,102.255 48.448,102.255 
  "/>
<polyline clip-path="url(#clip4900)" style="stroke:#000000; stroke-width:1; stroke-opacity:1; fill:none" points="
  40.3485,45.2422 48.448,45.2422 
  "/>
<g clip-path="url(#clip4900)">
<text style="fill:#000000; fill-opacity:1; font-family:Arial,Helvetica Neue,Helvetica,sans-serif; font-size:12; text-anchor:middle;" transform="rotate(0, 55.6306, 389.669)" x="55.6306" y="389.669">20180718</text>
</g>
<g clip-path="url(#clip4900)">
<text style="fill:#000000; fill-opacity:1; font-family:Arial,Helvetica Neue,Helvetica,sans-serif; font-size:12; text-anchor:middle;" transform="rotate(0, 157.511, 389.669)" x="157.511" y="389.669">20180719</text>
</g>
<g clip-path="url(#clip4900)">
<text style="fill:#000000; fill-opacity:1; font-family:Arial,Helvetica Neue,Helvetica,sans-serif; font-size:12; text-anchor:middle;" transform="rotate(0, 259.392, 389.669)" x="259.392" y="389.669">20180720</text>
</g>
<g clip-path="url(#clip4900)">
<text style="fill:#000000; fill-opacity:1; font-family:Arial,Helvetica Neue,Helvetica,sans-serif; font-size:12; text-anchor:middle;" transform="rotate(0, 361.272, 389.669)" x="361.272" y="389.669">20180721</text>
</g>
<g clip-path="url(#clip4900)">
<text style="fill:#000000; fill-opacity:1; font-family:Arial,Helvetica Neue,Helvetica,sans-serif; font-size:12; text-anchor:middle;" transform="rotate(0, 463.152, 389.669)" x="463.152" y="389.669">20180722</text>
</g>
<g clip-path="url(#clip4900)">
<text style="fill:#000000; fill-opacity:1; font-family:Arial,Helvetica Neue,Helvetica,sans-serif; font-size:12; text-anchor:middle;" transform="rotate(0, 565.033, 389.669)" x="565.033" y="389.669">20180723</text>
</g>
<g clip-path="url(#clip4900)">
<text style="fill:#000000; fill-opacity:1; font-family:Arial,Helvetica Neue,Helvetica,sans-serif; font-size:12; text-anchor:end;" transform="rotate(0, 34.3485, 334.806)" x="34.3485" y="334.806">3.5</text>
</g>
<g clip-path="url(#clip4900)">
<text style="fill:#000000; fill-opacity:1; font-family:Arial,Helvetica Neue,Helvetica,sans-serif; font-size:12; text-anchor:end;" transform="rotate(0, 34.3485, 277.793)" x="34.3485" y="277.793">4.0</text>
</g>
<g clip-path="url(#clip4900)">
<text style="fill:#000000; fill-opacity:1; font-family:Arial,Helvetica Neue,Helvetica,sans-serif; font-size:12; text-anchor:end;" transform="rotate(0, 34.3485, 220.781)" x="34.3485" y="220.781">4.5</text>
</g>
<g clip-path="url(#clip4900)">
<text style="fill:#000000; fill-opacity:1; font-family:Arial,Helvetica Neue,Helvetica,sans-serif; font-size:12; text-anchor:end;" transform="rotate(0, 34.3485, 163.768)" x="34.3485" y="163.768">5.0</text>
</g>
<g clip-path="url(#clip4900)">
<text style="fill:#000000; fill-opacity:1; font-family:Arial,Helvetica Neue,Helvetica,sans-serif; font-size:12; text-anchor:end;" transform="rotate(0, 34.3485, 106.755)" x="34.3485" y="106.755">5.5</text>
</g>
<g clip-path="url(#clip4900)">
<text style="fill:#000000; fill-opacity:1; font-family:Arial,Helvetica Neue,Helvetica,sans-serif; font-size:12; text-anchor:end;" transform="rotate(0, 34.3485, 49.7422)" x="34.3485" y="49.7422">6.0</text>
</g>
<circle clip-path="url(#clip4902)" style="fill:#000000; stroke:none; fill-opacity:1" cx="157.511" cy="239.975" r="4"/>
<circle clip-path="url(#clip4902)" style="fill:#009af9; stroke:none; fill-opacity:1" cx="157.511" cy="239.975" r="3"/>
<circle clip-path="url(#clip4902)" style="fill:#000000; stroke:none; fill-opacity:1" cx="361.272" cy="84.3119" r="4"/>
<circle clip-path="url(#clip4902)" style="fill:#009af9; stroke:none; fill-opacity:1" cx="361.272" cy="84.3119" r="3"/>
<circle clip-path="url(#clip4902)" style="fill:#000000; stroke:none; fill-opacity:1" cx="565.033" cy="170.651" r="4"/>
<circle clip-path="url(#clip4902)" style="fill:#009af9; stroke:none; fill-opacity:1" cx="565.033" cy="170.651" r="3"/>
<polyline clip-path="url(#clip4902)" style="stroke:#009af9; stroke-width:1; stroke-opacity:1; fill:none" points="
  157.511,279.792 157.511,200.157 
  "/>
<polyline clip-path="url(#clip4902)" style="stroke:#009af9; stroke-width:1; stroke-opacity:1; fill:none" points="
  361.272,146.509 361.272,22.1145 
  "/>
<polyline clip-path="url(#clip4902)" style="stroke:#009af9; stroke-width:1; stroke-opacity:1; fill:none" points="
  565.033,202.094 565.033,139.208 
  "/>
<line clip-path="url(#clip4902)" x1="162.511" y1="279.792" x2="152.511" y2="279.792" style="stroke:#000000; stroke-opacity:1"/>
<line clip-path="url(#clip4902)" x1="162.511" y1="200.157" x2="152.511" y2="200.157" style="stroke:#000000; stroke-opacity:1"/>
<line clip-path="url(#clip4902)" x1="366.272" y1="146.509" x2="356.272" y2="146.509" style="stroke:#000000; stroke-opacity:1"/>
<line clip-path="url(#clip4902)" x1="366.272" y1="22.1145" x2="356.272" y2="22.1145" style="stroke:#000000; stroke-opacity:1"/>
<line clip-path="url(#clip4902)" x1="570.033" y1="202.094" x2="560.033" y2="202.094" style="stroke:#000000; stroke-opacity:1"/>
<line clip-path="url(#clip4902)" x1="570.033" y1="139.208" x2="560.033" y2="139.208" style="stroke:#000000; stroke-opacity:1"/>
<circle clip-path="url(#clip4902)" style="fill:#000000; stroke:none; fill-opacity:1" cx="55.6306" cy="341.066" r="4"/>
<circle clip-path="url(#clip4902)" style="fill:#e26f46; stroke:none; fill-opacity:1" cx="55.6306" cy="341.066" r="3"/>
<circle clip-path="url(#clip4902)" style="fill:#000000; stroke:none; fill-opacity:1" cx="259.392" cy="176.95" r="4"/>
<circle clip-path="url(#clip4902)" style="fill:#e26f46; stroke:none; fill-opacity:1" cx="259.392" cy="176.95" r="3"/>
<circle clip-path="url(#clip4902)" style="fill:#000000; stroke:none; fill-opacity:1" cx="463.152" cy="177.002" r="4"/>
<circle clip-path="url(#clip4902)" style="fill:#e26f46; stroke:none; fill-opacity:1" cx="463.152" cy="177.002" r="3"/>
<polyline clip-path="url(#clip4902)" style="stroke:#e26f46; stroke-width:1; stroke-opacity:1; fill:none" points="
  55.6306,365.565 55.6306,316.566 
  "/>
<polyline clip-path="url(#clip4902)" style="stroke:#e26f46; stroke-width:1; stroke-opacity:1; fill:none" points="
  259.392,240.54 259.392,113.36 
  "/>
<polyline clip-path="url(#clip4902)" style="stroke:#e26f46; stroke-width:1; stroke-opacity:1; fill:none" points="
  463.152,218.716 463.152,135.289 
  "/>
<line clip-path="url(#clip4902)" x1="60.6306" y1="365.565" x2="50.6306" y2="365.565" style="stroke:#000000; stroke-opacity:1"/>
<line clip-path="url(#clip4902)" x1="60.6306" y1="316.566" x2="50.6306" y2="316.566" style="stroke:#000000; stroke-opacity:1"/>
<line clip-path="url(#clip4902)" x1="264.392" y1="240.54" x2="254.392" y2="240.54" style="stroke:#000000; stroke-opacity:1"/>
<line clip-path="url(#clip4902)" x1="264.392" y1="113.36" x2="254.392" y2="113.36" style="stroke:#000000; stroke-opacity:1"/>
<line clip-path="url(#clip4902)" x1="468.152" y1="218.716" x2="458.152" y2="218.716" style="stroke:#000000; stroke-opacity:1"/>
<line clip-path="url(#clip4902)" x1="468.152" y1="135.289" x2="458.152" y2="135.289" style="stroke:#000000; stroke-opacity:1"/>
<polygon clip-path="url(#clip4900)" points="
475.577,78.051 562.315,78.051 562.315,32.691 475.577,32.691 
  " fill="#ffffff" fill-opacity="1"/>
<polyline clip-path="url(#clip4900)" style="stroke:#000000; stroke-width:1; stroke-opacity:1; fill:none" points="
  475.577,78.051 562.315,78.051 562.315,32.691 475.577,32.691 475.577,78.051 
  "/>
<circle clip-path="url(#clip4900)" style="fill:#000000; stroke:none; fill-opacity:1" cx="502.577" cy="47.811" r="6"/>
<circle clip-path="url(#clip4900)" style="fill:#009af9; stroke:none; fill-opacity:1" cx="502.577" cy="47.811" r="5"/>
<g clip-path="url(#clip4900)">
<text style="fill:#000000; fill-opacity:1; font-family:Arial,Helvetica Neue,Helvetica,sans-serif; font-size:12; text-anchor:start;" transform="rotate(0, 523.577, 52.311)" x="523.577" y="52.311">CNO</text>
</g>
<circle clip-path="url(#clip4900)" style="fill:#000000; stroke:none; fill-opacity:1" cx="502.577" cy="62.931" r="6"/>
<circle clip-path="url(#clip4900)" style="fill:#e26f46; stroke:none; fill-opacity:1" cx="502.577" cy="62.931" r="5"/>
<g clip-path="url(#clip4900)">
<text style="fill:#000000; fill-opacity:1; font-family:Arial,Helvetica Neue,Helvetica,sans-serif; font-size:12; text-anchor:start;" transform="rotate(0, 523.577, 67.431)" x="523.577" y="67.431">SAL</text>
</g>
</svg>
