<?xml version="1.0" encoding="utf-8"?>
<svg xmlns="http://www.w3.org/2000/svg" xmlns:xlink="http://www.w3.org/1999/xlink" width="600" height="400" viewBox="0 0 600 400">
<defs>
  <clipPath id="clip3900">
    <rect x="0" y="0" width="600" height="400"/>
  </clipPath>
</defs>
<polygon clip-path="url(#clip3900)" points="
0,400 600,400 600,0 0,0 
  " fill="#ffffff" fill-opacity="1"/>
<defs>
  <clipPath id="clip3901">
    <rect x="120" y="0" width="421" height="400"/>
  </clipPath>
</defs>
<polygon clip-path="url(#clip3900)" points="
47.0391,375.869 580.315,375.869 580.315,11.811 47.0391,11.811 
  " fill="#ffffff" fill-opacity="1"/>
<defs>
  <clipPath id="clip3902">
    <rect x="47" y="11" width="534" height="365"/>
  </clipPath>
</defs>
<polyline clip-path="url(#clip3902)" style="stroke:#000000; stroke-width:0.5; stroke-opacity:0.1; fill:none" points="
  62.1318,375.869 62.1318,11.811 
  "/>
<polyline clip-path="url(#clip3902)" style="stroke:#000000; stroke-width:0.5; stroke-opacity:0.1; fill:none" points="
  229.829,375.869 229.829,11.811 
  "/>
<polyline clip-path="url(#clip3902)" style="stroke:#000000; stroke-width:0.5; stroke-opacity:0.1; fill:none" points="
  397.525,375.869 397.525,11.811 
  "/>
<polyline clip-path="url(#clip3902)" style="stroke:#000000; stroke-width:0.5; stroke-opacity:0.1; fill:none" points="
  565.222,375.869 565.222,11.811 
  "/>
<polyline clip-path="url(#clip3902)" style="stroke:#000000; stroke-width:0.5; stroke-opacity:0.1; fill:none" points="
  47.0391,365.565 580.315,365.565 
  "/>
<polyline clip-path="url(#clip3902)" style="stroke:#000000; stroke-width:0.5; stroke-opacity:0.1; fill:none" points="
  47.0391,294.585 580.315,294.585 
  "/>
<polyline clip-path="url(#clip3902)" style="stroke:#000000; stroke-width:0.5; stroke-opacity:0.1; fill:none" points="
  47.0391,223.606 580.315,223.606 
  "/>
<polyline clip-path="url(#clip3902)" style="stroke:#000000; stroke-width:0.5; stroke-opacity:0.1; fill:none" points="
  47.0391,152.626 580.315,152.626 
  "/>
<polyline clip-path="url(#clip3902)" style="stroke:#000000; stroke-width:0.5; stroke-opacity:0.1; fill:none" points="
  47.0391,81.646 580.315,81.646 
  "/>
<polyline clip-path="url(#clip3900)" style="stroke:#000000; stroke-width:1; stroke-opacity:1; fill:none" points="
  47.0391,375.869 580.315,375.869 
  "/>
<polyline clip-path="url(#clip3900)" style="stroke:#000000; stroke-width:1; stroke-opacity:1; fill:none" points="
  47.0391,375.869 47.0391,11.811 
  "/>
<polyline clip-path="url(#clip3900)" style="stroke:#000000; stroke-width:1; stroke-opacity:1; fill:none" points="
  62.1318,375.869 62.1318,370.408 
  "/>
<polyline clip-path="url(#clip3900)" style="stroke:#000000; stroke-width:1; stroke-opacity:1; fill:none" points="
  229.829,375.869 229.829,370.408 
  "/>
<polyline clip-path="url(#clip3900)" style="stroke:#000000; stroke-width:1; stroke-opacity:1; fill:none" points="
  397.525,375.869 397.525,370.408 
  "/>
<polyline clip-path="url(#clip3900)" style="stroke:#000000; stroke-width:1; stroke-opacity:1; fill:none" points="
  565.222,375.869 565.222,370.408 
  "/>
<polyline clip-path="url(#clip3900)" style="stroke:#000000; stroke-width:1; stroke-opacity:1; fill:none" points="
  47.0391,365.565 55.0382,365.565 
  "/>
<polyline clip-path="url(#clip3900)" style="stroke:#000000; stroke-width:1; stroke-opacity:1; fill:none" points="
  47.0391,294.585 55.0382,294.585 
  "/>
<polyline clip-path="url(#clip3900)" style="stroke:#000000; stroke-width:1; stroke-opacity:1; fill:none" points="
  47.0391,223.606 55.0382,223.606 
  "/>
<polyline clip-path="url(#clip3900)" style="stroke:#000000; stroke-width:1; stroke-opacity:1; fill:none" points="
  47.0391,152.626 55.0382,152.626 
  "/>
<polyline clip-path="url(#clip3900)" style="stroke:#000000; stroke-width:1; stroke-opacity:1; fill:none" points="
  47.0391,81.646 55.0382,81.646 
  "/>
<g clip-path="url(#clip3900)">
<text style="fill:#000000; fill-opacity:1; font-family:Arial,Helvetica Neue,Helvetica,sans-serif; font-size:12; text-anchor:middle;" transform="rotate(0, 62.1318, 389.669)" x="62.1318" y="389.669">0</text>
</g>
<g clip-path="url(#clip3900)">
<text style="fill:#000000; fill-opacity:1; font-family:Arial,Helvetica Neue,Helvetica,sans-serif; font-size:12; text-anchor:middle;" transform="rotate(0, 229.829, 389.669)" x="229.829" y="389.669">5</text>
</g>
<g clip-path="url(#clip3900)">
<text style="fill:#000000; fill-opacity:1; font-family:Arial,Helvetica Neue,Helvetica,sans-serif; font-size:12; text-anchor:middle;" transform="rotate(0, 397.525, 389.669)" x="397.525" y="389.669">10</text>
</g>
<g clip-path="url(#clip3900)">
<text style="fill:#000000; fill-opacity:1; font-family:Arial,Helvetica Neue,Helvetica,sans-serif; font-size:12; text-anchor:middle;" transform="rotate(0, 565.222, 389.669)" x="565.222" y="389.669">15</text>
</g>
<g clip-path="url(#clip3900)">
<text style="fill:#000000; fill-opacity:1; font-family:Arial,Helvetica Neue,Helvetica,sans-serif; font-size:12; text-anchor:end;" transform="rotate(0, 41.0391, 370.065)" x="41.0391" y="370.065">0.00</text>
</g>
<g clip-path="url(#clip3900)">
<text style="fill:#000000; fill-opacity:1; font-family:Arial,Helvetica Neue,Helvetica,sans-serif; font-size:12; text-anchor:end;" transform="rotate(0, 41.0391, 299.085)" x="41.0391" y="299.085">0.05</text>
</g>
<g clip-path="url(#clip3900)">
<text style="fill:#000000; fill-opacity:1; font-family:Arial,Helvetica Neue,Helvetica,sans-serif; font-size:12; text-anchor:end;" transform="rotate(0, 41.0391, 228.106)" x="41.0391" y="228.106">0.10</text>
</g>
<g clip-path="url(#clip3900)">
<text style="fill:#000000; fill-opacity:1; font-family:Arial,Helvetica Neue,Helvetica,sans-serif; font-size:12; text-anchor:end;" transform="rotate(0, 41.0391, 157.126)" x="41.0391" y="157.126">0.15</text>
</g>
<g clip-path="url(#clip3900)">
<text style="fill:#000000; fill-opacity:1; font-family:Arial,Helvetica Neue,Helvetica,sans-serif; font-size:12; text-anchor:end;" transform="rotate(0, 41.0391, 86.146)" x="41.0391" y="86.146">0.20</text>
</g>
<polygon clip-path="url(#clip3902)" points="
62.1318,209.41 95.6712,228.185 129.211,228.185 162.75,342.668 196.289,266.193 229.829,365.565 263.368,322.977 296.907,322.977 330.447,296.875 363.986,294.585 
  397.525,351.369 431.065,337.173 464.604,365.565 498.144,365.565 531.683,351.369 565.222,365.565 565.222,319.772 531.683,342.668 498.144,342.668 464.604,342.668 
  431.065,319.772 397.525,296.875 363.986,182.391 330.447,251.997 296.907,296.875 263.368,251.082 229.829,280.389 196.289,251.082 162.75,195.214 129.211,67.45 
  95.6712,81.646 62.1318,22.1145 
  " fill="#009af9" fill-opacity="0.5"/>
<polyline clip-path="url(#clip3902)" style="stroke:#009af9; stroke-width:1; stroke-opacity:1; fill:none" points="
  62.1318,115.762 95.6712,154.915 129.211,147.817 162.75,268.941 196.289,258.638 229.829,322.977 263.368,287.029 296.907,309.926 330.447,274.436 363.986,238.488 
  397.525,324.122 431.065,328.472 464.604,354.117 498.144,354.117 531.683,347.019 565.222,342.668 
  "/>
<polygon clip-path="url(#clip3902)" points="
62.1318,197.139 95.6712,221.199 129.211,293.382 162.75,197.139 196.289,293.382 229.829,297.965 263.368,311.485 296.907,311.485 330.447,325.005 363.986,352.045 
  397.525,365.565 431.065,341.504 464.604,341.504 531.683,365.565 565.222,341.504 565.222,338.525 531.683,352.045 464.604,325.005 431.065,338.525 397.525,317.443 
  363.986,245.26 330.447,293.382 296.907,245.26 263.368,221.199 229.829,149.017 196.289,122.206 162.75,149.246 129.211,189.806 95.6712,189.806 62.1318,95.1659 
  
  " fill="#e26f46" fill-opacity="0.5"/>
<polyline clip-path="url(#clip3902)" style="stroke:#e26f46; stroke-width:1; stroke-opacity:1; fill:none" points="
  62.1318,146.152 95.6712,205.503 129.211,241.594 162.75,173.192 196.289,207.794 229.829,223.491 263.368,266.342 296.907,278.373 330.447,309.194 363.986,298.653 
  397.525,341.504 431.065,340.015 464.604,333.255 531.683,358.805 565.222,340.015 
  "/>
<polygon clip-path="url(#clip3900)" points="
475.577,78.051 562.315,78.051 562.315,32.691 475.577,32.691 
  " fill="#ffffff" fill-opacity="1"/>
<polyline clip-path="url(#clip3900)" style="stroke:#000000; stroke-width:1; stroke-opacity:1; fill:none" points="
  475.577,78.051 562.315,78.051 562.315,32.691 475.577,32.691 475.577,78.051 
  "/>
<polyline clip-path="url(#clip3900)" style="stroke:#009af9; stroke-width:1; stroke-opacity:1; fill:none" points="
  481.577,47.811 517.577,47.811 
  "/>
<g clip-path="url(#clip3900)">
<text style="fill:#000000; fill-opacity:1; font-family:Arial,Helvetica Neue,Helvetica,sans-serif; font-size:12; text-anchor:start;" transform="rotate(0, 523.577, 52.311)" x="523.577" y="52.311">CNO</text>
</g>
<polyline clip-path="url(#clip3900)" style="stroke:#e26f46; stroke-width:1; stroke-opacity:1; fill:none" points="
  481.577,62.931 517.577,62.931 
  "/>
<g clip-path="url(#clip3900)">
<text style="fill:#000000; fill-opacity:1; font-family:Arial,Helvetica Neue,Helvetica,sans-serif; font-size:12; text-anchor:start;" transform="rotate(0, 523.577, 67.431)" x="523.577" y="67.431">SAL</text>
</g>
</svg>
