<?xml version="1.0" encoding="utf-8"?>
<svg xmlns="http://www.w3.org/2000/svg" xmlns:xlink="http://www.w3.org/1999/xlink" width="600" height="400" viewBox="0 0 600 400">
<defs>
  <clipPath id="clip7100">
    <rect x="0" y="0" width="600" height="400"/>
  </clipPath>
</defs>
<polygon clip-path="url(#clip7100)" points="
0,400 600,400 600,0 0,0 
  " fill="#ffffff" fill-opacity="1"/>
<defs>
  <clipPath id="clip7101">
    <rect x="120" y="0" width="421" height="400"/>
  </clipPath>
</defs>
<polygon clip-path="url(#clip7100)" points="
47.0391,375.869 580.315,375.869 580.315,11.811 47.0391,11.811 
  " fill="#ffffff" fill-opacity="1"/>
<defs>
  <clipPath id="clip7102">
    <rect x="47" y="11" width="534" height="365"/>
  </clipPath>
</defs>
<polyline clip-path="url(#clip7102)" style="stroke:#000000; stroke-width:0.5; stroke-opacity:0.1; fill:none" points="
  134.376,375.869 134.376,11.811 
  "/>
<polyline clip-path="url(#clip7102)" style="stroke:#000000; stroke-width:0.5; stroke-opacity:0.1; fill:none" points="
  243.506,375.869 243.506,11.811 
  "/>
<polyline clip-path="url(#clip7102)" style="stroke:#000000; stroke-width:0.5; stroke-opacity:0.1; fill:none" points="
  352.637,375.869 352.637,11.811 
  "/>
<polyline clip-path="url(#clip7102)" style="stroke:#000000; stroke-width:0.5; stroke-opacity:0.1; fill:none" points="
  461.767,375.869 461.767,11.811 
  "/>
<polyline clip-path="url(#clip7102)" style="stroke:#000000; stroke-width:0.5; stroke-opacity:0.1; fill:none" points="
  570.897,375.869 570.897,11.811 
  "/>
<polyline clip-path="url(#clip7102)" style="stroke:#000000; stroke-width:0.5; stroke-opacity:0.1; fill:none" points="
  47.0391,365.565 580.315,365.565 
  "/>
<polyline clip-path="url(#clip7102)" style="stroke:#000000; stroke-width:0.5; stroke-opacity:0.1; fill:none" points="
  47.0391,279.703 580.315,279.703 
  "/>
<polyline clip-path="url(#clip7102)" style="stroke:#000000; stroke-width:0.5; stroke-opacity:0.1; fill:none" points="
  47.0391,193.84 580.315,193.84 
  "/>
<polyline clip-path="url(#clip7102)" style="stroke:#000000; stroke-width:0.5; stroke-opacity:0.1; fill:none" points="
  47.0391,107.977 580.315,107.977 
  "/>
<polyline clip-path="url(#clip7102)" style="stroke:#000000; stroke-width:0.5; stroke-opacity:0.1; fill:none" points="
  47.0391,22.1145 580.315,22.1145 
  "/>
<polyline clip-path="url(#clip7100)" style="stroke:#000000; stroke-width:1; stroke-opacity:1; fill:none" points="
  47.0391,375.869 580.315,375.869 
  "/>
<polyline clip-path="url(#clip7100)" style="stroke:#000000; stroke-width:1; stroke-opacity:1; fill:none" points="
  47.0391,375.869 47.0391,11.811 
  "/>
<polyline clip-path="url(#clip7100)" style="stroke:#000000; stroke-width:1; stroke-opacity:1; fill:none" points="
  134.376,375.869 134.376,370.408 
  "/>
<polyline clip-path="url(#clip7100)" style="stroke:#000000; stroke-width:1; stroke-opacity:1; fill:none" points="
  243.506,375.869 243.506,370.408 
  "/>
<polyline clip-path="url(#clip7100)" style="stroke:#000000; stroke-width:1; stroke-opacity:1; fill:none" points="
  352.637,375.869 352.637,370.408 
  "/>
<polyline clip-path="url(#clip7100)" style="stroke:#000000; stroke-width:1; stroke-opacity:1; fill:none" points="
  461.767,375.869 461.767,370.408 
  "/>
<polyline clip-path="url(#clip7100)" style="stroke:#000000; stroke-width:1; stroke-opacity:1; fill:none" points="
  570.897,375.869 570.897,370.408 
  "/>
<polyline clip-path="url(#clip7100)" style="stroke:#000000; stroke-width:1; stroke-opacity:1; fill:none" points="
  47.0391,365.565 55.0382,365.565 
  "/>
<polyline clip-path="url(#clip7100)" style="stroke:#000000; stroke-width:1; stroke-opacity:1; fill:none" points="
  47.0391,279.703 55.0382,279.703 
  "/>
<polyline clip-path="url(#clip7100)" style="stroke:#000000; stroke-width:1; stroke-opacity:1; fill:none" points="
  47.0391,193.84 55.0382,193.84 
  "/>
<polyline clip-path="url(#clip7100)" style="stroke:#000000; stroke-width:1; stroke-opacity:1; fill:none" points="
  47.0391,107.977 55.0382,107.977 
  "/>
<polyline clip-path="url(#clip7100)" style="stroke:#000000; stroke-width:1; stroke-opacity:1; fill:none" points="
  47.0391,22.1145 55.0382,22.1145 
  "/>
<g clip-path="url(#clip7100)">
<text style="fill:#000000; fill-opacity:1; font-family:Arial,Helvetica Neue,Helvetica,sans-serif; font-size:12; text-anchor:middle;" transform="rotate(0, 134.376, 389.669)" x="134.376" y="389.669">2</text>
</g>
<g clip-path="url(#clip7100)">
<text style="fill:#000000; fill-opacity:1; font-family:Arial,Helvetica Neue,Helvetica,sans-serif; font-size:12; text-anchor:middle;" transform="rotate(0, 243.506, 389.669)" x="243.506" y="389.669">4</text>
</g>
<g clip-path="url(#clip7100)">
<text style="fill:#000000; fill-opacity:1; font-family:Arial,Helvetica Neue,Helvetica,sans-serif; font-size:12; text-anchor:middle;" transform="rotate(0, 352.637, 389.669)" x="352.637" y="389.669">6</text>
</g>
<g clip-path="url(#clip7100)">
<text style="fill:#000000; fill-opacity:1; font-family:Arial,Helvetica Neue,Helvetica,sans-serif; font-size:12; text-anchor:middle;" transform="rotate(0, 461.767, 389.669)" x="461.767" y="389.669">8</text>
</g>
<g clip-path="url(#clip7100)">
<text style="fill:#000000; fill-opacity:1; font-family:Arial,Helvetica Neue,Helvetica,sans-serif; font-size:12; text-anchor:middle;" transform="rotate(0, 570.897, 389.669)" x="570.897" y="389.669">10</text>
</g>
<g clip-path="url(#clip7100)">
<text style="fill:#000000; fill-opacity:1; font-family:Arial,Helvetica Neue,Helvetica,sans-serif; font-size:12; text-anchor:end;" transform="rotate(0, 41.0391, 370.065)" x="41.0391" y="370.065">0.00</text>
</g>
<g clip-path="url(#clip7100)">
<text style="fill:#000000; fill-opacity:1; font-family:Arial,Helvetica Neue,Helvetica,sans-serif; font-size:12; text-anchor:end;" transform="rotate(0, 41.0391, 284.203)" x="41.0391" y="284.203">0.25</text>
</g>
<g clip-path="url(#clip7100)">
<text style="fill:#000000; fill-opacity:1; font-family:Arial,Helvetica Neue,Helvetica,sans-serif; font-size:12; text-anchor:end;" transform="rotate(0, 41.0391, 198.34)" x="41.0391" y="198.34">0.50</text>
</g>
<g clip-path="url(#clip7100)">
<text style="fill:#000000; fill-opacity:1; font-family:Arial,Helvetica Neue,Helvetica,sans-serif; font-size:12; text-anchor:end;" transform="rotate(0, 41.0391, 112.477)" x="41.0391" y="112.477">0.75</text>
</g>
<g clip-path="url(#clip7100)">
<text style="fill:#000000; fill-opacity:1; font-family:Arial,Helvetica Neue,Helvetica,sans-serif; font-size:12; text-anchor:end;" transform="rotate(0, 41.0391, 26.6145)" x="41.0391" y="26.6145">1.00</text>
</g>
<polygon clip-path="url(#clip7102)" points="
62.1318,365.565 67.2135,365.565 72.2953,358.484 77.377,354.943 82.4587,326.617 87.5404,312.454 92.6221,291.21 97.7039,280.588 102.786,255.803 107.867,252.262 
  112.949,245.18 118.031,231.017 123.112,220.395 128.194,199.151 133.276,184.802 138.358,166.725 143.439,166.725 148.521,160.7 153.603,142.624 158.685,142.624 
  163.766,142.624 168.848,130.573 173.93,118.522 179.011,112.496 184.093,112.496 189.175,100.445 194.257,100.445 199.338,100.445 204.42,94.4199 209.502,88.3945 
  214.583,88.3945 219.665,82.369 224.747,76.3436 229.829,61.0626 234.91,58.2672 239.992,58.2672 245.074,58.2672 250.156,57.5218 255.237,53.9811 260.319,52.2418 
  265.401,52.2418 270.482,52.2418 275.564,46.2163 280.646,46.2163 285.728,46.2163 290.809,40.1909 295.891,40.1909 300.973,40.1909 306.054,40.1909 311.136,34.1654 
  316.218,34.1654 321.3,34.1654 326.381,34.1654 331.463,34.1654 336.545,34.1654 341.626,34.1654 346.708,34.1654 351.79,34.1654 356.872,34.1654 361.953,29.196 
  367.035,28.14 372.117,28.14 377.199,28.14 382.28,28.14 387.362,28.14 392.444,28.14 397.525,28.14 402.607,28.14 407.689,28.14 412.771,28.14 
  417.852,28.14 422.934,28.14 428.016,28.14 433.097,28.14 438.179,28.14 443.261,28.14 448.343,28.14 453.424,28.14 458.506,28.14 463.588,28.14 
  468.67,28.14 473.751,28.14 478.833,28.14 483.915,28.14 488.996,28.14 494.078,28.14 499.16,28.14 504.242,28.14 509.323,28.14 514.405,28.14 
  519.487,28.14 524.568,28.14 529.65,28.14 534.732,28.14 539.814,28.14 544.895,28.14 549.977,28.14 555.059,28.14 560.141,28.14 565.222,22.1145 
  565.222,22.1145 560.141,22.1145 555.059,22.1145 549.977,22.1145 544.895,22.1145 539.814,22.1145 534.732,22.1145 529.65,22.1145 524.568,22.1145 519.487,22.1145 
  514.405,22.1145 509.323,22.1145 504.242,22.1145 499.16,22.1145 494.078,22.1145 488.996,22.1145 483.915,22.1145 478.833,22.1145 473.751,22.1145 468.67,22.1145 
  463.588,22.1145 458.506,22.1145 453.424,22.1145 448.343,22.1145 443.261,22.1145 438.179,22.1145 433.097,22.1145 428.016,22.1145 422.934,22.1145 417.852,22.1145 
  412.771,22.1145 407.689,22.1145 402.607,22.1145 397.525,22.1145 392.444,22.1145 387.362,22.1145 382.28,22.1145 377.199,25.6553 372.117,25.6553 367.035,25.6553 
  361.953,28.14 356.872,32.7367 351.79,32.7367 346.708,32.7367 341.626,32.7367 336.545,32.7367 331.463,32.7367 326.381,32.7367 321.3,32.7367 316.218,32.7367 
  311.136,32.7367 306.054,32.7367 300.973,36.2775 295.891,36.2775 290.809,36.2775 285.728,36.2775 280.646,39.8182 275.564,43.3589 270.482,46.8996 265.401,50.4404 
  260.319,50.4404 255.237,52.2418 250.156,52.2418 245.074,57.5218 239.992,57.5218 234.91,57.5218 229.829,58.2672 224.747,68.144 219.665,71.6847 214.583,75.2255 
  209.502,75.2255 204.42,75.2255 199.338,75.2255 194.257,82.3069 189.175,82.3069 184.093,82.3069 179.011,92.9291 173.93,92.9291 168.848,100.011 163.766,117.714 
  158.685,121.255 153.603,135.418 148.521,146.04 143.439,146.04 138.358,156.662 133.276,174.366 128.194,184.802 123.112,190.827 118.031,190.827 112.949,196.853 
  107.867,202.878 102.786,220.954 97.7039,220.954 92.6221,226.98 87.5404,239.031 82.4587,257.107 77.377,281.209 72.2953,329.412 67.2135,347.489 62.1318,359.54 
  
  " fill="#009af9" fill-opacity="0.5"/>
<polyline clip-path="url(#clip7102)" style="stroke:#009af9; stroke-width:1; stroke-opacity:1; fill:none" points="
  62.1318,362.552 67.2135,356.527 72.2953,343.948 77.377,318.076 82.4587,291.862 87.5404,275.742 92.6221,259.095 97.7039,250.771 102.786,238.378 107.867,227.57 
  112.949,221.016 118.031,210.922 123.112,205.611 128.194,191.976 133.276,179.584 138.358,161.694 143.439,156.383 148.521,153.37 153.603,139.021 158.685,131.939 
  163.766,130.169 168.848,115.292 173.93,105.725 179.011,102.713 184.093,97.4016 189.175,91.3762 194.257,91.3762 199.338,87.8354 204.42,84.8227 209.502,81.81 
  214.583,81.81 219.665,77.0269 224.747,72.2438 229.829,59.6649 234.91,57.8945 239.992,57.8945 245.074,57.8945 250.156,54.8818 255.237,53.1114 260.319,51.3411 
  265.401,51.3411 270.482,49.5707 275.564,44.7876 280.646,43.0173 285.728,41.2469 290.809,38.2342 295.891,38.2342 300.973,38.2342 306.054,36.4638 311.136,33.4511 
  316.218,33.4511 321.3,33.4511 326.381,33.4511 331.463,33.4511 336.545,33.4511 341.626,33.4511 346.708,33.4511 351.79,33.4511 356.872,33.4511 361.953,28.668 
  367.035,26.8976 372.117,26.8976 377.199,26.8976 382.28,25.1273 387.362,25.1273 392.444,25.1273 397.525,25.1273 402.607,25.1273 407.689,25.1273 412.771,25.1273 
  417.852,25.1273 422.934,25.1273 428.016,25.1273 433.097,25.1273 438.179,25.1273 443.261,25.1273 448.343,25.1273 453.424,25.1273 458.506,25.1273 463.588,25.1273 
  468.67,25.1273 473.751,25.1273 478.833,25.1273 483.915,25.1273 488.996,25.1273 494.078,25.1273 499.16,25.1273 504.242,25.1273 509.323,25.1273 514.405,25.1273 
  519.487,25.1273 524.568,25.1273 529.65,25.1273 534.732,25.1273 539.814,25.1273 544.895,25.1273 549.977,25.1273 555.059,25.1273 560.141,25.1273 565.222,22.1145 
  
  "/>
<polygon clip-path="url(#clip7102)" points="
71.6807,365.565 76.6279,345.751 81.5752,322.634 86.5224,316.029 91.4697,312.727 96.4169,283.005 101.364,269.795 106.311,263.19 111.259,246.678 116.206,240.074 
  121.153,230.166 126.1,230.166 131.048,216.957 135.995,193.84 140.942,190.537 145.889,183.933 150.837,183.933 155.784,170.723 160.731,160.816 165.678,154.211 
  170.625,147.606 175.573,141.001 180.52,131.094 185.467,124.489 190.414,117.884 195.362,111.28 200.309,104.675 205.256,94.7676 210.203,91.4651 215.151,84.8603 
  220.098,81.5579 225.045,78.2555 229.992,71.6507 234.94,71.6507 239.887,71.6507 244.834,68.3483 249.781,68.3483 254.729,68.3483 259.676,68.3483 264.623,68.3483 
  269.57,68.3483 274.517,68.3483 279.465,65.0459 284.412,61.7435 289.359,61.7435 294.306,61.7435 299.254,61.7435 304.201,61.7435 309.148,58.4411 314.095,58.4411 
  319.043,58.4411 323.99,55.1386 328.937,55.1386 333.884,55.1386 338.832,55.1386 343.779,55.1386 348.726,55.1386 353.673,51.8362 358.621,51.8362 363.568,51.8362 
  368.515,51.8362 373.462,51.8362 378.409,51.8362 383.357,51.8362 388.304,48.5338 393.251,48.5338 398.198,48.5338 403.146,48.5338 408.093,45.2314 413.04,45.2314 
  417.987,45.2314 422.935,45.2314 427.882,45.2314 432.829,45.2314 437.776,45.2314 442.724,38.6266 447.671,38.6266 452.618,35.3242 457.565,32.0218 462.512,32.0218 
  467.46,32.0218 472.407,32.0218 477.354,28.7194 482.301,28.7194 487.249,28.7194 492.196,28.7194 497.143,28.7194 502.09,28.7194 507.038,28.7194 511.985,28.7194 
  516.932,28.7194 521.879,28.7194 526.827,28.7194 531.774,28.7194 536.721,28.7194 541.668,25.417 546.616,25.417 551.563,25.417 556.51,25.417 561.457,22.1145 
  561.457,22.1145 556.51,22.1145 551.563,22.1145 546.616,22.1145 541.668,22.1145 536.721,22.1145 531.774,22.1145 526.827,22.1145 521.879,22.1145 516.932,22.1145 
  511.985,22.1145 507.038,22.1145 502.09,22.1145 497.143,22.1145 492.196,22.1145 487.249,22.1145 482.301,22.1145 477.354,22.1145 472.407,22.1145 467.46,22.1145 
  462.512,22.1145 457.565,22.1145 452.618,22.1145 447.671,22.1145 442.724,22.1145 437.776,22.1145 432.829,22.1145 427.882,22.1145 422.935,22.1145 417.987,22.1145 
  413.04,22.1145 408.093,22.1145 403.146,22.1145 398.198,22.1145 393.251,22.1145 388.304,22.1145 383.357,28.4747 378.409,28.4747 373.462,28.4747 368.515,28.4747 
  363.568,28.4747 358.621,28.4747 353.673,28.4747 348.726,28.4747 343.779,28.4747 338.832,28.4747 333.884,28.4747 328.937,28.4747 323.99,28.4747 319.043,28.4747 
  314.095,28.4747 309.148,34.8349 304.201,34.8349 299.254,34.8349 294.306,34.8349 289.359,34.8349 284.412,34.8349 279.465,34.8349 274.517,34.8349 269.57,34.8349 
  264.623,34.8349 259.676,34.8349 254.729,34.8349 249.781,34.8349 244.834,34.8349 239.887,34.8349 234.94,34.8349 229.992,34.8349 225.045,34.8349 220.098,34.8349 
  215.151,34.8349 210.203,34.8349 205.256,41.1951 200.309,47.5553 195.362,47.5553 190.414,53.9155 185.467,66.6359 180.52,66.6359 175.573,72.9961 170.625,79.3563 
  165.678,85.7165 160.731,92.0767 155.784,98.4369 150.837,117.517 145.889,117.517 140.942,123.878 135.995,136.598 131.048,136.598 126.1,136.598 121.153,149.318 
  116.206,162.039 111.259,162.039 106.311,174.759 101.364,174.759 96.4169,206.56 91.4697,212.92 86.5224,257.442 81.5752,321.044 76.6279,333.764 71.6807,359.205 
  
  " fill="#e26f46" fill-opacity="0.5"/>
<polyline clip-path="url(#clip7102)" style="stroke:#e26f46; stroke-width:1; stroke-opacity:1; fill:none" points="
  71.6807,362.385 76.6279,339.757 81.5752,321.839 86.5224,286.735 91.4697,262.824 96.4169,244.783 101.364,222.277 106.311,218.975 111.259,204.359 116.206,201.056 
  121.153,189.742 126.1,183.382 131.048,176.777 135.995,165.219 140.942,157.208 145.889,150.725 150.837,150.725 155.784,134.58 160.731,126.446 165.678,119.964 
  170.625,113.481 175.573,106.999 180.52,98.865 185.467,95.5626 190.414,85.9 195.362,79.4175 200.309,76.1151 205.256,67.9813 210.203,63.15 215.151,59.8476 
  220.098,58.1964 225.045,56.5452 229.992,53.2428 234.94,53.2428 239.887,53.2428 244.834,51.5916 249.781,51.5916 254.729,51.5916 259.676,51.5916 264.623,51.5916 
  269.57,51.5916 274.517,51.5916 279.465,49.9404 284.412,48.2892 289.359,48.2892 294.306,48.2892 299.254,48.2892 304.201,48.2892 309.148,46.638 314.095,43.4579 
  319.043,43.4579 323.99,41.8067 328.937,41.8067 333.884,41.8067 338.832,41.8067 343.779,41.8067 348.726,41.8067 353.673,40.1555 358.621,40.1555 363.568,40.1555 
  368.515,40.1555 373.462,40.1555 378.409,40.1555 383.357,40.1555 388.304,35.3242 393.251,35.3242 398.198,35.3242 403.146,35.3242 408.093,33.673 413.04,33.673 
  417.987,33.673 422.935,33.673 427.882,33.673 432.829,33.673 437.776,33.673 442.724,30.3706 447.671,30.3706 452.618,28.7194 457.565,27.0682 462.512,27.0682 
  467.46,27.0682 472.407,27.0682 477.354,25.417 482.301,25.417 487.249,25.417 492.196,25.417 497.143,25.417 502.09,25.417 507.038,25.417 511.985,25.417 
  516.932,25.417 521.879,25.417 526.827,25.417 531.774,25.417 536.721,25.417 541.668,23.7657 546.616,23.7657 551.563,23.7657 556.51,23.7657 561.457,22.1145 
  
  "/>
<polygon clip-path="url(#clip7100)" points="
475.577,78.051 562.315,78.051 562.315,32.691 475.577,32.691 
  " fill="#ffffff" fill-opacity="1"/>
<polyline clip-path="url(#clip7100)" style="stroke:#000000; stroke-width:1; stroke-opacity:1; fill:none" points="
  475.577,78.051 562.315,78.051 562.315,32.691 475.577,32.691 475.577,78.051 
  "/>
<polyline clip-path="url(#clip7100)" style="stroke:#009af9; stroke-width:1; stroke-opacity:1; fill:none" points="
  481.577,47.811 517.577,47.811 
  "/>
<g clip-path="url(#clip7100)">
<text style="fill:#000000; fill-opacity:1; font-family:Arial,Helvetica Neue,Helvetica,sans-serif; font-size:12; text-anchor:start;" transform="rotate(0, 523.577, 52.311)" x="523.577" y="52.311">CNO</text>
</g>
<polyline clip-path="url(#clip7100)" style="stroke:#e26f46; stroke-width:1; stroke-opacity:1; fill:none" points="
  481.577,62.931 517.577,62.931 
  "/>
<g clip-path="url(#clip7100)">
<text style="fill:#000000; fill-opacity:1; font-family:Arial,Helvetica Neue,Helvetica,sans-serif; font-size:12; text-anchor:start;" transform="rotate(0, 523.577, 67.431)" x="523.577" y="67.431">SAL</text>
</g>
</svg>
