<?xml version="1.0" encoding="utf-8"?>
<svg xmlns="http://www.w3.org/2000/svg" xmlns:xlink="http://www.w3.org/1999/xlink" width="600" height="400" viewBox="0 0 600 400">
<defs>
  <clipPath id="clip7900">
    <rect x="0" y="0" width="600" height="400"/>
  </clipPath>
</defs>
<polygon clip-path="url(#clip7900)" points="
0,400 600,400 600,0 0,0 
  " fill="#ffffff" fill-opacity="1"/>
<defs>
  <clipPath id="clip7901">
    <rect x="120" y="0" width="421" height="400"/>
  </clipPath>
</defs>
<polygon clip-path="url(#clip7900)" points="
47.0391,375.869 580.315,375.869 580.315,11.811 47.0391,11.811 
  " fill="#ffffff" fill-opacity="1"/>
<defs>
  <clipPath id="clip7902">
    <rect x="47" y="11" width="534" height="365"/>
  </clipPath>
</defs>
<polyline clip-path="url(#clip7902)" style="stroke:#000000; stroke-width:0.5; stroke-opacity:0.1; fill:none" points="
  118.031,375.869 118.031,11.811 
  "/>
<polyline clip-path="url(#clip7902)" style="stroke:#000000; stroke-width:0.5; stroke-opacity:0.1; fill:none" points="
  229.829,375.869 229.829,11.811 
  "/>
<polyline clip-path="url(#clip7902)" style="stroke:#000000; stroke-width:0.5; stroke-opacity:0.1; fill:none" points="
  341.626,375.869 341.626,11.811 
  "/>
<polyline clip-path="url(#clip7902)" style="stroke:#000000; stroke-width:0.5; stroke-opacity:0.1; fill:none" points="
  453.424,375.869 453.424,11.811 
  "/>
<polyline clip-path="url(#clip7902)" style="stroke:#000000; stroke-width:0.5; stroke-opacity:0.1; fill:none" points="
  565.222,375.869 565.222,11.811 
  "/>
<polyline clip-path="url(#clip7902)" style="stroke:#000000; stroke-width:0.5; stroke-opacity:0.1; fill:none" points="
  47.0391,317.561 580.315,317.561 
  "/>
<polyline clip-path="url(#clip7902)" style="stroke:#000000; stroke-width:0.5; stroke-opacity:0.1; fill:none" points="
  47.0391,243.699 580.315,243.699 
  "/>
<polyline clip-path="url(#clip7902)" style="stroke:#000000; stroke-width:0.5; stroke-opacity:0.1; fill:none" points="
  47.0391,169.838 580.315,169.838 
  "/>
<polyline clip-path="url(#clip7902)" style="stroke:#000000; stroke-width:0.5; stroke-opacity:0.1; fill:none" points="
  47.0391,95.9761 580.315,95.9761 
  "/>
<polyline clip-path="url(#clip7902)" style="stroke:#000000; stroke-width:0.5; stroke-opacity:0.1; fill:none" points="
  47.0391,22.1145 580.315,22.1145 
  "/>
<polyline clip-path="url(#clip7900)" style="stroke:#000000; stroke-width:1; stroke-opacity:1; fill:none" points="
  47.0391,375.869 580.315,375.869 
  "/>
<polyline clip-path="url(#clip7900)" style="stroke:#000000; stroke-width:1; stroke-opacity:1; fill:none" points="
  47.0391,375.869 47.0391,11.811 
  "/>
<polyline clip-path="url(#clip7900)" style="stroke:#000000; stroke-width:1; stroke-opacity:1; fill:none" points="
  118.031,375.869 118.031,370.408 
  "/>
<polyline clip-path="url(#clip7900)" style="stroke:#000000; stroke-width:1; stroke-opacity:1; fill:none" points="
  229.829,375.869 229.829,370.408 
  "/>
<polyline clip-path="url(#clip7900)" style="stroke:#000000; stroke-width:1; stroke-opacity:1; fill:none" points="
  341.626,375.869 341.626,370.408 
  "/>
<polyline clip-path="url(#clip7900)" style="stroke:#000000; stroke-width:1; stroke-opacity:1; fill:none" points="
  453.424,375.869 453.424,370.408 
  "/>
<polyline clip-path="url(#clip7900)" style="stroke:#000000; stroke-width:1; stroke-opacity:1; fill:none" points="
  565.222,375.869 565.222,370.408 
  "/>
<polyline clip-path="url(#clip7900)" style="stroke:#000000; stroke-width:1; stroke-opacity:1; fill:none" points="
  47.0391,317.561 55.0382,317.561 
  "/>
<polyline clip-path="url(#clip7900)" style="stroke:#000000; stroke-width:1; stroke-opacity:1; fill:none" points="
  47.0391,243.699 55.0382,243.699 
  "/>
<polyline clip-path="url(#clip7900)" style="stroke:#000000; stroke-width:1; stroke-opacity:1; fill:none" points="
  47.0391,169.838 55.0382,169.838 
  "/>
<polyline clip-path="url(#clip7900)" style="stroke:#000000; stroke-width:1; stroke-opacity:1; fill:none" points="
  47.0391,95.9761 55.0382,95.9761 
  "/>
<polyline clip-path="url(#clip7900)" style="stroke:#000000; stroke-width:1; stroke-opacity:1; fill:none" points="
  47.0391,22.1145 55.0382,22.1145 
  "/>
<g clip-path="url(#clip7900)">
<text style="fill:#000000; fill-opacity:1; font-family:Arial,Helvetica Neue,Helvetica,sans-serif; font-size:12; text-anchor:middle;" transform="rotate(0, 118.031, 389.669)" x="118.031" y="389.669">2</text>
</g>
<g clip-path="url(#clip7900)">
<text style="fill:#000000; fill-opacity:1; font-family:Arial,Helvetica Neue,Helvetica,sans-serif; font-size:12; text-anchor:middle;" transform="rotate(0, 229.829, 389.669)" x="229.829" y="389.669">4</text>
</g>
<g clip-path="url(#clip7900)">
<text style="fill:#000000; fill-opacity:1; font-family:Arial,Helvetica Neue,Helvetica,sans-serif; font-size:12; text-anchor:middle;" transform="rotate(0, 341.626, 389.669)" x="341.626" y="389.669">6</text>
</g>
<g clip-path="url(#clip7900)">
<text style="fill:#000000; fill-opacity:1; font-family:Arial,Helvetica Neue,Helvetica,sans-serif; font-size:12; text-anchor:middle;" transform="rotate(0, 453.424, 389.669)" x="453.424" y="389.669">8</text>
</g>
<g clip-path="url(#clip7900)">
<text style="fill:#000000; fill-opacity:1; font-family:Arial,Helvetica Neue,Helvetica,sans-serif; font-size:12; text-anchor:middle;" transform="rotate(0, 565.222, 389.669)" x="565.222" y="389.669">10</text>
</g>
<g clip-path="url(#clip7900)">
<text style="fill:#000000; fill-opacity:1; font-family:Arial,Helvetica Neue,Helvetica,sans-serif; font-size:12; text-anchor:end;" transform="rotate(0, 41.0391, 322.061)" x="41.0391" y="322.061">5.0</text>
</g>
<g clip-path="url(#clip7900)">
<text style="fill:#000000; fill-opacity:1; font-family:Arial,Helvetica Neue,Helvetica,sans-serif; font-size:12; text-anchor:end;" transform="rotate(0, 41.0391, 248.199)" x="41.0391" y="248.199">7.5</text>
</g>
<g clip-path="url(#clip7900)">
<text style="fill:#000000; fill-opacity:1; font-family:Arial,Helvetica Neue,Helvetica,sans-serif; font-size:12; text-anchor:end;" transform="rotate(0, 41.0391, 174.338)" x="41.0391" y="174.338">10.0</text>
</g>
<g clip-path="url(#clip7900)">
<text style="fill:#000000; fill-opacity:1; font-family:Arial,Helvetica Neue,Helvetica,sans-serif; font-size:12; text-anchor:end;" transform="rotate(0, 41.0391, 100.476)" x="41.0391" y="100.476">12.5</text>
</g>
<g clip-path="url(#clip7900)">
<text style="fill:#000000; fill-opacity:1; font-family:Arial,Helvetica Neue,Helvetica,sans-serif; font-size:12; text-anchor:end;" transform="rotate(0, 41.0391, 26.6145)" x="41.0391" y="26.6145">15.0</text>
</g>
<polygon clip-path="url(#clip7902)" points="
62.1318,365.565 118.031,328.319 173.93,295.581 229.829,334.768 285.728,293.962 341.626,300.629 397.525,287.16 453.424,197.87 509.323,299.834 565.222,327.409 
  565.222,81.2038 509.323,22.1145 453.424,135.24 397.525,193.674 341.626,240.231 285.728,199.452 229.829,315.152 173.93,253.093 118.031,316.679 62.1318,325.477 
  
  " fill="#009af9" fill-opacity="0.5"/>
<polyline clip-path="url(#clip7902)" style="stroke:#009af9; stroke-width:1; stroke-opacity:1; fill:none" points="
  62.1318,345.521 118.031,322.499 173.93,274.337 229.829,324.96 285.728,246.707 341.626,270.43 397.525,240.417 453.424,166.555 509.323,160.974 565.222,204.306 
  
  "/>
<polygon clip-path="url(#clip7902)" points="
62.1318,361.758 118.031,347.23 173.93,349.467 229.829,324.947 285.728,364.562 341.626,326.861 397.525,345.9 453.424,278.604 509.323,349.185 509.323,207.152 
  453.424,166.94 397.525,286.76 341.626,268.458 285.728,330.264 229.829,312.637 173.93,299.131 118.031,332.004 62.1318,351.462 
  " fill="#e26f46" fill-opacity="0.5"/>
<polyline clip-path="url(#clip7902)" style="stroke:#e26f46; stroke-width:1; stroke-opacity:1; fill:none" points="
  62.1318,356.61 118.031,339.617 173.93,324.299 229.829,318.792 285.728,347.413 341.626,297.659 397.525,316.33 453.424,222.772 509.323,278.168 
  "/>
<polygon clip-path="url(#clip7900)" points="
475.577,78.051 562.315,78.051 562.315,32.691 475.577,32.691 
  " fill="#ffffff" fill-opacity="1"/>
<polyline clip-path="url(#clip7900)" style="stroke:#000000; stroke-width:1; stroke-opacity:1; fill:none" points="
  475.577,78.051 562.315,78.051 562.315,32.691 475.577,32.691 475.577,78.051 
  "/>
<polyline clip-path="url(#clip7900)" style="stroke:#009af9; stroke-width:1; stroke-opacity:1; fill:none" points="
  481.577,47.811 517.577,47.811 
  "/>
<g clip-path="url(#clip7900)">
<text style="fill:#000000; fill-opacity:1; font-family:Arial,Helvetica Neue,Helvetica,sans-serif; font-size:12; text-anchor:start;" transform="rotate(0, 523.577, 52.311)" x="523.577" y="52.311">CNO</text>
</g>
<polyline clip-path="url(#clip7900)" style="stroke:#e26f46; stroke-width:1; stroke-opacity:1; fill:none" points="
  481.577,62.931 517.577,62.931 
  "/>
<g clip-path="url(#clip7900)">
<text style="fill:#000000; fill-opacity:1; font-family:Arial,Helvetica Neue,Helvetica,sans-serif; font-size:12; text-anchor:start;" transform="rotate(0, 523.577, 67.431)" x="523.577" y="67.431">SAL</text>
</g>
</svg>
