<?xml version="1.0" encoding="utf-8"?>
<svg xmlns="http://www.w3.org/2000/svg" xmlns:xlink="http://www.w3.org/1999/xlink" width="600" height="400" viewBox="0 0 600 400">
<defs>
  <clipPath id="clip8300">
    <rect x="0" y="0" width="600" height="400"/>
  </clipPath>
</defs>
<polygon clip-path="url(#clip8300)" points="
0,400 600,400 600,0 0,0 
  " fill="#ffffff" fill-opacity="1"/>
<defs>
  <clipPath id="clip8301">
    <rect x="120" y="0" width="421" height="400"/>
  </clipPath>
</defs>
<polygon clip-path="url(#clip8300)" points="
47.0391,375.869 580.315,375.869 580.315,11.811 47.0391,11.811 
  " fill="#ffffff" fill-opacity="1"/>
<defs>
  <clipPath id="clip8302">
    <rect x="47" y="11" width="534" height="365"/>
  </clipPath>
</defs>
<polyline clip-path="url(#clip8302)" style="stroke:#000000; stroke-width:0.5; stroke-opacity:0.1; fill:none" points="
  125.018,375.869 125.018,11.811 
  "/>
<polyline clip-path="url(#clip8302)" style="stroke:#000000; stroke-width:0.5; stroke-opacity:0.1; fill:none" points="
  250.791,375.869 250.791,11.811 
  "/>
<polyline clip-path="url(#clip8302)" style="stroke:#000000; stroke-width:0.5; stroke-opacity:0.1; fill:none" points="
  376.563,375.869 376.563,11.811 
  "/>
<polyline clip-path="url(#clip8302)" style="stroke:#000000; stroke-width:0.5; stroke-opacity:0.1; fill:none" points="
  502.336,375.869 502.336,11.811 
  "/>
<polyline clip-path="url(#clip8302)" style="stroke:#000000; stroke-width:0.5; stroke-opacity:0.1; fill:none" points="
  47.0391,351.255 580.315,351.255 
  "/>
<polyline clip-path="url(#clip8302)" style="stroke:#000000; stroke-width:0.5; stroke-opacity:0.1; fill:none" points="
  47.0391,279.703 580.315,279.703 
  "/>
<polyline clip-path="url(#clip8302)" style="stroke:#000000; stroke-width:0.5; stroke-opacity:0.1; fill:none" points="
  47.0391,208.15 580.315,208.15 
  "/>
<polyline clip-path="url(#clip8302)" style="stroke:#000000; stroke-width:0.5; stroke-opacity:0.1; fill:none" points="
  47.0391,136.598 580.315,136.598 
  "/>
<polyline clip-path="url(#clip8302)" style="stroke:#000000; stroke-width:0.5; stroke-opacity:0.1; fill:none" points="
  47.0391,65.0459 580.315,65.0459 
  "/>
<polyline clip-path="url(#clip8300)" style="stroke:#000000; stroke-width:1; stroke-opacity:1; fill:none" points="
  47.0391,375.869 580.315,375.869 
  "/>
<polyline clip-path="url(#clip8300)" style="stroke:#000000; stroke-width:1; stroke-opacity:1; fill:none" points="
  47.0391,375.869 47.0391,11.811 
  "/>
<polyline clip-path="url(#clip8300)" style="stroke:#000000; stroke-width:1; stroke-opacity:1; fill:none" points="
  125.018,375.869 125.018,370.408 
  "/>
<polyline clip-path="url(#clip8300)" style="stroke:#000000; stroke-width:1; stroke-opacity:1; fill:none" points="
  250.791,375.869 250.791,370.408 
  "/>
<polyline clip-path="url(#clip8300)" style="stroke:#000000; stroke-width:1; stroke-opacity:1; fill:none" points="
  376.563,375.869 376.563,370.408 
  "/>
<polyline clip-path="url(#clip8300)" style="stroke:#000000; stroke-width:1; stroke-opacity:1; fill:none" points="
  502.336,375.869 502.336,370.408 
  "/>
<polyline clip-path="url(#clip8300)" style="stroke:#000000; stroke-width:1; stroke-opacity:1; fill:none" points="
  47.0391,351.255 55.0382,351.255 
  "/>
<polyline clip-path="url(#clip8300)" style="stroke:#000000; stroke-width:1; stroke-opacity:1; fill:none" points="
  47.0391,279.703 55.0382,279.703 
  "/>
<polyline clip-path="url(#clip8300)" style="stroke:#000000; stroke-width:1; stroke-opacity:1; fill:none" points="
  47.0391,208.15 55.0382,208.15 
  "/>
<polyline clip-path="url(#clip8300)" style="stroke:#000000; stroke-width:1; stroke-opacity:1; fill:none" points="
  47.0391,136.598 55.0382,136.598 
  "/>
<polyline clip-path="url(#clip8300)" style="stroke:#000000; stroke-width:1; stroke-opacity:1; fill:none" points="
  47.0391,65.0459 55.0382,65.0459 
  "/>
<g clip-path="url(#clip8300)">
<text style="fill:#000000; fill-opacity:1; font-family:Arial,Helvetica Neue,Helvetica,sans-serif; font-size:12; text-anchor:middle;" transform="rotate(0, 125.018, 389.669)" x="125.018" y="389.669">2</text>
</g>
<g clip-path="url(#clip8300)">
<text style="fill:#000000; fill-opacity:1; font-family:Arial,Helvetica Neue,Helvetica,sans-serif; font-size:12; text-anchor:middle;" transform="rotate(0, 250.791, 389.669)" x="250.791" y="389.669">4</text>
</g>
<g clip-path="url(#clip8300)">
<text style="fill:#000000; fill-opacity:1; font-family:Arial,Helvetica Neue,Helvetica,sans-serif; font-size:12; text-anchor:middle;" transform="rotate(0, 376.563, 389.669)" x="376.563" y="389.669">6</text>
</g>
<g clip-path="url(#clip8300)">
<text style="fill:#000000; fill-opacity:1; font-family:Arial,Helvetica Neue,Helvetica,sans-serif; font-size:12; text-anchor:middle;" transform="rotate(0, 502.336, 389.669)" x="502.336" y="389.669">8</text>
</g>
<g clip-path="url(#clip8300)">
<text style="fill:#000000; fill-opacity:1; font-family:Arial,Helvetica Neue,Helvetica,sans-serif; font-size:12; text-anchor:end;" transform="rotate(0, 41.0391, 355.755)" x="41.0391" y="355.755">2.5</text>
</g>
<g clip-path="url(#clip8300)">
<text style="fill:#000000; fill-opacity:1; font-family:Arial,Helvetica Neue,Helvetica,sans-serif; font-size:12; text-anchor:end;" transform="rotate(0, 41.0391, 284.203)" x="41.0391" y="284.203">5.0</text>
</g>
<g clip-path="url(#clip8300)">
<text style="fill:#000000; fill-opacity:1; font-family:Arial,Helvetica Neue,Helvetica,sans-serif; font-size:12; text-anchor:end;" transform="rotate(0, 41.0391, 212.65)" x="41.0391" y="212.65">7.5</text>
</g>
<g clip-path="url(#clip8300)">
<text style="fill:#000000; fill-opacity:1; font-family:Arial,Helvetica Neue,Helvetica,sans-serif; font-size:12; text-anchor:end;" transform="rotate(0, 41.0391, 141.098)" x="41.0391" y="141.098">10.0</text>
</g>
<g clip-path="url(#clip8300)">
<text style="fill:#000000; fill-opacity:1; font-family:Arial,Helvetica Neue,Helvetica,sans-serif; font-size:12; text-anchor:end;" transform="rotate(0, 41.0391, 69.5459)" x="41.0391" y="69.5459">12.5</text>
</g>
<polygon clip-path="url(#clip8302)" points="
62.1318,342.668 125.018,339.546 187.904,320.589 250.791,328.358 313.677,298.783 376.563,365.565 439.45,251.082 439.45,150.909 376.563,336.944 313.677,136.598 
  250.791,222.461 187.904,258.887 125.018,222.461 62.1318,316.78 
  " fill="#009af9" fill-opacity="0.5"/>
<polyline clip-path="url(#clip8302)" style="stroke:#009af9; stroke-width:1; stroke-opacity:1; fill:none" points="
  62.1318,329.724 125.018,281.003 187.904,289.738 250.791,275.409 313.677,217.691 376.563,351.255 439.45,200.995 
  "/>
<polygon clip-path="url(#clip8302)" points="
62.1318,333.764 125.018,353.044 187.904,310.112 250.791,289.243 313.677,284.473 376.563,222.461 565.222,222.461 565.222,22.1145 376.563,107.977 313.677,279.703 
  250.791,179.529 187.904,279.703 125.018,266.346 62.1318,314.048 
  " fill="#e26f46" fill-opacity="0.5"/>
<polyline clip-path="url(#clip8302)" style="stroke:#e26f46; stroke-width:1; stroke-opacity:1; fill:none" points="
  62.1318,323.906 125.018,309.695 187.904,294.907 250.791,234.386 313.677,282.088 376.563,165.219 565.222,122.288 
  "/>
<polygon clip-path="url(#clip8300)" points="
475.577,78.051 562.315,78.051 562.315,32.691 475.577,32.691 
  " fill="#ffffff" fill-opacity="1"/>
<polyline clip-path="url(#clip8300)" style="stroke:#000000; stroke-width:1; stroke-opacity:1; fill:none" points="
  475.577,78.051 562.315,78.051 562.315,32.691 475.577,32.691 475.577,78.051 
  "/>
<polyline clip-path="url(#clip8300)" style="stroke:#009af9; stroke-width:1; stroke-opacity:1; fill:none" points="
  481.577,47.811 517.577,47.811 
  "/>
<g clip-path="url(#clip8300)">
<text style="fill:#000000; fill-opacity:1; font-family:Arial,Helvetica Neue,Helvetica,sans-serif; font-size:12; text-anchor:start;" transform="rotate(0, 523.577, 52.311)" x="523.577" y="52.311">CNO</text>
</g>
<polyline clip-path="url(#clip8300)" style="stroke:#e26f46; stroke-width:1; stroke-opacity:1; fill:none" points="
  481.577,62.931 517.577,62.931 
  "/>
<g clip-path="url(#clip8300)">
<text style="fill:#000000; fill-opacity:1; font-family:Arial,Helvetica Neue,Helvetica,sans-serif; font-size:12; text-anchor:start;" transform="rotate(0, 523.577, 67.431)" x="523.577" y="67.431">SAL</text>
</g>
</svg>
