<?xml version="1.0" encoding="utf-8"?>
<svg xmlns="http://www.w3.org/2000/svg" xmlns:xlink="http://www.w3.org/1999/xlink" width="600" height="400" viewBox="0 0 600 400">
<defs>
  <clipPath id="clip3500">
    <rect x="0" y="0" width="600" height="400"/>
  </clipPath>
</defs>
<polygon clip-path="url(#clip3500)" points="
0,400 600,400 600,0 0,0 
  " fill="#ffffff" fill-opacity="1"/>
<defs>
  <clipPath id="clip3501">
    <rect x="120" y="0" width="421" height="400"/>
  </clipPath>
</defs>
<polygon clip-path="url(#clip3500)" points="
47.0391,375.869 580.315,375.869 580.315,11.811 47.0391,11.811 
  " fill="#ffffff" fill-opacity="1"/>
<defs>
  <clipPath id="clip3502">
    <rect x="47" y="11" width="534" height="365"/>
  </clipPath>
</defs>
<polyline clip-path="url(#clip3502)" style="stroke:#000000; stroke-width:0.5; stroke-opacity:0.1; fill:none" points="
  62.1318,375.869 62.1318,11.811 
  "/>
<polyline clip-path="url(#clip3502)" style="stroke:#000000; stroke-width:0.5; stroke-opacity:0.1; fill:none" points="
  229.829,375.869 229.829,11.811 
  "/>
<polyline clip-path="url(#clip3502)" style="stroke:#000000; stroke-width:0.5; stroke-opacity:0.1; fill:none" points="
  397.525,375.869 397.525,11.811 
  "/>
<polyline clip-path="url(#clip3502)" style="stroke:#000000; stroke-width:0.5; stroke-opacity:0.1; fill:none" points="
  565.222,375.869 565.222,11.811 
  "/>
<polyline clip-path="url(#clip3502)" style="stroke:#000000; stroke-width:0.5; stroke-opacity:0.1; fill:none" points="
  47.0391,365.565 580.315,365.565 
  "/>
<polyline clip-path="url(#clip3502)" style="stroke:#000000; stroke-width:0.5; stroke-opacity:0.1; fill:none" points="
  47.0391,272.015 580.315,272.015 
  "/>
<polyline clip-path="url(#clip3502)" style="stroke:#000000; stroke-width:0.5; stroke-opacity:0.1; fill:none" points="
  47.0391,178.465 580.315,178.465 
  "/>
<polyline clip-path="url(#clip3502)" style="stroke:#000000; stroke-width:0.5; stroke-opacity:0.1; fill:none" points="
  47.0391,84.9155 580.315,84.9155 
  "/>
<polyline clip-path="url(#clip3500)" style="stroke:#000000; stroke-width:1; stroke-opacity:1; fill:none" points="
  47.0391,375.869 580.315,375.869 
  "/>
<polyline clip-path="url(#clip3500)" style="stroke:#000000; stroke-width:1; stroke-opacity:1; fill:none" points="
  47.0391,375.869 47.0391,11.811 
  "/>
<polyline clip-path="url(#clip3500)" style="stroke:#000000; stroke-width:1; stroke-opacity:1; fill:none" points="
  62.1318,375.869 62.1318,370.408 
  "/>
<polyline clip-path="url(#clip3500)" style="stroke:#000000; stroke-width:1; stroke-opacity:1; fill:none" points="
  229.829,375.869 229.829,370.408 
  "/>
<polyline clip-path="url(#clip3500)" style="stroke:#000000; stroke-width:1; stroke-opacity:1; fill:none" points="
  397.525,375.869 397.525,370.408 
  "/>
<polyline clip-path="url(#clip3500)" style="stroke:#000000; stroke-width:1; stroke-opacity:1; fill:none" points="
  565.222,375.869 565.222,370.408 
  "/>
<polyline clip-path="url(#clip3500)" style="stroke:#000000; stroke-width:1; stroke-opacity:1; fill:none" points="
  47.0391,365.565 55.0382,365.565 
  "/>
<polyline clip-path="url(#clip3500)" style="stroke:#000000; stroke-width:1; stroke-opacity:1; fill:none" points="
  47.0391,272.015 55.0382,272.015 
  "/>
<polyline clip-path="url(#clip3500)" style="stroke:#000000; stroke-width:1; stroke-opacity:1; fill:none" points="
  47.0391,178.465 55.0382,178.465 
  "/>
<polyline clip-path="url(#clip3500)" style="stroke:#000000; stroke-width:1; stroke-opacity:1; fill:none" points="
  47.0391,84.9155 55.0382,84.9155 
  "/>
<g clip-path="url(#clip3500)">
<text style="fill:#000000; fill-opacity:1; font-family:Arial,Helvetica Neue,Helvetica,sans-serif; font-size:12; text-anchor:middle;" transform="rotate(0, 62.1318, 389.669)" x="62.1318" y="389.669">0</text>
</g>
<g clip-path="url(#clip3500)">
<text style="fill:#000000; fill-opacity:1; font-family:Arial,Helvetica Neue,Helvetica,sans-serif; font-size:12; text-anchor:middle;" transform="rotate(0, 229.829, 389.669)" x="229.829" y="389.669">5</text>
</g>
<g clip-path="url(#clip3500)">
<text style="fill:#000000; fill-opacity:1; font-family:Arial,Helvetica Neue,Helvetica,sans-serif; font-size:12; text-anchor:middle;" transform="rotate(0, 397.525, 389.669)" x="397.525" y="389.669">10</text>
</g>
<g clip-path="url(#clip3500)">
<text style="fill:#000000; fill-opacity:1; font-family:Arial,Helvetica Neue,Helvetica,sans-serif; font-size:12; text-anchor:middle;" transform="rotate(0, 565.222, 389.669)" x="565.222" y="389.669">15</text>
</g>
<g clip-path="url(#clip3500)">
<text style="fill:#000000; fill-opacity:1; font-family:Arial,Helvetica Neue,Helvetica,sans-serif; font-size:12; text-anchor:end;" transform="rotate(0, 41.0391, 370.065)" x="41.0391" y="370.065">0.00</text>
</g>
<g clip-path="url(#clip3500)">
<text style="fill:#000000; fill-opacity:1; font-family:Arial,Helvetica Neue,Helvetica,sans-serif; font-size:12; text-anchor:end;" transform="rotate(0, 41.0391, 276.515)" x="41.0391" y="276.515">0.05</text>
</g>
<g clip-path="url(#clip3500)">
<text style="fill:#000000; fill-opacity:1; font-family:Arial,Helvetica Neue,Helvetica,sans-serif; font-size:12; text-anchor:end;" transform="rotate(0, 41.0391, 182.965)" x="41.0391" y="182.965">0.10</text>
</g>
<g clip-path="url(#clip3500)">
<text style="fill:#000000; fill-opacity:1; font-family:Arial,Helvetica Neue,Helvetica,sans-serif; font-size:12; text-anchor:end;" transform="rotate(0, 41.0391, 89.4155)" x="41.0391" y="89.4155">0.15</text>
</g>
<polygon clip-path="url(#clip3502)" points="
62.1318,316.769 95.6712,265.463 129.211,213 162.75,110.481 196.289,175.16 229.829,198.149 263.368,223.857 296.907,280.746 330.447,294.265 363.986,279.317 
  397.525,306.226 431.065,324.101 464.604,328.046 498.144,347.999 531.683,365.565 565.222,357.97 565.222,328.998 531.683,358.737 498.144,318.916 464.604,307.262 
  431.065,286.414 397.525,284.249 363.986,241.488 330.447,259.818 296.907,224.507 263.368,186.096 229.829,112.809 196.289,103.339 162.75,22.1145 129.211,194.135 
  95.6712,231.188 62.1318,108.907 
  " fill="#009af9" fill-opacity="0.5"/>
<polyline clip-path="url(#clip3502)" style="stroke:#009af9; stroke-width:1; stroke-opacity:1; fill:none" points="
  62.1318,212.838 95.6712,248.325 129.211,203.567 162.75,66.2977 196.289,139.25 229.829,155.479 263.368,204.977 296.907,252.627 330.447,277.041 363.986,260.402 
  397.525,295.238 431.065,305.257 464.604,317.654 498.144,333.458 531.683,362.151 565.222,343.484 
  "/>
<polygon clip-path="url(#clip3502)" points="
62.1318,265.279 95.6712,223.674 129.211,158.701 162.75,116.468 196.289,124.042 229.829,203.877 263.368,206.372 296.907,320.434 330.447,281.577 363.986,318.918 
  397.525,336.04 431.065,349.869 464.604,361.194 498.144,361.422 531.683,361.805 565.222,361.422 565.222,340.749 531.683,350.023 498.144,340.749 464.604,326.359 
  431.065,333.087 397.525,302.89 363.986,263.292 330.447,257.793 296.907,248.982 263.368,160.352 229.829,146.431 196.289,72.2846 162.75,63.2308 129.211,95.6835 
  95.6712,182.255 62.1318,120.836 
  " fill="#e26f46" fill-opacity="0.5"/>
<polyline clip-path="url(#clip3502)" style="stroke:#e26f46; stroke-width:1; stroke-opacity:1; fill:none" points="
  62.1318,193.057 95.6712,202.964 129.211,127.192 162.75,89.8496 196.289,98.1635 229.829,175.154 263.368,183.362 296.907,284.708 330.447,269.685 363.986,291.105 
  397.525,319.465 431.065,341.478 464.604,343.777 498.144,351.085 531.683,355.914 565.222,351.085 
  "/>
<polygon clip-path="url(#clip3500)" points="
475.577,78.051 562.315,78.051 562.315,32.691 475.577,32.691 
  " fill="#ffffff" fill-opacity="1"/>
<polyline clip-path="url(#clip3500)" style="stroke:#000000; stroke-width:1; stroke-opacity:1; fill:none" points="
  475.577,78.051 562.315,78.051 562.315,32.691 475.577,32.691 475.577,78.051 
  "/>
<polyline clip-path="url(#clip3500)" style="stroke:#009af9; stroke-width:1; stroke-opacity:1; fill:none" points="
  481.577,47.811 517.577,47.811 
  "/>
<g clip-path="url(#clip3500)">
<text style="fill:#000000; fill-opacity:1; font-family:Arial,Helvetica Neue,Helvetica,sans-serif; font-size:12; text-anchor:start;" transform="rotate(0, 523.577, 52.311)" x="523.577" y="52.311">CNO</text>
</g>
<polyline clip-path="url(#clip3500)" style="stroke:#e26f46; stroke-width:1; stroke-opacity:1; fill:none" points="
  481.577,62.931 517.577,62.931 
  "/>
<g clip-path="url(#clip3500)">
<text style="fill:#000000; fill-opacity:1; font-family:Arial,Helvetica Neue,Helvetica,sans-serif; font-size:12; text-anchor:start;" transform="rotate(0, 523.577, 67.431)" x="523.577" y="67.431">SAL</text>
</g>
</svg>
