<?xml version="1.0" encoding="utf-8"?>
<svg xmlns="http://www.w3.org/2000/svg" xmlns:xlink="http://www.w3.org/1999/xlink" width="600" height="400" viewBox="0 0 600 400">
<defs>
  <clipPath id="clip3100">
    <rect x="0" y="0" width="600" height="400"/>
  </clipPath>
</defs>
<polygon clip-path="url(#clip3100)" points="
0,400 600,400 600,0 0,0 
  " fill="#ffffff" fill-opacity="1"/>
<defs>
  <clipPath id="clip3101">
    <rect x="120" y="0" width="421" height="400"/>
  </clipPath>
</defs>
<polygon clip-path="url(#clip3100)" points="
47.0391,375.869 580.315,375.869 580.315,11.811 47.0391,11.811 
  " fill="#ffffff" fill-opacity="1"/>
<defs>
  <clipPath id="clip3102">
    <rect x="47" y="11" width="534" height="365"/>
  </clipPath>
</defs>
<polyline clip-path="url(#clip3102)" style="stroke:#000000; stroke-width:0.5; stroke-opacity:0.1; fill:none" points="
  62.1318,375.869 62.1318,11.811 
  "/>
<polyline clip-path="url(#clip3102)" style="stroke:#000000; stroke-width:0.5; stroke-opacity:0.1; fill:none" points="
  229.829,375.869 229.829,11.811 
  "/>
<polyline clip-path="url(#clip3102)" style="stroke:#000000; stroke-width:0.5; stroke-opacity:0.1; fill:none" points="
  397.525,375.869 397.525,11.811 
  "/>
<polyline clip-path="url(#clip3102)" style="stroke:#000000; stroke-width:0.5; stroke-opacity:0.1; fill:none" points="
  565.222,375.869 565.222,11.811 
  "/>
<polyline clip-path="url(#clip3102)" style="stroke:#000000; stroke-width:0.5; stroke-opacity:0.1; fill:none" points="
  47.0391,374.762 580.315,374.762 
  "/>
<polyline clip-path="url(#clip3102)" style="stroke:#000000; stroke-width:0.5; stroke-opacity:0.1; fill:none" points="
  47.0391,286.6 580.315,286.6 
  "/>
<polyline clip-path="url(#clip3102)" style="stroke:#000000; stroke-width:0.5; stroke-opacity:0.1; fill:none" points="
  47.0391,198.438 580.315,198.438 
  "/>
<polyline clip-path="url(#clip3102)" style="stroke:#000000; stroke-width:0.5; stroke-opacity:0.1; fill:none" points="
  47.0391,110.276 580.315,110.276 
  "/>
<polyline clip-path="url(#clip3102)" style="stroke:#000000; stroke-width:0.5; stroke-opacity:0.1; fill:none" points="
  47.0391,22.1145 580.315,22.1145 
  "/>
<polyline clip-path="url(#clip3100)" style="stroke:#000000; stroke-width:1; stroke-opacity:1; fill:none" points="
  47.0391,375.869 580.315,375.869 
  "/>
<polyline clip-path="url(#clip3100)" style="stroke:#000000; stroke-width:1; stroke-opacity:1; fill:none" points="
  47.0391,375.869 47.0391,11.811 
  "/>
<polyline clip-path="url(#clip3100)" style="stroke:#000000; stroke-width:1; stroke-opacity:1; fill:none" points="
  62.1318,375.869 62.1318,370.408 
  "/>
<polyline clip-path="url(#clip3100)" style="stroke:#000000; stroke-width:1; stroke-opacity:1; fill:none" points="
  229.829,375.869 229.829,370.408 
  "/>
<polyline clip-path="url(#clip3100)" style="stroke:#000000; stroke-width:1; stroke-opacity:1; fill:none" points="
  397.525,375.869 397.525,370.408 
  "/>
<polyline clip-path="url(#clip3100)" style="stroke:#000000; stroke-width:1; stroke-opacity:1; fill:none" points="
  565.222,375.869 565.222,370.408 
  "/>
<polyline clip-path="url(#clip3100)" style="stroke:#000000; stroke-width:1; stroke-opacity:1; fill:none" points="
  47.0391,374.762 55.0382,374.762 
  "/>
<polyline clip-path="url(#clip3100)" style="stroke:#000000; stroke-width:1; stroke-opacity:1; fill:none" points="
  47.0391,286.6 55.0382,286.6 
  "/>
<polyline clip-path="url(#clip3100)" style="stroke:#000000; stroke-width:1; stroke-opacity:1; fill:none" points="
  47.0391,198.438 55.0382,198.438 
  "/>
<polyline clip-path="url(#clip3100)" style="stroke:#000000; stroke-width:1; stroke-opacity:1; fill:none" points="
  47.0391,110.276 55.0382,110.276 
  "/>
<polyline clip-path="url(#clip3100)" style="stroke:#000000; stroke-width:1; stroke-opacity:1; fill:none" points="
  47.0391,22.1145 55.0382,22.1145 
  "/>
<g clip-path="url(#clip3100)">
<text style="fill:#000000; fill-opacity:1; font-family:Arial,Helvetica Neue,Helvetica,sans-serif; font-size:12; text-anchor:middle;" transform="rotate(0, 62.1318, 389.669)" x="62.1318" y="389.669">0</text>
</g>
<g clip-path="url(#clip3100)">
<text style="fill:#000000; fill-opacity:1; font-family:Arial,Helvetica Neue,Helvetica,sans-serif; font-size:12; text-anchor:middle;" transform="rotate(0, 229.829, 389.669)" x="229.829" y="389.669">5</text>
</g>
<g clip-path="url(#clip3100)">
<text style="fill:#000000; fill-opacity:1; font-family:Arial,Helvetica Neue,Helvetica,sans-serif; font-size:12; text-anchor:middle;" transform="rotate(0, 397.525, 389.669)" x="397.525" y="389.669">10</text>
</g>
<g clip-path="url(#clip3100)">
<text style="fill:#000000; fill-opacity:1; font-family:Arial,Helvetica Neue,Helvetica,sans-serif; font-size:12; text-anchor:middle;" transform="rotate(0, 565.222, 389.669)" x="565.222" y="389.669">15</text>
</g>
<g clip-path="url(#clip3100)">
<text style="fill:#000000; fill-opacity:1; font-family:Arial,Helvetica Neue,Helvetica,sans-serif; font-size:12; text-anchor:end;" transform="rotate(0, 41.0391, 379.262)" x="41.0391" y="379.262">0.00</text>
</g>
<g clip-path="url(#clip3100)">
<text style="fill:#000000; fill-opacity:1; font-family:Arial,Helvetica Neue,Helvetica,sans-serif; font-size:12; text-anchor:end;" transform="rotate(0, 41.0391, 291.1)" x="41.0391" y="291.1">0.25</text>
</g>
<g clip-path="url(#clip3100)">
<text style="fill:#000000; fill-opacity:1; font-family:Arial,Helvetica Neue,Helvetica,sans-serif; font-size:12; text-anchor:end;" transform="rotate(0, 41.0391, 202.938)" x="41.0391" y="202.938">0.50</text>
</g>
<g clip-path="url(#clip3100)">
<text style="fill:#000000; fill-opacity:1; font-family:Arial,Helvetica Neue,Helvetica,sans-serif; font-size:12; text-anchor:end;" transform="rotate(0, 41.0391, 114.776)" x="41.0391" y="114.776">0.75</text>
</g>
<g clip-path="url(#clip3100)">
<text style="fill:#000000; fill-opacity:1; font-family:Arial,Helvetica Neue,Helvetica,sans-serif; font-size:12; text-anchor:end;" transform="rotate(0, 41.0391, 26.6145)" x="41.0391" y="26.6145">1.00</text>
</g>
<polygon clip-path="url(#clip3102)" points="
62.1318,365.565 95.6712,345.007 129.211,315.097 162.75,253.853 196.289,205.79 229.829,163.816 263.368,133.24 296.907,109.828 330.447,90.7421 363.986,72.7142 
  397.525,58.4382 431.065,48.4629 464.604,37.4802 498.144,29.7995 531.683,29.0067 565.222,22.1145 565.222,22.1145 531.683,23.5461 498.144,24.0404 464.604,28.463 
  431.065,35.5411 397.525,48.2996 363.986,60.5344 330.447,82.1489 296.907,96.4336 263.368,115.595 229.829,145.555 196.289,182.775 162.75,220.025 129.211,271.593 
  95.6712,302.75 62.1318,326.387 
  " fill="#009af9" fill-opacity="0.5"/>
<polyline clip-path="url(#clip3102)" style="stroke:#009af9; stroke-width:1; stroke-opacity:1; fill:none" points="
  62.1318,345.976 95.6712,323.879 129.211,293.345 162.75,236.939 196.289,194.283 229.829,154.685 263.368,124.417 296.907,103.131 330.447,86.4455 363.986,66.6243 
  397.525,53.3689 431.065,42.002 464.604,32.9716 498.144,26.9199 531.683,26.2764 565.222,22.1145 
  "/>
<polygon clip-path="url(#clip3102)" points="
62.1318,355.86 95.6712,323.904 129.211,279.158 162.75,230.869 196.289,177.356 229.829,139.763 263.368,107.22 296.907,89.9204 330.447,72.8357 363.986,55.2987 
  397.525,45.8038 431.065,40.9055 464.604,33.5617 498.144,29.011 531.683,26.792 565.222,22.1145 565.222,22.1145 531.683,22.8954 498.144,24.3145 464.604,25.2221 
  431.065,26.0918 397.525,30.2734 363.986,38.1565 330.447,48.6884 296.907,67.7469 263.368,80.927 229.829,117.069 196.289,151.253 162.75,198.54 129.211,254.186 
  95.6712,299.297 62.1318,328.636 
  " fill="#e26f46" fill-opacity="0.5"/>
<polyline clip-path="url(#clip3102)" style="stroke:#e26f46; stroke-width:1; stroke-opacity:1; fill:none" points="
  62.1318,342.248 95.6712,311.601 129.211,266.672 162.75,214.705 196.289,164.305 229.829,128.416 263.368,94.0737 296.907,78.8336 330.447,60.762 363.986,46.7276 
  397.525,38.0386 431.065,33.4986 464.604,29.3919 498.144,26.6628 531.683,24.8437 565.222,22.1145 
  "/>
<polygon clip-path="url(#clip3100)" points="
475.577,78.051 562.315,78.051 562.315,32.691 475.577,32.691 
  " fill="#ffffff" fill-opacity="1"/>
<polyline clip-path="url(#clip3100)" style="stroke:#000000; stroke-width:1; stroke-opacity:1; fill:none" points="
  475.577,78.051 562.315,78.051 562.315,32.691 475.577,32.691 475.577,78.051 
  "/>
<polyline clip-path="url(#clip3100)" style="stroke:#009af9; stroke-width:1; stroke-opacity:1; fill:none" points="
  481.577,47.811 517.577,47.811 
  "/>
<g clip-path="url(#clip3100)">
<text style="fill:#000000; fill-opacity:1; font-family:Arial,Helvetica Neue,Helvetica,sans-serif; font-size:12; text-anchor:start;" transform="rotate(0, 523.577, 52.311)" x="523.577" y="52.311">CNO</text>
</g>
<polyline clip-path="url(#clip3100)" style="stroke:#e26f46; stroke-width:1; stroke-opacity:1; fill:none" points="
  481.577,62.931 517.577,62.931 
  "/>
<g clip-path="url(#clip3100)">
<text style="fill:#000000; fill-opacity:1; font-family:Arial,Helvetica Neue,Helvetica,sans-serif; font-size:12; text-anchor:start;" transform="rotate(0, 523.577, 67.431)" x="523.577" y="67.431">SAL</text>
</g>
</svg>
