<?xml version="1.0" encoding="utf-8"?>
<svg xmlns="http://www.w3.org/2000/svg" xmlns:xlink="http://www.w3.org/1999/xlink" width="600" height="400" viewBox="0 0 600 400">
<defs>
  <clipPath id="clip4500">
    <rect x="0" y="0" width="600" height="400"/>
  </clipPath>
</defs>
<polygon clip-path="url(#clip4500)" points="
0,400 600,400 600,0 0,0 
  " fill="#ffffff" fill-opacity="1"/>
<defs>
  <clipPath id="clip4501">
    <rect x="120" y="0" width="421" height="400"/>
  </clipPath>
</defs>
<polygon clip-path="url(#clip4500)" points="
30.3126,375.869 580.315,375.869 580.315,11.811 30.3126,11.811 
  " fill="#ffffff" fill-opacity="1"/>
<defs>
  <clipPath id="clip4502">
    <rect x="30" y="11" width="551" height="365"/>
  </clipPath>
</defs>
<polyline clip-path="url(#clip4502)" style="stroke:#000000; stroke-width:0.5; stroke-opacity:0.1; fill:none" points="
  45.8787,375.869 45.8787,11.811 
  "/>
<polyline clip-path="url(#clip4502)" style="stroke:#000000; stroke-width:0.5; stroke-opacity:0.1; fill:none" points="
  149.653,375.869 149.653,11.811 
  "/>
<polyline clip-path="url(#clip4502)" style="stroke:#000000; stroke-width:0.5; stroke-opacity:0.1; fill:none" points="
  253.427,375.869 253.427,11.811 
  "/>
<polyline clip-path="url(#clip4502)" style="stroke:#000000; stroke-width:0.5; stroke-opacity:0.1; fill:none" points="
  357.201,375.869 357.201,11.811 
  "/>
<polyline clip-path="url(#clip4502)" style="stroke:#000000; stroke-width:0.5; stroke-opacity:0.1; fill:none" points="
  460.975,375.869 460.975,11.811 
  "/>
<polyline clip-path="url(#clip4502)" style="stroke:#000000; stroke-width:0.5; stroke-opacity:0.1; fill:none" points="
  564.749,375.869 564.749,11.811 
  "/>
<polyline clip-path="url(#clip4502)" style="stroke:#000000; stroke-width:0.5; stroke-opacity:0.1; fill:none" points="
  30.3126,326.153 580.315,326.153 
  "/>
<polyline clip-path="url(#clip4502)" style="stroke:#000000; stroke-width:0.5; stroke-opacity:0.1; fill:none" points="
  30.3126,250.143 580.315,250.143 
  "/>
<polyline clip-path="url(#clip4502)" style="stroke:#000000; stroke-width:0.5; stroke-opacity:0.1; fill:none" points="
  30.3126,174.134 580.315,174.134 
  "/>
<polyline clip-path="url(#clip4502)" style="stroke:#000000; stroke-width:0.5; stroke-opacity:0.1; fill:none" points="
  30.3126,98.1241 580.315,98.1241 
  "/>
<polyline clip-path="url(#clip4502)" style="stroke:#000000; stroke-width:0.5; stroke-opacity:0.1; fill:none" points="
  30.3126,22.1145 580.315,22.1145 
  "/>
<polyline clip-path="url(#clip4500)" style="stroke:#000000; stroke-width:1; stroke-opacity:1; fill:none" points="
  30.3126,375.869 580.315,375.869 
  "/>
<polyline clip-path="url(#clip4500)" style="stroke:#000000; stroke-width:1; stroke-opacity:1; fill:none" points="
  30.3126,375.869 30.3126,11.811 
  "/>
<polyline clip-path="url(#clip4500)" style="stroke:#000000; stroke-width:1; stroke-opacity:1; fill:none" points="
  45.8787,375.869 45.8787,370.408 
  "/>
<polyline clip-path="url(#clip4500)" style="stroke:#000000; stroke-width:1; stroke-opacity:1; fill:none" points="
  149.653,375.869 149.653,370.408 
  "/>
<polyline clip-path="url(#clip4500)" style="stroke:#000000; stroke-width:1; stroke-opacity:1; fill:none" points="
  253.427,375.869 253.427,370.408 
  "/>
<polyline clip-path="url(#clip4500)" style="stroke:#000000; stroke-width:1; stroke-opacity:1; fill:none" points="
  357.201,375.869 357.201,370.408 
  "/>
<polyline clip-path="url(#clip4500)" style="stroke:#000000; stroke-width:1; stroke-opacity:1; fill:none" points="
  460.975,375.869 460.975,370.408 
  "/>
<polyline clip-path="url(#clip4500)" style="stroke:#000000; stroke-width:1; stroke-opacity:1; fill:none" points="
  564.749,375.869 564.749,370.408 
  "/>
<polyline clip-path="url(#clip4500)" style="stroke:#000000; stroke-width:1; stroke-opacity:1; fill:none" points="
  30.3126,326.153 38.5627,326.153 
  "/>
<polyline clip-path="url(#clip4500)" style="stroke:#000000; stroke-width:1; stroke-opacity:1; fill:none" points="
  30.3126,250.143 38.5627,250.143 
  "/>
<polyline clip-path="url(#clip4500)" style="stroke:#000000; stroke-width:1; stroke-opacity:1; fill:none" points="
  30.3126,174.134 38.5627,174.134 
  "/>
<polyline clip-path="url(#clip4500)" style="stroke:#000000; stroke-width:1; stroke-opacity:1; fill:none" points="
  30.3126,98.1241 38.5627,98.1241 
  "/>
<polyline clip-path="url(#clip4500)" style="stroke:#000000; stroke-width:1; stroke-opacity:1; fill:none" points="
  30.3126,22.1145 38.5627,22.1145 
  "/>
<g clip-path="url(#clip4500)">
<text style="fill:#000000; fill-opacity:1; font-family:Arial,Helvetica Neue,Helvetica,sans-serif; font-size:12; text-anchor:middle;" transform="rotate(0, 45.8787, 389.669)" x="45.8787" y="389.669">20180718</text>
</g>
<g clip-path="url(#clip4500)">
<text style="fill:#000000; fill-opacity:1; font-family:Arial,Helvetica Neue,Helvetica,sans-serif; font-size:12; text-anchor:middle;" transform="rotate(0, 149.653, 389.669)" x="149.653" y="389.669">20180719</text>
</g>
<g clip-path="url(#clip4500)">
<text style="fill:#000000; fill-opacity:1; font-family:Arial,Helvetica Neue,Helvetica,sans-serif; font-size:12; text-anchor:middle;" transform="rotate(0, 253.427, 389.669)" x="253.427" y="389.669">20180720</text>
</g>
<g clip-path="url(#clip4500)">
<text style="fill:#000000; fill-opacity:1; font-family:Arial,Helvetica Neue,Helvetica,sans-serif; font-size:12; text-anchor:middle;" transform="rotate(0, 357.201, 389.669)" x="357.201" y="389.669">20180721</text>
</g>
<g clip-path="url(#clip4500)">
<text style="fill:#000000; fill-opacity:1; font-family:Arial,Helvetica Neue,Helvetica,sans-serif; font-size:12; text-anchor:middle;" transform="rotate(0, 460.975, 389.669)" x="460.975" y="389.669">20180722</text>
</g>
<g clip-path="url(#clip4500)">
<text style="fill:#000000; fill-opacity:1; font-family:Arial,Helvetica Neue,Helvetica,sans-serif; font-size:12; text-anchor:middle;" transform="rotate(0, 564.749, 389.669)" x="564.749" y="389.669">20180723</text>
</g>
<g clip-path="url(#clip4500)">
<text style="fill:#000000; fill-opacity:1; font-family:Arial,Helvetica Neue,Helvetica,sans-serif; font-size:12; text-anchor:end;" transform="rotate(0, 24.3126, 330.653)" x="24.3126" y="330.653">3</text>
</g>
<g clip-path="url(#clip4500)">
<text style="fill:#000000; fill-opacity:1; font-family:Arial,Helvetica Neue,Helvetica,sans-serif; font-size:12; text-anchor:end;" transform="rotate(0, 24.3126, 254.643)" x="24.3126" y="254.643">4</text>
</g>
<g clip-path="url(#clip4500)">
<text style="fill:#000000; fill-opacity:1; font-family:Arial,Helvetica Neue,Helvetica,sans-serif; font-size:12; text-anchor:end;" transform="rotate(0, 24.3126, 178.634)" x="24.3126" y="178.634">5</text>
</g>
<g clip-path="url(#clip4500)">
<text style="fill:#000000; fill-opacity:1; font-family:Arial,Helvetica Neue,Helvetica,sans-serif; font-size:12; text-anchor:end;" transform="rotate(0, 24.3126, 102.624)" x="24.3126" y="102.624">6</text>
</g>
<g clip-path="url(#clip4500)">
<text style="fill:#000000; fill-opacity:1; font-family:Arial,Helvetica Neue,Helvetica,sans-serif; font-size:12; text-anchor:end;" transform="rotate(0, 24.3126, 26.6145)" x="24.3126" y="26.6145">7</text>
</g>
<circle clip-path="url(#clip4502)" style="fill:#000000; stroke:none; fill-opacity:1" cx="357.201" cy="229.037" r="4"/>
<circle clip-path="url(#clip4502)" style="fill:#009af9; stroke:none; fill-opacity:1" cx="357.201" cy="229.037" r="3"/>
<circle clip-path="url(#clip4502)" style="fill:#000000; stroke:none; fill-opacity:1" cx="564.749" cy="205.287" r="4"/>
<circle clip-path="url(#clip4502)" style="fill:#009af9; stroke:none; fill-opacity:1" cx="564.749" cy="205.287" r="3"/>
<polyline clip-path="url(#clip4502)" style="stroke:#009af9; stroke-width:1; stroke-opacity:1; fill:none" points="
  357.201,230.528 357.201,227.546 
  "/>
<polyline clip-path="url(#clip4502)" style="stroke:#009af9; stroke-width:1; stroke-opacity:1; fill:none" points="
  564.749,290.384 564.749,120.191 
  "/>
<line clip-path="url(#clip4502)" x1="362.201" y1="230.528" x2="352.201" y2="230.528" style="stroke:#000000; stroke-opacity:1"/>
<line clip-path="url(#clip4502)" x1="362.201" y1="227.546" x2="352.201" y2="227.546" style="stroke:#000000; stroke-opacity:1"/>
<line clip-path="url(#clip4502)" x1="569.749" y1="290.384" x2="559.749" y2="290.384" style="stroke:#000000; stroke-opacity:1"/>
<line clip-path="url(#clip4502)" x1="569.749" y1="120.191" x2="559.749" y2="120.191" style="stroke:#000000; stroke-opacity:1"/>
<circle clip-path="url(#clip4502)" style="fill:#000000; stroke:none; fill-opacity:1" cx="45.8787" cy="295.186" r="4"/>
<circle clip-path="url(#clip4502)" style="fill:#e26f46; stroke:none; fill-opacity:1" cx="45.8787" cy="295.186" r="3"/>
<circle clip-path="url(#clip4502)" style="fill:#000000; stroke:none; fill-opacity:1" cx="253.427" cy="141.83" r="4"/>
<circle clip-path="url(#clip4502)" style="fill:#e26f46; stroke:none; fill-opacity:1" cx="253.427" cy="141.83" r="3"/>
<circle clip-path="url(#clip4502)" style="fill:#000000; stroke:none; fill-opacity:1" cx="460.975" cy="194.376" r="4"/>
<circle clip-path="url(#clip4502)" style="fill:#e26f46; stroke:none; fill-opacity:1" cx="460.975" cy="194.376" r="3"/>
<polyline clip-path="url(#clip4502)" style="stroke:#e26f46; stroke-width:1; stroke-opacity:1; fill:none" points="
  45.8787,365.565 45.8787,224.807 
  "/>
<polyline clip-path="url(#clip4502)" style="stroke:#e26f46; stroke-width:1; stroke-opacity:1; fill:none" points="
  253.427,261.545 253.427,22.1145 
  "/>
<polyline clip-path="url(#clip4502)" style="stroke:#e26f46; stroke-width:1; stroke-opacity:1; fill:none" points="
  460.975,254.144 460.975,134.609 
  "/>
<line clip-path="url(#clip4502)" x1="50.8787" y1="365.565" x2="40.8787" y2="365.565" style="stroke:#000000; stroke-opacity:1"/>
<line clip-path="url(#clip4502)" x1="50.8787" y1="224.807" x2="40.8787" y2="224.807" style="stroke:#000000; stroke-opacity:1"/>
<line clip-path="url(#clip4502)" x1="258.427" y1="261.545" x2="248.427" y2="261.545" style="stroke:#000000; stroke-opacity:1"/>
<line clip-path="url(#clip4502)" x1="258.427" y1="22.1145" x2="248.427" y2="22.1145" style="stroke:#000000; stroke-opacity:1"/>
<line clip-path="url(#clip4502)" x1="465.975" y1="254.144" x2="455.975" y2="254.144" style="stroke:#000000; stroke-opacity:1"/>
<line clip-path="url(#clip4502)" x1="465.975" y1="134.609" x2="455.975" y2="134.609" style="stroke:#000000; stroke-opacity:1"/>
<polygon clip-path="url(#clip4500)" points="
475.577,78.051 562.315,78.051 562.315,32.691 475.577,32.691 
  " fill="#ffffff" fill-opacity="1"/>
<polyline clip-path="url(#clip4500)" style="stroke:#000000; stroke-width:1; stroke-opacity:1; fill:none" points="
  475.577,78.051 562.315,78.051 562.315,32.691 475.577,32.691 475.577,78.051 
  "/>
<circle clip-path="url(#clip4500)" style="fill:#000000; stroke:none; fill-opacity:1" cx="502.577" cy="47.811" r="6"/>
<circle clip-path="url(#clip4500)" style="fill:#009af9; stroke:none; fill-opacity:1" cx="502.577" cy="47.811" r="5"/>
<g clip-path="url(#clip4500)">
<text style="fill:#000000; fill-opacity:1; font-family:Arial,Helvetica Neue,Helvetica,sans-serif; font-size:12; text-anchor:start;" transform="rotate(0, 523.577, 52.311)" x="523.577" y="52.311">CNO</text>
</g>
<circle clip-path="url(#clip4500)" style="fill:#000000; stroke:none; fill-opacity:1" cx="502.577" cy="62.931" r="6"/>
<circle clip-path="url(#clip4500)" style="fill:#e26f46; stroke:none; fill-opacity:1" cx="502.577" cy="62.931" r="5"/>
<g clip-path="url(#clip4500)">
<text style="fill:#000000; fill-opacity:1; font-family:Arial,Helvetica Neue,Helvetica,sans-serif; font-size:12; text-anchor:start;" transform="rotate(0, 523.577, 67.431)" x="523.577" y="67.431">SAL</text>
</g>
</svg>
