<?xml version="1.0" encoding="utf-8"?>
<svg xmlns="http://www.w3.org/2000/svg" xmlns:xlink="http://www.w3.org/1999/xlink" width="600" height="400" viewBox="0 0 600 400">
<defs>
  <clipPath id="clip4300">
    <rect x="0" y="0" width="600" height="400"/>
  </clipPath>
</defs>
<polygon clip-path="url(#clip4300)" points="
0,400 600,400 600,0 0,0 
  " fill="#ffffff" fill-opacity="1"/>
<defs>
  <clipPath id="clip4301">
    <rect x="120" y="0" width="421" height="400"/>
  </clipPath>
</defs>
<polygon clip-path="url(#clip4300)" points="
30.3126,375.869 580.315,375.869 580.315,11.811 30.3126,11.811 
  " fill="#ffffff" fill-opacity="1"/>
<defs>
  <clipPath id="clip4302">
    <rect x="30" y="11" width="551" height="365"/>
  </clipPath>
</defs>
<polyline clip-path="url(#clip4302)" style="stroke:#000000; stroke-width:0.5; stroke-opacity:0.1; fill:none" points="
  45.8787,375.869 45.8787,11.811 
  "/>
<polyline clip-path="url(#clip4302)" style="stroke:#000000; stroke-width:0.5; stroke-opacity:0.1; fill:none" points="
  218.835,375.869 218.835,11.811 
  "/>
<polyline clip-path="url(#clip4302)" style="stroke:#000000; stroke-width:0.5; stroke-opacity:0.1; fill:none" points="
  391.792,375.869 391.792,11.811 
  "/>
<polyline clip-path="url(#clip4302)" style="stroke:#000000; stroke-width:0.5; stroke-opacity:0.1; fill:none" points="
  564.749,375.869 564.749,11.811 
  "/>
<polyline clip-path="url(#clip4302)" style="stroke:#000000; stroke-width:0.5; stroke-opacity:0.1; fill:none" points="
  30.3126,329.247 580.315,329.247 
  "/>
<polyline clip-path="url(#clip4302)" style="stroke:#000000; stroke-width:0.5; stroke-opacity:0.1; fill:none" points="
  30.3126,274.508 580.315,274.508 
  "/>
<polyline clip-path="url(#clip4302)" style="stroke:#000000; stroke-width:0.5; stroke-opacity:0.1; fill:none" points="
  30.3126,219.769 580.315,219.769 
  "/>
<polyline clip-path="url(#clip4302)" style="stroke:#000000; stroke-width:0.5; stroke-opacity:0.1; fill:none" points="
  30.3126,165.03 580.315,165.03 
  "/>
<polyline clip-path="url(#clip4302)" style="stroke:#000000; stroke-width:0.5; stroke-opacity:0.1; fill:none" points="
  30.3126,110.29 580.315,110.29 
  "/>
<polyline clip-path="url(#clip4302)" style="stroke:#000000; stroke-width:0.5; stroke-opacity:0.1; fill:none" points="
  30.3126,55.5509 580.315,55.5509 
  "/>
<polyline clip-path="url(#clip4300)" style="stroke:#000000; stroke-width:1; stroke-opacity:1; fill:none" points="
  30.3126,375.869 580.315,375.869 
  "/>
<polyline clip-path="url(#clip4300)" style="stroke:#000000; stroke-width:1; stroke-opacity:1; fill:none" points="
  30.3126,375.869 30.3126,11.811 
  "/>
<polyline clip-path="url(#clip4300)" style="stroke:#000000; stroke-width:1; stroke-opacity:1; fill:none" points="
  45.8787,375.869 45.8787,370.408 
  "/>
<polyline clip-path="url(#clip4300)" style="stroke:#000000; stroke-width:1; stroke-opacity:1; fill:none" points="
  218.835,375.869 218.835,370.408 
  "/>
<polyline clip-path="url(#clip4300)" style="stroke:#000000; stroke-width:1; stroke-opacity:1; fill:none" points="
  391.792,375.869 391.792,370.408 
  "/>
<polyline clip-path="url(#clip4300)" style="stroke:#000000; stroke-width:1; stroke-opacity:1; fill:none" points="
  564.749,375.869 564.749,370.408 
  "/>
<polyline clip-path="url(#clip4300)" style="stroke:#000000; stroke-width:1; stroke-opacity:1; fill:none" points="
  30.3126,329.247 38.5627,329.247 
  "/>
<polyline clip-path="url(#clip4300)" style="stroke:#000000; stroke-width:1; stroke-opacity:1; fill:none" points="
  30.3126,274.508 38.5627,274.508 
  "/>
<polyline clip-path="url(#clip4300)" style="stroke:#000000; stroke-width:1; stroke-opacity:1; fill:none" points="
  30.3126,219.769 38.5627,219.769 
  "/>
<polyline clip-path="url(#clip4300)" style="stroke:#000000; stroke-width:1; stroke-opacity:1; fill:none" points="
  30.3126,165.03 38.5627,165.03 
  "/>
<polyline clip-path="url(#clip4300)" style="stroke:#000000; stroke-width:1; stroke-opacity:1; fill:none" points="
  30.3126,110.29 38.5627,110.29 
  "/>
<polyline clip-path="url(#clip4300)" style="stroke:#000000; stroke-width:1; stroke-opacity:1; fill:none" points="
  30.3126,55.5509 38.5627,55.5509 
  "/>
<g clip-path="url(#clip4300)">
<text style="fill:#000000; fill-opacity:1; font-family:Arial,Helvetica Neue,Helvetica,sans-serif; font-size:12; text-anchor:middle;" transform="rotate(0, 45.8787, 389.669)" x="45.8787" y="389.669">1</text>
</g>
<g clip-path="url(#clip4300)">
<text style="fill:#000000; fill-opacity:1; font-family:Arial,Helvetica Neue,Helvetica,sans-serif; font-size:12; text-anchor:middle;" transform="rotate(0, 218.835, 389.669)" x="218.835" y="389.669">2</text>
</g>
<g clip-path="url(#clip4300)">
<text style="fill:#000000; fill-opacity:1; font-family:Arial,Helvetica Neue,Helvetica,sans-serif; font-size:12; text-anchor:middle;" transform="rotate(0, 391.792, 389.669)" x="391.792" y="389.669">3</text>
</g>
<g clip-path="url(#clip4300)">
<text style="fill:#000000; fill-opacity:1; font-family:Arial,Helvetica Neue,Helvetica,sans-serif; font-size:12; text-anchor:middle;" transform="rotate(0, 564.749, 389.669)" x="564.749" y="389.669">4</text>
</g>
<g clip-path="url(#clip4300)">
<text style="fill:#000000; fill-opacity:1; font-family:Arial,Helvetica Neue,Helvetica,sans-serif; font-size:12; text-anchor:end;" transform="rotate(0, 24.3126, 333.747)" x="24.3126" y="333.747">4</text>
</g>
<g clip-path="url(#clip4300)">
<text style="fill:#000000; fill-opacity:1; font-family:Arial,Helvetica Neue,Helvetica,sans-serif; font-size:12; text-anchor:end;" transform="rotate(0, 24.3126, 279.008)" x="24.3126" y="279.008">5</text>
</g>
<g clip-path="url(#clip4300)">
<text style="fill:#000000; fill-opacity:1; font-family:Arial,Helvetica Neue,Helvetica,sans-serif; font-size:12; text-anchor:end;" transform="rotate(0, 24.3126, 224.269)" x="24.3126" y="224.269">6</text>
</g>
<g clip-path="url(#clip4300)">
<text style="fill:#000000; fill-opacity:1; font-family:Arial,Helvetica Neue,Helvetica,sans-serif; font-size:12; text-anchor:end;" transform="rotate(0, 24.3126, 169.53)" x="24.3126" y="169.53">7</text>
</g>
<g clip-path="url(#clip4300)">
<text style="fill:#000000; fill-opacity:1; font-family:Arial,Helvetica Neue,Helvetica,sans-serif; font-size:12; text-anchor:end;" transform="rotate(0, 24.3126, 114.79)" x="24.3126" y="114.79">8</text>
</g>
<g clip-path="url(#clip4300)">
<text style="fill:#000000; fill-opacity:1; font-family:Arial,Helvetica Neue,Helvetica,sans-serif; font-size:12; text-anchor:end;" transform="rotate(0, 24.3126, 60.0509)" x="24.3126" y="60.0509">9</text>
</g>
<polygon clip-path="url(#clip4302)" points="
45.8787,330.516 218.835,231.324 391.792,194.031 564.749,365.565 564.749,148.522 391.792,90.4116 218.835,168.463 45.8787,285.476 
  " fill="#009af9" fill-opacity="0.5"/>
<polyline clip-path="url(#clip4302)" style="stroke:#009af9; stroke-width:1; stroke-opacity:1; fill:none" points="
  45.8787,307.996 218.835,199.893 391.792,142.222 564.749,257.044 
  "/>
<polygon clip-path="url(#clip4302)" points="
45.8787,355.276 218.835,307.278 391.792,268.151 564.749,172.237 564.749,22.1145 391.792,185.913 218.835,260.944 45.8787,332.386 
  " fill="#e26f46" fill-opacity="0.5"/>
<polyline clip-path="url(#clip4302)" style="stroke:#e26f46; stroke-width:1; stroke-opacity:1; fill:none" points="
  45.8787,343.831 218.835,284.111 391.792,227.032 564.749,97.1756 
  "/>
<polygon clip-path="url(#clip4300)" points="
475.577,78.051 562.315,78.051 562.315,32.691 475.577,32.691 
  " fill="#ffffff" fill-opacity="1"/>
<polyline clip-path="url(#clip4300)" style="stroke:#000000; stroke-width:1; stroke-opacity:1; fill:none" points="
  475.577,78.051 562.315,78.051 562.315,32.691 475.577,32.691 475.577,78.051 
  "/>
<polyline clip-path="url(#clip4300)" style="stroke:#009af9; stroke-width:1; stroke-opacity:1; fill:none" points="
  481.577,47.811 517.577,47.811 
  "/>
<g clip-path="url(#clip4300)">
<text style="fill:#000000; fill-opacity:1; font-family:Arial,Helvetica Neue,Helvetica,sans-serif; font-size:12; text-anchor:start;" transform="rotate(0, 523.577, 52.311)" x="523.577" y="52.311">CNO</text>
</g>
<polyline clip-path="url(#clip4300)" style="stroke:#e26f46; stroke-width:1; stroke-opacity:1; fill:none" points="
  481.577,62.931 517.577,62.931 
  "/>
<g clip-path="url(#clip4300)">
<text style="fill:#000000; fill-opacity:1; font-family:Arial,Helvetica Neue,Helvetica,sans-serif; font-size:12; text-anchor:start;" transform="rotate(0, 523.577, 67.431)" x="523.577" y="67.431">SAL</text>
</g>
</svg>
