<?xml version="1.0" encoding="utf-8"?>
<svg xmlns="http://www.w3.org/2000/svg" xmlns:xlink="http://www.w3.org/1999/xlink" width="600" height="400" viewBox="0 0 600 400">
<defs>
  <clipPath id="clip8700">
    <rect x="0" y="0" width="600" height="400"/>
  </clipPath>
</defs>
<polygon clip-path="url(#clip8700)" points="
0,400 600,400 600,0 0,0 
  " fill="#ffffff" fill-opacity="1"/>
<defs>
  <clipPath id="clip8701">
    <rect x="120" y="0" width="421" height="400"/>
  </clipPath>
</defs>
<polygon clip-path="url(#clip8700)" points="
47.0391,375.869 580.315,375.869 580.315,11.811 47.0391,11.811 
  " fill="#ffffff" fill-opacity="1"/>
<defs>
  <clipPath id="clip8702">
    <rect x="47" y="11" width="534" height="365"/>
  </clipPath>
</defs>
<polyline clip-path="url(#clip8702)" style="stroke:#000000; stroke-width:0.5; stroke-opacity:0.1; fill:none" points="
  53.3375,375.869 53.3375,11.811 
  "/>
<polyline clip-path="url(#clip8702)" style="stroke:#000000; stroke-width:0.5; stroke-opacity:0.1; fill:none" points="
  144.001,375.869 144.001,11.811 
  "/>
<polyline clip-path="url(#clip8702)" style="stroke:#000000; stroke-width:0.5; stroke-opacity:0.1; fill:none" points="
  234.664,375.869 234.664,11.811 
  "/>
<polyline clip-path="url(#clip8702)" style="stroke:#000000; stroke-width:0.5; stroke-opacity:0.1; fill:none" points="
  325.327,375.869 325.327,11.811 
  "/>
<polyline clip-path="url(#clip8702)" style="stroke:#000000; stroke-width:0.5; stroke-opacity:0.1; fill:none" points="
  415.991,375.869 415.991,11.811 
  "/>
<polyline clip-path="url(#clip8702)" style="stroke:#000000; stroke-width:0.5; stroke-opacity:0.1; fill:none" points="
  506.654,375.869 506.654,11.811 
  "/>
<polyline clip-path="url(#clip8702)" style="stroke:#000000; stroke-width:0.5; stroke-opacity:0.1; fill:none" points="
  47.0391,365.565 580.315,365.565 
  "/>
<polyline clip-path="url(#clip8702)" style="stroke:#000000; stroke-width:0.5; stroke-opacity:0.1; fill:none" points="
  47.0391,279.703 580.315,279.703 
  "/>
<polyline clip-path="url(#clip8702)" style="stroke:#000000; stroke-width:0.5; stroke-opacity:0.1; fill:none" points="
  47.0391,193.84 580.315,193.84 
  "/>
<polyline clip-path="url(#clip8702)" style="stroke:#000000; stroke-width:0.5; stroke-opacity:0.1; fill:none" points="
  47.0391,107.977 580.315,107.977 
  "/>
<polyline clip-path="url(#clip8702)" style="stroke:#000000; stroke-width:0.5; stroke-opacity:0.1; fill:none" points="
  47.0391,22.1145 580.315,22.1145 
  "/>
<polyline clip-path="url(#clip8700)" style="stroke:#000000; stroke-width:1; stroke-opacity:1; fill:none" points="
  47.0391,375.869 580.315,375.869 
  "/>
<polyline clip-path="url(#clip8700)" style="stroke:#000000; stroke-width:1; stroke-opacity:1; fill:none" points="
  47.0391,375.869 47.0391,11.811 
  "/>
<polyline clip-path="url(#clip8700)" style="stroke:#000000; stroke-width:1; stroke-opacity:1; fill:none" points="
  53.3375,375.869 53.3375,370.408 
  "/>
<polyline clip-path="url(#clip8700)" style="stroke:#000000; stroke-width:1; stroke-opacity:1; fill:none" points="
  144.001,375.869 144.001,370.408 
  "/>
<polyline clip-path="url(#clip8700)" style="stroke:#000000; stroke-width:1; stroke-opacity:1; fill:none" points="
  234.664,375.869 234.664,370.408 
  "/>
<polyline clip-path="url(#clip8700)" style="stroke:#000000; stroke-width:1; stroke-opacity:1; fill:none" points="
  325.327,375.869 325.327,370.408 
  "/>
<polyline clip-path="url(#clip8700)" style="stroke:#000000; stroke-width:1; stroke-opacity:1; fill:none" points="
  415.991,375.869 415.991,370.408 
  "/>
<polyline clip-path="url(#clip8700)" style="stroke:#000000; stroke-width:1; stroke-opacity:1; fill:none" points="
  506.654,375.869 506.654,370.408 
  "/>
<polyline clip-path="url(#clip8700)" style="stroke:#000000; stroke-width:1; stroke-opacity:1; fill:none" points="
  47.0391,365.565 55.0382,365.565 
  "/>
<polyline clip-path="url(#clip8700)" style="stroke:#000000; stroke-width:1; stroke-opacity:1; fill:none" points="
  47.0391,279.703 55.0382,279.703 
  "/>
<polyline clip-path="url(#clip8700)" style="stroke:#000000; stroke-width:1; stroke-opacity:1; fill:none" points="
  47.0391,193.84 55.0382,193.84 
  "/>
<polyline clip-path="url(#clip8700)" style="stroke:#000000; stroke-width:1; stroke-opacity:1; fill:none" points="
  47.0391,107.977 55.0382,107.977 
  "/>
<polyline clip-path="url(#clip8700)" style="stroke:#000000; stroke-width:1; stroke-opacity:1; fill:none" points="
  47.0391,22.1145 55.0382,22.1145 
  "/>
<g clip-path="url(#clip8700)">
<text style="fill:#000000; fill-opacity:1; font-family:Arial,Helvetica Neue,Helvetica,sans-serif; font-size:12; text-anchor:middle;" transform="rotate(0, 53.3375, 389.669)" x="53.3375" y="389.669">0</text>
</g>
<g clip-path="url(#clip8700)">
<text style="fill:#000000; fill-opacity:1; font-family:Arial,Helvetica Neue,Helvetica,sans-serif; font-size:12; text-anchor:middle;" transform="rotate(0, 144.001, 389.669)" x="144.001" y="389.669">5</text>
</g>
<g clip-path="url(#clip8700)">
<text style="fill:#000000; fill-opacity:1; font-family:Arial,Helvetica Neue,Helvetica,sans-serif; font-size:12; text-anchor:middle;" transform="rotate(0, 234.664, 389.669)" x="234.664" y="389.669">10</text>
</g>
<g clip-path="url(#clip8700)">
<text style="fill:#000000; fill-opacity:1; font-family:Arial,Helvetica Neue,Helvetica,sans-serif; font-size:12; text-anchor:middle;" transform="rotate(0, 325.327, 389.669)" x="325.327" y="389.669">15</text>
</g>
<g clip-path="url(#clip8700)">
<text style="fill:#000000; fill-opacity:1; font-family:Arial,Helvetica Neue,Helvetica,sans-serif; font-size:12; text-anchor:middle;" transform="rotate(0, 415.991, 389.669)" x="415.991" y="389.669">20</text>
</g>
<g clip-path="url(#clip8700)">
<text style="fill:#000000; fill-opacity:1; font-family:Arial,Helvetica Neue,Helvetica,sans-serif; font-size:12; text-anchor:middle;" transform="rotate(0, 506.654, 389.669)" x="506.654" y="389.669">25</text>
</g>
<g clip-path="url(#clip8700)">
<text style="fill:#000000; fill-opacity:1; font-family:Arial,Helvetica Neue,Helvetica,sans-serif; font-size:12; text-anchor:end;" transform="rotate(0, 41.0391, 370.065)" x="41.0391" y="370.065">0.00</text>
</g>
<g clip-path="url(#clip8700)">
<text style="fill:#000000; fill-opacity:1; font-family:Arial,Helvetica Neue,Helvetica,sans-serif; font-size:12; text-anchor:end;" transform="rotate(0, 41.0391, 284.203)" x="41.0391" y="284.203">0.25</text>
</g>
<g clip-path="url(#clip8700)">
<text style="fill:#000000; fill-opacity:1; font-family:Arial,Helvetica Neue,Helvetica,sans-serif; font-size:12; text-anchor:end;" transform="rotate(0, 41.0391, 198.34)" x="41.0391" y="198.34">0.50</text>
</g>
<g clip-path="url(#clip8700)">
<text style="fill:#000000; fill-opacity:1; font-family:Arial,Helvetica Neue,Helvetica,sans-serif; font-size:12; text-anchor:end;" transform="rotate(0, 41.0391, 112.477)" x="41.0391" y="112.477">0.75</text>
</g>
<g clip-path="url(#clip8700)">
<text style="fill:#000000; fill-opacity:1; font-family:Arial,Helvetica Neue,Helvetica,sans-serif; font-size:12; text-anchor:end;" transform="rotate(0, 41.0391, 26.6145)" x="41.0391" y="26.6145">1.00</text>
</g>
<polygon clip-path="url(#clip8702)" points="
62.1318,365.565 66.9375,365.565 71.7432,345.088 76.5489,297.748 81.3546,254.076 86.1603,224.962 90.966,204.522 95.7717,186.522 100.577,168.42 105.383,154.375 
  110.189,139.943 114.995,129.976 119.8,125.215 124.606,117.211 129.412,105.66 134.217,99.2624 139.023,96.2578 143.829,92.3895 148.634,86.7813 153.44,84.4553 
  158.246,82.369 163.052,79.4598 167.857,74.6605 172.663,72.2281 177.469,71.4091 182.274,70.7462 187.08,67.0852 191.886,66.5758 196.691,65.3649 201.497,62.9452 
  206.303,59.4361 211.109,57.7086 215.914,54.3022 220.72,54.3022 225.526,52.1711 230.331,51.4318 235.137,48.7691 239.943,47.1122 244.748,46.3746 249.554,42.7925 
  254.36,40.1798 259.166,40.1798 263.971,39.8015 268.777,39.119 273.583,38.4528 278.388,37.9003 283.194,37.9003 288,35.9645 292.806,35.3703 297.611,34.75 
  302.417,33.537 307.223,32.9329 312.028,32.9329 316.834,32.9329 321.64,32.3568 326.445,31.7167 331.251,31.7167 336.057,31.1189 340.863,30.502 345.668,30.1891 
  350.474,30.1891 355.28,30.1891 360.085,30.1891 364.891,30.1891 369.697,29.6083 374.502,28.9752 379.308,28.9752 384.114,28.9752 388.92,28.3917 393.725,28.2167 
  398.531,28.2167 403.337,28.2167 408.142,28.2167 412.948,28.2167 417.754,26.9963 422.559,26.4618 427.365,25.7758 432.171,25.253 436.977,25.253 441.782,24.5554 
  446.588,24.0577 451.394,24.0577 456.199,24.0577 461.005,23.335 465.811,23.335 470.617,23.335 475.422,22.9208 480.228,22.9208 485.034,22.9208 489.839,22.9208 
  494.645,22.9208 499.451,22.9208 504.256,22.9208 509.062,22.9208 513.868,22.9208 518.674,22.9208 523.479,22.9208 528.285,22.9208 533.091,22.9208 537.896,22.1145 
  537.896,22.1145 533.091,22.1145 528.285,22.1145 523.479,22.1145 518.674,22.1145 513.868,22.1145 509.062,22.1145 504.256,22.1145 499.451,22.1145 494.645,22.1145 
  489.839,22.1145 485.034,22.1145 480.228,22.1145 475.422,22.1145 470.617,22.4405 465.811,22.4405 461.005,22.4405 456.199,22.524 451.394,22.524 446.588,22.524 
  441.782,22.7665 436.977,22.8751 432.171,22.8751 427.365,23.0925 422.559,23.2127 417.754,23.4185 412.948,23.7445 408.142,23.7445 403.337,23.7445 398.531,23.7445 
  393.725,23.7445 388.92,24.294 384.114,24.4507 379.308,24.4507 374.502,24.4507 369.697,24.6239 364.891,24.7833 360.085,24.7833 355.28,24.7833 350.474,24.7833 
  345.668,24.7833 340.863,25.9383 336.057,26.0616 331.251,26.2701 326.445,26.2701 321.64,26.4362 316.834,26.6002 312.028,26.6002 307.223,26.6002 302.417,26.7364 
  297.611,27.0698 292.806,27.1896 288,27.4017 283.194,27.8846 278.388,27.8846 273.583,28.0722 268.777,28.2123 263.971,28.3361 259.166,29.4068 254.36,29.4068 
  249.554,29.953 244.748,31.0606 239.943,31.1293 235.137,31.7589 230.331,32.2551 225.526,32.322 220.72,33.2177 215.914,33.2177 211.109,34.3845 206.303,34.9436 
  201.497,36.1242 196.691,36.7973 191.886,37.1329 187.08,37.3637 182.274,39.0005 177.469,39.8212 172.663,40.5517 167.857,41.8896 163.052,44.0698 158.246,45.8063 
  153.44,48.8892 148.634,51.8046 143.829,56.0742 139.023,59.8348 134.217,62.7553 129.412,69.0517 124.606,75.7379 119.8,79.9149 114.995,84.1465 110.189,90.1339 
  105.383,99.7421 100.577,111.011 95.7717,121.311 90.966,135.706 86.1603,159.067 81.3546,183.815 76.5489,224.333 71.7432,285.912 66.9375,335.217 62.1318,364.825 
  
  " fill="#009af9" fill-opacity="0.5"/>
<polyline clip-path="url(#clip8702)" style="stroke:#009af9; stroke-width:1; stroke-opacity:1; fill:none" points="
  62.1318,365.195 66.9375,350.391 71.7432,315.5 76.5489,261.041 81.3546,218.945 86.1603,192.014 90.966,170.114 95.7717,153.917 100.577,139.715 105.383,127.058 
  110.189,115.038 114.995,107.061 119.8,102.565 124.606,96.4747 129.412,87.3561 134.217,81.0088 139.023,78.0463 143.829,74.2319 148.634,69.293 153.44,66.6723 
  158.246,64.0876 163.052,61.7648 167.857,58.2751 172.663,56.3899 177.469,55.6151 182.274,54.8733 187.08,52.2244 191.886,51.8543 196.691,51.0811 201.497,49.5347 
  206.303,47.1899 211.109,46.0466 215.914,43.76 220.72,43.76 225.526,42.2466 230.331,41.8434 235.137,40.264 239.943,39.1207 244.748,38.7176 249.554,36.3728 
  254.36,34.7933 259.166,34.7933 263.971,34.0688 268.777,33.6656 273.583,33.2625 278.388,32.8924 283.194,32.8924 288,31.6831 292.806,31.28 297.611,30.9099 
  302.417,30.1367 307.223,29.7666 312.028,29.7666 316.834,29.7666 321.64,29.3965 326.445,28.9934 331.251,28.9934 336.057,28.5903 340.863,28.2202 345.668,27.4862 
  350.474,27.4862 355.28,27.4862 360.085,27.4862 364.891,27.4862 369.697,27.1161 374.502,26.713 379.308,26.713 384.114,26.713 388.92,26.3429 393.725,25.9806 
  398.531,25.9806 403.337,25.9806 408.142,25.9806 412.948,25.9806 417.754,25.2074 422.559,24.8373 427.365,24.4342 432.171,24.0641 436.977,24.0641 441.782,23.661 
  446.588,23.2909 451.394,23.2909 456.199,23.2909 461.005,22.8878 465.811,22.8878 470.617,22.8878 475.422,22.5177 480.228,22.5177 485.034,22.5177 489.839,22.5177 
  494.645,22.5177 499.451,22.5177 504.256,22.5177 509.062,22.5177 513.868,22.5177 518.674,22.5177 523.479,22.5177 528.285,22.5177 533.091,22.5177 537.896,22.1145 
  
  "/>
<polygon clip-path="url(#clip8702)" points="
62.2043,365.565 67.2853,365.065 72.3663,345.76 77.4473,292.97 82.5283,250.218 87.6093,212.344 92.6903,188.334 97.7713,172.726 102.852,155.256 107.933,145.439 
  113.014,138.97 118.095,136.422 123.176,124.182 128.257,116.261 133.338,109.75 138.419,101.527 143.5,95.0499 148.581,89.7171 153.662,83.0069 158.743,78.1277 
  163.824,72.5461 168.905,69.1276 173.986,65.7287 179.067,60.7291 184.148,58.1558 189.229,54.9597 194.31,53.5241 199.391,52.8027 204.472,47.3438 209.553,45.7365 
  214.634,44.4498 219.715,44.4498 224.796,43.0275 229.877,41.6078 234.958,39.4714 240.039,38.7892 245.12,38.6175 250.201,38.6175 255.282,36.1781 260.363,35.0891 
  265.444,34.5892 270.525,33.0719 275.606,32.0565 280.687,31.0646 285.768,30.6278 290.849,30.6278 295.93,30.6278 301.011,30.6278 306.092,30.6278 311.173,30.6278 
  316.254,30.236 321.335,30.236 326.416,29.2022 331.497,29.2022 336.578,29.2022 341.659,29.2022 346.74,29.2022 351.821,29.2022 356.902,29.0385 361.983,29.0385 
  367.064,29.0385 372.145,29.0385 377.226,28.0487 382.307,28.0487 387.388,28.0487 392.469,27.8548 397.55,27.8548 402.631,27.4096 407.712,27.4096 412.793,26.4198 
  417.874,26.4198 422.955,24.9847 428.036,24.9847 433.117,24.1039 438.198,24.1039 443.279,24.1039 448.36,24.1039 453.44,24.1039 458.521,24.1039 463.602,23.5396 
  468.683,23.5396 473.764,23.5396 478.845,23.5396 483.926,23.5396 489.007,23.5396 494.088,23.5396 499.169,23.5396 504.25,23.5396 509.331,23.5396 514.412,23.5396 
  519.493,23.5396 524.574,22.8271 529.655,22.8271 534.736,22.8271 539.817,22.8271 544.898,22.8271 549.979,22.8271 555.06,22.8271 560.141,22.8271 565.222,22.1145 
  565.222,22.1145 560.141,22.1145 555.06,22.1145 549.979,22.1145 544.898,22.1145 539.817,22.1145 534.736,22.1145 529.655,22.1145 524.574,22.1145 519.493,22.1145 
  514.412,22.1145 509.331,22.1145 504.25,22.1145 499.169,22.1145 494.088,22.1145 489.007,22.1145 483.926,22.1145 478.845,22.1145 473.764,22.1145 468.683,22.1145 
  463.602,22.1145 458.521,22.6303 453.44,22.6303 448.36,22.6303 443.279,22.6303 438.198,22.6303 433.117,22.6303 428.036,22.8296 422.955,22.8296 417.874,23.1871 
  412.793,23.1871 407.712,23.2773 402.631,23.2773 397.55,23.5446 392.469,23.5446 387.388,24.1073 382.307,24.1073 377.226,24.1073 372.145,24.1975 367.064,24.1975 
  361.983,24.1975 356.902,24.1975 351.821,24.7902 346.74,24.7902 341.659,24.7902 336.578,24.7902 331.497,24.7902 326.416,24.7902 321.335,24.8365 316.254,24.8365 
  311.173,25.1572 306.092,25.1572 301.011,25.1572 295.93,25.1572 290.849,25.1572 285.768,25.1572 280.687,25.433 275.606,25.5211 270.525,25.5858 265.444,26.9627 
  260.363,27.1753 255.282,27.9228 250.201,28.7011 245.12,28.7011 240.039,29.2859 234.958,30.0728 229.877,31.198 224.796,31.5709 219.715,31.9412 214.634,31.9412 
  209.553,32.8361 204.472,33.7779 199.391,35.9446 194.31,36.6923 189.229,37.8497 184.148,39.7958 179.067,42.7097 173.986,44.2118 168.905,45.8672 163.824,48.3473 
  158.743,51.5808 153.662,53.2034 148.581,56.3884 143.5,59.3714 138.419,62.7459 133.338,68.8251 128.257,73.3544 123.176,76.3655 118.095,87.8665 113.014,91.6056 
  107.933,97.2791 102.852,107.016 97.7713,121.265 92.6903,138.476 87.6093,158.179 82.5283,186.187 77.4473,232.247 72.3663,291.627 67.2853,332.532 62.2043,364.853 
  
  " fill="#e26f46" fill-opacity="0.5"/>
<polyline clip-path="url(#clip8702)" style="stroke:#e26f46; stroke-width:1; stroke-opacity:1; fill:none" points="
  62.2043,365.209 67.2853,348.798 72.3663,318.693 77.4473,262.609 82.5283,218.203 87.6093,185.262 92.6903,163.405 97.7713,146.995 102.852,131.136 107.933,121.359 
  113.014,115.288 118.095,112.144 123.176,100.274 128.257,94.8079 133.338,89.2875 138.419,82.1363 143.5,77.2107 148.581,73.0527 153.662,68.1051 158.743,64.8543 
  163.824,60.4467 168.905,57.4974 173.986,54.9703 179.067,51.7194 184.148,48.9758 189.229,46.4047 194.31,45.1082 199.391,44.3737 204.472,40.5608 209.553,39.2863 
  214.634,38.1955 219.715,38.1955 224.796,37.2992 229.877,36.4029 234.958,34.7721 240.039,34.0376 245.12,33.6593 250.201,33.6593 255.282,32.0505 260.363,31.1322 
  265.444,30.7759 270.525,29.3288 275.606,28.7888 280.687,28.2488 285.768,27.8925 290.849,27.8925 295.93,27.8925 301.011,27.8925 306.092,27.8925 311.173,27.8925 
  316.254,27.5362 321.335,27.5362 326.416,26.9962 331.497,26.9962 336.578,26.9962 341.659,26.9962 346.74,26.9962 351.821,26.9962 356.902,26.618 361.983,26.618 
  367.064,26.618 372.145,26.618 377.226,26.078 382.307,26.078 387.388,26.078 392.469,25.6997 397.55,25.6997 402.631,25.3434 407.712,25.3434 412.793,24.8034 
  417.874,24.8034 422.955,23.9071 428.036,23.9071 433.117,23.3671 438.198,23.3671 443.279,23.3671 448.36,23.3671 453.44,23.3671 458.521,23.3671 463.602,22.8271 
  468.683,22.8271 473.764,22.8271 478.845,22.8271 483.926,22.8271 489.007,22.8271 494.088,22.8271 499.169,22.8271 504.25,22.8271 509.331,22.8271 514.412,22.8271 
  519.493,22.8271 524.574,22.4708 529.655,22.4708 534.736,22.4708 539.817,22.4708 544.898,22.4708 549.979,22.4708 555.06,22.4708 560.141,22.4708 565.222,22.1145 
  
  "/>
<polygon clip-path="url(#clip8700)" points="
475.577,78.051 562.315,78.051 562.315,32.691 475.577,32.691 
  " fill="#ffffff" fill-opacity="1"/>
<polyline clip-path="url(#clip8700)" style="stroke:#000000; stroke-width:1; stroke-opacity:1; fill:none" points="
  475.577,78.051 562.315,78.051 562.315,32.691 475.577,32.691 475.577,78.051 
  "/>
<polyline clip-path="url(#clip8700)" style="stroke:#009af9; stroke-width:1; stroke-opacity:1; fill:none" points="
  481.577,47.811 517.577,47.811 
  "/>
<g clip-path="url(#clip8700)">
<text style="fill:#000000; fill-opacity:1; font-family:Arial,Helvetica Neue,Helvetica,sans-serif; font-size:12; text-anchor:start;" transform="rotate(0, 523.577, 52.311)" x="523.577" y="52.311">CNO</text>
</g>
<polyline clip-path="url(#clip8700)" style="stroke:#e26f46; stroke-width:1; stroke-opacity:1; fill:none" points="
  481.577,62.931 517.577,62.931 
  "/>
<g clip-path="url(#clip8700)">
<text style="fill:#000000; fill-opacity:1; font-family:Arial,Helvetica Neue,Helvetica,sans-serif; font-size:12; text-anchor:start;" transform="rotate(0, 523.577, 67.431)" x="523.577" y="67.431">SAL</text>
</g>
</svg>
