<?xml version="1.0" encoding="utf-8"?>
<svg xmlns="http://www.w3.org/2000/svg" xmlns:xlink="http://www.w3.org/1999/xlink" width="600" height="400" viewBox="0 0 600 400">
<defs>
  <clipPath id="clip4100">
    <rect x="0" y="0" width="600" height="400"/>
  </clipPath>
</defs>
<polygon clip-path="url(#clip4100)" points="
0,400 600,400 600,0 0,0 
  " fill="#ffffff" fill-opacity="1"/>
<defs>
  <clipPath id="clip4101">
    <rect x="120" y="0" width="421" height="400"/>
  </clipPath>
</defs>
<polygon clip-path="url(#clip4100)" points="
40.3485,375.869 580.315,375.869 580.315,11.811 40.3485,11.811 
  " fill="#ffffff" fill-opacity="1"/>
<defs>
  <clipPath id="clip4102">
    <rect x="40" y="11" width="541" height="365"/>
  </clipPath>
</defs>
<polyline clip-path="url(#clip4102)" style="stroke:#000000; stroke-width:0.5; stroke-opacity:0.1; fill:none" points="
  55.6306,375.869 55.6306,11.811 
  "/>
<polyline clip-path="url(#clip4102)" style="stroke:#000000; stroke-width:0.5; stroke-opacity:0.1; fill:none" points="
  157.511,375.869 157.511,11.811 
  "/>
<polyline clip-path="url(#clip4102)" style="stroke:#000000; stroke-width:0.5; stroke-opacity:0.1; fill:none" points="
  259.392,375.869 259.392,11.811 
  "/>
<polyline clip-path="url(#clip4102)" style="stroke:#000000; stroke-width:0.5; stroke-opacity:0.1; fill:none" points="
  361.272,375.869 361.272,11.811 
  "/>
<polyline clip-path="url(#clip4102)" style="stroke:#000000; stroke-width:0.5; stroke-opacity:0.1; fill:none" points="
  463.152,375.869 463.152,11.811 
  "/>
<polyline clip-path="url(#clip4102)" style="stroke:#000000; stroke-width:0.5; stroke-opacity:0.1; fill:none" points="
  565.033,375.869 565.033,11.811 
  "/>
<polyline clip-path="url(#clip4102)" style="stroke:#000000; stroke-width:0.5; stroke-opacity:0.1; fill:none" points="
  40.3485,365.565 580.315,365.565 
  "/>
<polyline clip-path="url(#clip4102)" style="stroke:#000000; stroke-width:0.5; stroke-opacity:0.1; fill:none" points="
  40.3485,307.051 580.315,307.051 
  "/>
<polyline clip-path="url(#clip4102)" style="stroke:#000000; stroke-width:0.5; stroke-opacity:0.1; fill:none" points="
  40.3485,248.538 580.315,248.538 
  "/>
<polyline clip-path="url(#clip4102)" style="stroke:#000000; stroke-width:0.5; stroke-opacity:0.1; fill:none" points="
  40.3485,190.024 580.315,190.024 
  "/>
<polyline clip-path="url(#clip4102)" style="stroke:#000000; stroke-width:0.5; stroke-opacity:0.1; fill:none" points="
  40.3485,131.51 580.315,131.51 
  "/>
<polyline clip-path="url(#clip4102)" style="stroke:#000000; stroke-width:0.5; stroke-opacity:0.1; fill:none" points="
  40.3485,72.9961 580.315,72.9961 
  "/>
<polyline clip-path="url(#clip4102)" style="stroke:#000000; stroke-width:0.5; stroke-opacity:0.1; fill:none" points="
  40.3485,14.4823 580.315,14.4823 
  "/>
<polyline clip-path="url(#clip4100)" style="stroke:#000000; stroke-width:1; stroke-opacity:1; fill:none" points="
  40.3485,375.869 580.315,375.869 
  "/>
<polyline clip-path="url(#clip4100)" style="stroke:#000000; stroke-width:1; stroke-opacity:1; fill:none" points="
  40.3485,375.869 40.3485,11.811 
  "/>
<polyline clip-path="url(#clip4100)" style="stroke:#000000; stroke-width:1; stroke-opacity:1; fill:none" points="
  55.6306,375.869 55.6306,370.408 
  "/>
<polyline clip-path="url(#clip4100)" style="stroke:#000000; stroke-width:1; stroke-opacity:1; fill:none" points="
  157.511,375.869 157.511,370.408 
  "/>
<polyline clip-path="url(#clip4100)" style="stroke:#000000; stroke-width:1; stroke-opacity:1; fill:none" points="
  259.392,375.869 259.392,370.408 
  "/>
<polyline clip-path="url(#clip4100)" style="stroke:#000000; stroke-width:1; stroke-opacity:1; fill:none" points="
  361.272,375.869 361.272,370.408 
  "/>
<polyline clip-path="url(#clip4100)" style="stroke:#000000; stroke-width:1; stroke-opacity:1; fill:none" points="
  463.152,375.869 463.152,370.408 
  "/>
<polyline clip-path="url(#clip4100)" style="stroke:#000000; stroke-width:1; stroke-opacity:1; fill:none" points="
  565.033,375.869 565.033,370.408 
  "/>
<polyline clip-path="url(#clip4100)" style="stroke:#000000; stroke-width:1; stroke-opacity:1; fill:none" points="
  40.3485,365.565 48.448,365.565 
  "/>
<polyline clip-path="url(#clip4100)" style="stroke:#000000; stroke-width:1; stroke-opacity:1; fill:none" points="
  40.3485,307.051 48.448,307.051 
  "/>
<polyline clip-path="url(#clip4100)" style="stroke:#000000; stroke-width:1; stroke-opacity:1; fill:none" points="
  40.3485,248.538 48.448,248.538 
  "/>
<polyline clip-path="url(#clip4100)" style="stroke:#000000; stroke-width:1; stroke-opacity:1; fill:none" points="
  40.3485,190.024 48.448,190.024 
  "/>
<polyline clip-path="url(#clip4100)" style="stroke:#000000; stroke-width:1; stroke-opacity:1; fill:none" points="
  40.3485,131.51 48.448,131.51 
  "/>
<polyline clip-path="url(#clip4100)" style="stroke:#000000; stroke-width:1; stroke-opacity:1; fill:none" points="
  40.3485,72.9961 48.448,72.9961 
  "/>
<polyline clip-path="url(#clip4100)" style="stroke:#000000; stroke-width:1; stroke-opacity:1; fill:none" points="
  40.3485,14.4823 48.448,14.4823 
  "/>
<g clip-path="url(#clip4100)">
<text style="fill:#000000; fill-opacity:1; font-family:Arial,Helvetica Neue,Helvetica,sans-serif; font-size:12; text-anchor:middle;" transform="rotate(0, 55.6306, 389.669)" x="55.6306" y="389.669">0</text>
</g>
<g clip-path="url(#clip4100)">
<text style="fill:#000000; fill-opacity:1; font-family:Arial,Helvetica Neue,Helvetica,sans-serif; font-size:12; text-anchor:middle;" transform="rotate(0, 157.511, 389.669)" x="157.511" y="389.669">1</text>
</g>
<g clip-path="url(#clip4100)">
<text style="fill:#000000; fill-opacity:1; font-family:Arial,Helvetica Neue,Helvetica,sans-serif; font-size:12; text-anchor:middle;" transform="rotate(0, 259.392, 389.669)" x="259.392" y="389.669">2</text>
</g>
<g clip-path="url(#clip4100)">
<text style="fill:#000000; fill-opacity:1; font-family:Arial,Helvetica Neue,Helvetica,sans-serif; font-size:12; text-anchor:middle;" transform="rotate(0, 361.272, 389.669)" x="361.272" y="389.669">3</text>
</g>
<g clip-path="url(#clip4100)">
<text style="fill:#000000; fill-opacity:1; font-family:Arial,Helvetica Neue,Helvetica,sans-serif; font-size:12; text-anchor:middle;" transform="rotate(0, 463.152, 389.669)" x="463.152" y="389.669">4</text>
</g>
<g clip-path="url(#clip4100)">
<text style="fill:#000000; fill-opacity:1; font-family:Arial,Helvetica Neue,Helvetica,sans-serif; font-size:12; text-anchor:middle;" transform="rotate(0, 565.033, 389.669)" x="565.033" y="389.669">5</text>
</g>
<g clip-path="url(#clip4100)">
<text style="fill:#000000; fill-opacity:1; font-family:Arial,Helvetica Neue,Helvetica,sans-serif; font-size:12; text-anchor:end;" transform="rotate(0, 34.3485, 370.065)" x="34.3485" y="370.065">0.0</text>
</g>
<g clip-path="url(#clip4100)">
<text style="fill:#000000; fill-opacity:1; font-family:Arial,Helvetica Neue,Helvetica,sans-serif; font-size:12; text-anchor:end;" transform="rotate(0, 34.3485, 311.551)" x="34.3485" y="311.551">0.1</text>
</g>
<g clip-path="url(#clip4100)">
<text style="fill:#000000; fill-opacity:1; font-family:Arial,Helvetica Neue,Helvetica,sans-serif; font-size:12; text-anchor:end;" transform="rotate(0, 34.3485, 253.038)" x="34.3485" y="253.038">0.2</text>
</g>
<g clip-path="url(#clip4100)">
<text style="fill:#000000; fill-opacity:1; font-family:Arial,Helvetica Neue,Helvetica,sans-serif; font-size:12; text-anchor:end;" transform="rotate(0, 34.3485, 194.524)" x="34.3485" y="194.524">0.3</text>
</g>
<g clip-path="url(#clip4100)">
<text style="fill:#000000; fill-opacity:1; font-family:Arial,Helvetica Neue,Helvetica,sans-serif; font-size:12; text-anchor:end;" transform="rotate(0, 34.3485, 136.01)" x="34.3485" y="136.01">0.4</text>
</g>
<g clip-path="url(#clip4100)">
<text style="fill:#000000; fill-opacity:1; font-family:Arial,Helvetica Neue,Helvetica,sans-serif; font-size:12; text-anchor:end;" transform="rotate(0, 34.3485, 77.4961)" x="34.3485" y="77.4961">0.5</text>
</g>
<g clip-path="url(#clip4100)">
<text style="fill:#000000; fill-opacity:1; font-family:Arial,Helvetica Neue,Helvetica,sans-serif; font-size:12; text-anchor:end;" transform="rotate(0, 34.3485, 18.9823)" x="34.3485" y="18.9823">0.6</text>
</g>
<polygon clip-path="url(#clip4102)" points="
55.6306,82.8304 157.511,195.112 259.392,319.772 361.272,360.648 463.152,363.107 565.033,365.565 565.033,363.021 463.152,363.021 361.272,345.213 259.392,264.764 
  157.511,171.339 55.6306,22.1145 
  " fill="#009af9" fill-opacity="0.5"/>
<polyline clip-path="url(#clip4102)" style="stroke:#009af9; stroke-width:1; stroke-opacity:1; fill:none" points="
  55.6306,52.4725 157.511,183.225 259.392,292.268 361.272,352.93 463.152,363.064 565.033,364.293 
  "/>
<polygon clip-path="url(#clip4102)" points="
55.6306,70.452 157.511,167.127 259.392,319.672 361.272,354.092 565.033,365.565 565.033,363.021 361.272,342.668 259.392,299.419 157.511,159.046 55.6306,44.3129 
  
  " fill="#e26f46" fill-opacity="0.5"/>
<polyline clip-path="url(#clip4102)" style="stroke:#e26f46; stroke-width:1; stroke-opacity:1; fill:none" points="
  55.6306,57.3825 157.511,163.086 259.392,309.546 361.272,348.38 565.033,364.293 
  "/>
<polygon clip-path="url(#clip4100)" points="
475.577,78.051 562.315,78.051 562.315,32.691 475.577,32.691 
  " fill="#ffffff" fill-opacity="1"/>
<polyline clip-path="url(#clip4100)" style="stroke:#000000; stroke-width:1; stroke-opacity:1; fill:none" points="
  475.577,78.051 562.315,78.051 562.315,32.691 475.577,32.691 475.577,78.051 
  "/>
<polyline clip-path="url(#clip4100)" style="stroke:#009af9; stroke-width:1; stroke-opacity:1; fill:none" points="
  481.577,47.811 517.577,47.811 
  "/>
<g clip-path="url(#clip4100)">
<text style="fill:#000000; fill-opacity:1; font-family:Arial,Helvetica Neue,Helvetica,sans-serif; font-size:12; text-anchor:start;" transform="rotate(0, 523.577, 52.311)" x="523.577" y="52.311">CNO</text>
</g>
<polyline clip-path="url(#clip4100)" style="stroke:#e26f46; stroke-width:1; stroke-opacity:1; fill:none" points="
  481.577,62.931 517.577,62.931 
  "/>
<g clip-path="url(#clip4100)">
<text style="fill:#000000; fill-opacity:1; font-family:Arial,Helvetica Neue,Helvetica,sans-serif; font-size:12; text-anchor:start;" transform="rotate(0, 523.577, 67.431)" x="523.577" y="67.431">SAL</text>
</g>
</svg>
