<?xml version="1.0" encoding="utf-8"?>
<svg xmlns="http://www.w3.org/2000/svg" xmlns:xlink="http://www.w3.org/1999/xlink" width="600" height="400" viewBox="0 0 600 400">
<defs>
  <clipPath id="clip3500">
    <rect x="0" y="0" width="600" height="400"/>
  </clipPath>
</defs>
<polygon clip-path="url(#clip3500)" points="
0,400 600,400 600,0 0,0 
  " fill="#ffffff" fill-opacity="1"/>
<defs>
  <clipPath id="clip3501">
    <rect x="120" y="0" width="421" height="400"/>
  </clipPath>
</defs>
<polygon clip-path="url(#clip3500)" points="
40.3485,375.869 580.315,375.869 580.315,11.811 40.3485,11.811 
  " fill="#ffffff" fill-opacity="1"/>
<defs>
  <clipPath id="clip3502">
    <rect x="40" y="11" width="541" height="365"/>
  </clipPath>
</defs>
<polyline clip-path="url(#clip3502)" style="stroke:#000000; stroke-width:0.5; stroke-opacity:0.1; fill:none" points="
  55.6306,375.869 55.6306,11.811 
  "/>
<polyline clip-path="url(#clip3502)" style="stroke:#000000; stroke-width:0.5; stroke-opacity:0.1; fill:none" points="
  182.981,375.869 182.981,11.811 
  "/>
<polyline clip-path="url(#clip3502)" style="stroke:#000000; stroke-width:0.5; stroke-opacity:0.1; fill:none" points="
  310.332,375.869 310.332,11.811 
  "/>
<polyline clip-path="url(#clip3502)" style="stroke:#000000; stroke-width:0.5; stroke-opacity:0.1; fill:none" points="
  437.682,375.869 437.682,11.811 
  "/>
<polyline clip-path="url(#clip3502)" style="stroke:#000000; stroke-width:0.5; stroke-opacity:0.1; fill:none" points="
  565.033,375.869 565.033,11.811 
  "/>
<polyline clip-path="url(#clip3502)" style="stroke:#000000; stroke-width:0.5; stroke-opacity:0.1; fill:none" points="
  40.3485,339.068 580.315,339.068 
  "/>
<polyline clip-path="url(#clip3502)" style="stroke:#000000; stroke-width:0.5; stroke-opacity:0.1; fill:none" points="
  40.3485,259.578 580.315,259.578 
  "/>
<polyline clip-path="url(#clip3502)" style="stroke:#000000; stroke-width:0.5; stroke-opacity:0.1; fill:none" points="
  40.3485,180.088 580.315,180.088 
  "/>
<polyline clip-path="url(#clip3502)" style="stroke:#000000; stroke-width:0.5; stroke-opacity:0.1; fill:none" points="
  40.3485,100.598 580.315,100.598 
  "/>
<polyline clip-path="url(#clip3502)" style="stroke:#000000; stroke-width:0.5; stroke-opacity:0.1; fill:none" points="
  40.3485,21.1083 580.315,21.1083 
  "/>
<polyline clip-path="url(#clip3500)" style="stroke:#000000; stroke-width:1; stroke-opacity:1; fill:none" points="
  40.3485,375.869 580.315,375.869 
  "/>
<polyline clip-path="url(#clip3500)" style="stroke:#000000; stroke-width:1; stroke-opacity:1; fill:none" points="
  40.3485,375.869 40.3485,11.811 
  "/>
<polyline clip-path="url(#clip3500)" style="stroke:#000000; stroke-width:1; stroke-opacity:1; fill:none" points="
  55.6306,375.869 55.6306,370.408 
  "/>
<polyline clip-path="url(#clip3500)" style="stroke:#000000; stroke-width:1; stroke-opacity:1; fill:none" points="
  182.981,375.869 182.981,370.408 
  "/>
<polyline clip-path="url(#clip3500)" style="stroke:#000000; stroke-width:1; stroke-opacity:1; fill:none" points="
  310.332,375.869 310.332,370.408 
  "/>
<polyline clip-path="url(#clip3500)" style="stroke:#000000; stroke-width:1; stroke-opacity:1; fill:none" points="
  437.682,375.869 437.682,370.408 
  "/>
<polyline clip-path="url(#clip3500)" style="stroke:#000000; stroke-width:1; stroke-opacity:1; fill:none" points="
  565.033,375.869 565.033,370.408 
  "/>
<polyline clip-path="url(#clip3500)" style="stroke:#000000; stroke-width:1; stroke-opacity:1; fill:none" points="
  40.3485,339.068 48.448,339.068 
  "/>
<polyline clip-path="url(#clip3500)" style="stroke:#000000; stroke-width:1; stroke-opacity:1; fill:none" points="
  40.3485,259.578 48.448,259.578 
  "/>
<polyline clip-path="url(#clip3500)" style="stroke:#000000; stroke-width:1; stroke-opacity:1; fill:none" points="
  40.3485,180.088 48.448,180.088 
  "/>
<polyline clip-path="url(#clip3500)" style="stroke:#000000; stroke-width:1; stroke-opacity:1; fill:none" points="
  40.3485,100.598 48.448,100.598 
  "/>
<polyline clip-path="url(#clip3500)" style="stroke:#000000; stroke-width:1; stroke-opacity:1; fill:none" points="
  40.3485,21.1083 48.448,21.1083 
  "/>
<g clip-path="url(#clip3500)">
<text style="fill:#000000; fill-opacity:1; font-family:Arial,Helvetica Neue,Helvetica,sans-serif; font-size:12; text-anchor:middle;" transform="rotate(0, 55.6306, 389.669)" x="55.6306" y="389.669">20180711</text>
</g>
<g clip-path="url(#clip3500)">
<text style="fill:#000000; fill-opacity:1; font-family:Arial,Helvetica Neue,Helvetica,sans-serif; font-size:12; text-anchor:middle;" transform="rotate(0, 182.981, 389.669)" x="182.981" y="389.669">20180712</text>
</g>
<g clip-path="url(#clip3500)">
<text style="fill:#000000; fill-opacity:1; font-family:Arial,Helvetica Neue,Helvetica,sans-serif; font-size:12; text-anchor:middle;" transform="rotate(0, 310.332, 389.669)" x="310.332" y="389.669">20180713</text>
</g>
<g clip-path="url(#clip3500)">
<text style="fill:#000000; fill-opacity:1; font-family:Arial,Helvetica Neue,Helvetica,sans-serif; font-size:12; text-anchor:middle;" transform="rotate(0, 437.682, 389.669)" x="437.682" y="389.669">20180714</text>
</g>
<g clip-path="url(#clip3500)">
<text style="fill:#000000; fill-opacity:1; font-family:Arial,Helvetica Neue,Helvetica,sans-serif; font-size:12; text-anchor:middle;" transform="rotate(0, 565.033, 389.669)" x="565.033" y="389.669">20180715</text>
</g>
<g clip-path="url(#clip3500)">
<text style="fill:#000000; fill-opacity:1; font-family:Arial,Helvetica Neue,Helvetica,sans-serif; font-size:12; text-anchor:end;" transform="rotate(0, 34.3485, 343.568)" x="34.3485" y="343.568">0.5</text>
</g>
<g clip-path="url(#clip3500)">
<text style="fill:#000000; fill-opacity:1; font-family:Arial,Helvetica Neue,Helvetica,sans-serif; font-size:12; text-anchor:end;" transform="rotate(0, 34.3485, 264.078)" x="34.3485" y="264.078">0.6</text>
</g>
<g clip-path="url(#clip3500)">
<text style="fill:#000000; fill-opacity:1; font-family:Arial,Helvetica Neue,Helvetica,sans-serif; font-size:12; text-anchor:end;" transform="rotate(0, 34.3485, 184.588)" x="34.3485" y="184.588">0.7</text>
</g>
<g clip-path="url(#clip3500)">
<text style="fill:#000000; fill-opacity:1; font-family:Arial,Helvetica Neue,Helvetica,sans-serif; font-size:12; text-anchor:end;" transform="rotate(0, 34.3485, 105.098)" x="34.3485" y="105.098">0.8</text>
</g>
<g clip-path="url(#clip3500)">
<text style="fill:#000000; fill-opacity:1; font-family:Arial,Helvetica Neue,Helvetica,sans-serif; font-size:12; text-anchor:end;" transform="rotate(0, 34.3485, 25.6083)" x="34.3485" y="25.6083">0.9</text>
</g>
<circle clip-path="url(#clip3502)" style="fill:#000000; stroke:none; fill-opacity:1" cx="55.6306" cy="119.445" r="4"/>
<circle clip-path="url(#clip3502)" style="fill:#009af9; stroke:none; fill-opacity:1" cx="55.6306" cy="119.445" r="3"/>
<circle clip-path="url(#clip3502)" style="fill:#000000; stroke:none; fill-opacity:1" cx="310.332" cy="237.583" r="4"/>
<circle clip-path="url(#clip3502)" style="fill:#009af9; stroke:none; fill-opacity:1" cx="310.332" cy="237.583" r="3"/>
<circle clip-path="url(#clip3502)" style="fill:#000000; stroke:none; fill-opacity:1" cx="565.033" cy="287.67" r="4"/>
<circle clip-path="url(#clip3502)" style="fill:#009af9; stroke:none; fill-opacity:1" cx="565.033" cy="287.67" r="3"/>
<polyline clip-path="url(#clip3502)" style="stroke:#009af9; stroke-width:1; stroke-opacity:1; fill:none" points="
  55.6306,216.776 55.6306,22.1145 
  "/>
<polyline clip-path="url(#clip3502)" style="stroke:#009af9; stroke-width:1; stroke-opacity:1; fill:none" points="
  310.332,257.54 310.332,217.625 
  "/>
<polyline clip-path="url(#clip3502)" style="stroke:#009af9; stroke-width:1; stroke-opacity:1; fill:none" points="
  565.033,358.941 565.033,216.399 
  "/>
<line clip-path="url(#clip3502)" x1="60.6306" y1="216.776" x2="50.6306" y2="216.776" style="stroke:#000000; stroke-opacity:1"/>
<line clip-path="url(#clip3502)" x1="60.6306" y1="22.1145" x2="50.6306" y2="22.1145" style="stroke:#000000; stroke-opacity:1"/>
<line clip-path="url(#clip3502)" x1="315.332" y1="257.54" x2="305.332" y2="257.54" style="stroke:#000000; stroke-opacity:1"/>
<line clip-path="url(#clip3502)" x1="315.332" y1="217.625" x2="305.332" y2="217.625" style="stroke:#000000; stroke-opacity:1"/>
<line clip-path="url(#clip3502)" x1="570.033" y1="358.941" x2="560.033" y2="358.941" style="stroke:#000000; stroke-opacity:1"/>
<line clip-path="url(#clip3502)" x1="570.033" y1="216.399" x2="560.033" y2="216.399" style="stroke:#000000; stroke-opacity:1"/>
<circle clip-path="url(#clip3502)" style="fill:#000000; stroke:none; fill-opacity:1" cx="182.981" cy="284.327" r="4"/>
<circle clip-path="url(#clip3502)" style="fill:#e26f46; stroke:none; fill-opacity:1" cx="182.981" cy="284.327" r="3"/>
<circle clip-path="url(#clip3502)" style="fill:#000000; stroke:none; fill-opacity:1" cx="437.682" cy="339.413" r="4"/>
<circle clip-path="url(#clip3502)" style="fill:#e26f46; stroke:none; fill-opacity:1" cx="437.682" cy="339.413" r="3"/>
<polyline clip-path="url(#clip3502)" style="stroke:#e26f46; stroke-width:1; stroke-opacity:1; fill:none" points="
  182.981,313.26 182.981,255.395 
  "/>
<polyline clip-path="url(#clip3502)" style="stroke:#e26f46; stroke-width:1; stroke-opacity:1; fill:none" points="
  437.682,365.565 437.682,313.26 
  "/>
<line clip-path="url(#clip3502)" x1="187.981" y1="313.26" x2="177.981" y2="313.26" style="stroke:#000000; stroke-opacity:1"/>
<line clip-path="url(#clip3502)" x1="187.981" y1="255.395" x2="177.981" y2="255.395" style="stroke:#000000; stroke-opacity:1"/>
<line clip-path="url(#clip3502)" x1="442.682" y1="365.565" x2="432.682" y2="365.565" style="stroke:#000000; stroke-opacity:1"/>
<line clip-path="url(#clip3502)" x1="442.682" y1="313.26" x2="432.682" y2="313.26" style="stroke:#000000; stroke-opacity:1"/>
<polygon clip-path="url(#clip3500)" points="
475.577,78.051 562.315,78.051 562.315,32.691 475.577,32.691 
  " fill="#ffffff" fill-opacity="1"/>
<polyline clip-path="url(#clip3500)" style="stroke:#000000; stroke-width:1; stroke-opacity:1; fill:none" points="
  475.577,78.051 562.315,78.051 562.315,32.691 475.577,32.691 475.577,78.051 
  "/>
<circle clip-path="url(#clip3500)" style="fill:#000000; stroke:none; fill-opacity:1" cx="502.577" cy="47.811" r="6"/>
<circle clip-path="url(#clip3500)" style="fill:#009af9; stroke:none; fill-opacity:1" cx="502.577" cy="47.811" r="5"/>
<g clip-path="url(#clip3500)">
<text style="fill:#000000; fill-opacity:1; font-family:Arial,Helvetica Neue,Helvetica,sans-serif; font-size:12; text-anchor:start;" transform="rotate(0, 523.577, 52.311)" x="523.577" y="52.311">CNO</text>
</g>
<circle clip-path="url(#clip3500)" style="fill:#000000; stroke:none; fill-opacity:1" cx="502.577" cy="62.931" r="6"/>
<circle clip-path="url(#clip3500)" style="fill:#e26f46; stroke:none; fill-opacity:1" cx="502.577" cy="62.931" r="5"/>
<g clip-path="url(#clip3500)">
<text style="fill:#000000; fill-opacity:1; font-family:Arial,Helvetica Neue,Helvetica,sans-serif; font-size:12; text-anchor:start;" transform="rotate(0, 523.577, 67.431)" x="523.577" y="67.431">SAL</text>
</g>
</svg>
