<?xml version="1.0" encoding="utf-8"?>
<svg xmlns="http://www.w3.org/2000/svg" xmlns:xlink="http://www.w3.org/1999/xlink" width="600" height="400" viewBox="0 0 600 400">
<defs>
  <clipPath id="clip9900">
    <rect x="0" y="0" width="600" height="400"/>
  </clipPath>
</defs>
<polygon clip-path="url(#clip9900)" points="
0,400 600,400 600,0 0,0 
  " fill="#ffffff" fill-opacity="1"/>
<defs>
  <clipPath id="clip9901">
    <rect x="120" y="0" width="421" height="400"/>
  </clipPath>
</defs>
<polygon clip-path="url(#clip9900)" points="
40.3485,375.869 580.315,375.869 580.315,11.811 40.3485,11.811 
  " fill="#ffffff" fill-opacity="1"/>
<defs>
  <clipPath id="clip9902">
    <rect x="40" y="11" width="541" height="365"/>
  </clipPath>
</defs>
<polyline clip-path="url(#clip9902)" style="stroke:#000000; stroke-width:0.5; stroke-opacity:0.1; fill:none" points="
  55.6306,375.869 55.6306,11.811 
  "/>
<polyline clip-path="url(#clip9902)" style="stroke:#000000; stroke-width:0.5; stroke-opacity:0.1; fill:none" points="
  157.511,375.869 157.511,11.811 
  "/>
<polyline clip-path="url(#clip9902)" style="stroke:#000000; stroke-width:0.5; stroke-opacity:0.1; fill:none" points="
  259.392,375.869 259.392,11.811 
  "/>
<polyline clip-path="url(#clip9902)" style="stroke:#000000; stroke-width:0.5; stroke-opacity:0.1; fill:none" points="
  361.272,375.869 361.272,11.811 
  "/>
<polyline clip-path="url(#clip9902)" style="stroke:#000000; stroke-width:0.5; stroke-opacity:0.1; fill:none" points="
  463.152,375.869 463.152,11.811 
  "/>
<polyline clip-path="url(#clip9902)" style="stroke:#000000; stroke-width:0.5; stroke-opacity:0.1; fill:none" points="
  565.033,375.869 565.033,11.811 
  "/>
<polyline clip-path="url(#clip9902)" style="stroke:#000000; stroke-width:0.5; stroke-opacity:0.1; fill:none" points="
  40.3485,354.396 580.315,354.396 
  "/>
<polyline clip-path="url(#clip9902)" style="stroke:#000000; stroke-width:0.5; stroke-opacity:0.1; fill:none" points="
  40.3485,287.94 580.315,287.94 
  "/>
<polyline clip-path="url(#clip9902)" style="stroke:#000000; stroke-width:0.5; stroke-opacity:0.1; fill:none" points="
  40.3485,221.483 580.315,221.483 
  "/>
<polyline clip-path="url(#clip9902)" style="stroke:#000000; stroke-width:0.5; stroke-opacity:0.1; fill:none" points="
  40.3485,155.027 580.315,155.027 
  "/>
<polyline clip-path="url(#clip9902)" style="stroke:#000000; stroke-width:0.5; stroke-opacity:0.1; fill:none" points="
  40.3485,88.5708 580.315,88.5708 
  "/>
<polyline clip-path="url(#clip9902)" style="stroke:#000000; stroke-width:0.5; stroke-opacity:0.1; fill:none" points="
  40.3485,22.1145 580.315,22.1145 
  "/>
<polyline clip-path="url(#clip9900)" style="stroke:#000000; stroke-width:1; stroke-opacity:1; fill:none" points="
  40.3485,375.869 580.315,375.869 
  "/>
<polyline clip-path="url(#clip9900)" style="stroke:#000000; stroke-width:1; stroke-opacity:1; fill:none" points="
  40.3485,375.869 40.3485,11.811 
  "/>
<polyline clip-path="url(#clip9900)" style="stroke:#000000; stroke-width:1; stroke-opacity:1; fill:none" points="
  55.6306,375.869 55.6306,370.408 
  "/>
<polyline clip-path="url(#clip9900)" style="stroke:#000000; stroke-width:1; stroke-opacity:1; fill:none" points="
  157.511,375.869 157.511,370.408 
  "/>
<polyline clip-path="url(#clip9900)" style="stroke:#000000; stroke-width:1; stroke-opacity:1; fill:none" points="
  259.392,375.869 259.392,370.408 
  "/>
<polyline clip-path="url(#clip9900)" style="stroke:#000000; stroke-width:1; stroke-opacity:1; fill:none" points="
  361.272,375.869 361.272,370.408 
  "/>
<polyline clip-path="url(#clip9900)" style="stroke:#000000; stroke-width:1; stroke-opacity:1; fill:none" points="
  463.152,375.869 463.152,370.408 
  "/>
<polyline clip-path="url(#clip9900)" style="stroke:#000000; stroke-width:1; stroke-opacity:1; fill:none" points="
  565.033,375.869 565.033,370.408 
  "/>
<polyline clip-path="url(#clip9900)" style="stroke:#000000; stroke-width:1; stroke-opacity:1; fill:none" points="
  40.3485,354.396 48.448,354.396 
  "/>
<polyline clip-path="url(#clip9900)" style="stroke:#000000; stroke-width:1; stroke-opacity:1; fill:none" points="
  40.3485,287.94 48.448,287.94 
  "/>
<polyline clip-path="url(#clip9900)" style="stroke:#000000; stroke-width:1; stroke-opacity:1; fill:none" points="
  40.3485,221.483 48.448,221.483 
  "/>
<polyline clip-path="url(#clip9900)" style="stroke:#000000; stroke-width:1; stroke-opacity:1; fill:none" points="
  40.3485,155.027 48.448,155.027 
  "/>
<polyline clip-path="url(#clip9900)" style="stroke:#000000; stroke-width:1; stroke-opacity:1; fill:none" points="
  40.3485,88.5708 48.448,88.5708 
  "/>
<polyline clip-path="url(#clip9900)" style="stroke:#000000; stroke-width:1; stroke-opacity:1; fill:none" points="
  40.3485,22.1145 48.448,22.1145 
  "/>
<g clip-path="url(#clip9900)">
<text style="fill:#000000; fill-opacity:1; font-family:Arial,Helvetica Neue,Helvetica,sans-serif; font-size:12; text-anchor:middle;" transform="rotate(0, 55.6306, 389.669)" x="55.6306" y="389.669">0</text>
</g>
<g clip-path="url(#clip9900)">
<text style="fill:#000000; fill-opacity:1; font-family:Arial,Helvetica Neue,Helvetica,sans-serif; font-size:12; text-anchor:middle;" transform="rotate(0, 157.511, 389.669)" x="157.511" y="389.669">1</text>
</g>
<g clip-path="url(#clip9900)">
<text style="fill:#000000; fill-opacity:1; font-family:Arial,Helvetica Neue,Helvetica,sans-serif; font-size:12; text-anchor:middle;" transform="rotate(0, 259.392, 389.669)" x="259.392" y="389.669">2</text>
</g>
<g clip-path="url(#clip9900)">
<text style="fill:#000000; fill-opacity:1; font-family:Arial,Helvetica Neue,Helvetica,sans-serif; font-size:12; text-anchor:middle;" transform="rotate(0, 361.272, 389.669)" x="361.272" y="389.669">3</text>
</g>
<g clip-path="url(#clip9900)">
<text style="fill:#000000; fill-opacity:1; font-family:Arial,Helvetica Neue,Helvetica,sans-serif; font-size:12; text-anchor:middle;" transform="rotate(0, 463.152, 389.669)" x="463.152" y="389.669">4</text>
</g>
<g clip-path="url(#clip9900)">
<text style="fill:#000000; fill-opacity:1; font-family:Arial,Helvetica Neue,Helvetica,sans-serif; font-size:12; text-anchor:middle;" transform="rotate(0, 565.033, 389.669)" x="565.033" y="389.669">5</text>
</g>
<g clip-path="url(#clip9900)">
<text style="fill:#000000; fill-opacity:1; font-family:Arial,Helvetica Neue,Helvetica,sans-serif; font-size:12; text-anchor:end;" transform="rotate(0, 34.3485, 358.896)" x="34.3485" y="358.896">0.5</text>
</g>
<g clip-path="url(#clip9900)">
<text style="fill:#000000; fill-opacity:1; font-family:Arial,Helvetica Neue,Helvetica,sans-serif; font-size:12; text-anchor:end;" transform="rotate(0, 34.3485, 292.44)" x="34.3485" y="292.44">0.6</text>
</g>
<g clip-path="url(#clip9900)">
<text style="fill:#000000; fill-opacity:1; font-family:Arial,Helvetica Neue,Helvetica,sans-serif; font-size:12; text-anchor:end;" transform="rotate(0, 34.3485, 225.983)" x="34.3485" y="225.983">0.7</text>
</g>
<g clip-path="url(#clip9900)">
<text style="fill:#000000; fill-opacity:1; font-family:Arial,Helvetica Neue,Helvetica,sans-serif; font-size:12; text-anchor:end;" transform="rotate(0, 34.3485, 159.527)" x="34.3485" y="159.527">0.8</text>
</g>
<g clip-path="url(#clip9900)">
<text style="fill:#000000; fill-opacity:1; font-family:Arial,Helvetica Neue,Helvetica,sans-serif; font-size:12; text-anchor:end;" transform="rotate(0, 34.3485, 93.0708)" x="34.3485" y="93.0708">0.9</text>
</g>
<g clip-path="url(#clip9900)">
<text style="fill:#000000; fill-opacity:1; font-family:Arial,Helvetica Neue,Helvetica,sans-serif; font-size:12; text-anchor:end;" transform="rotate(0, 34.3485, 26.6145)" x="34.3485" y="26.6145">1.0</text>
</g>
<polygon clip-path="url(#clip9902)" points="
55.6306,365.565 157.511,144.975 259.392,51.0086 361.272,27.8934 463.152,25.0039 565.033,22.1145 565.033,22.1145 463.152,22.1145 361.272,24.9068 259.392,30.4914 
  157.511,103.018 55.6306,296.608 
  " fill="#009af9" fill-opacity="0.5"/>
<polyline clip-path="url(#clip9902)" style="stroke:#009af9; stroke-width:1; stroke-opacity:1; fill:none" points="
  55.6306,331.087 157.511,123.996 259.392,40.75 361.272,26.4001 463.152,23.5592 565.033,22.1145 
  "/>
<polygon clip-path="url(#clip9902)" points="
55.6306,351.507 157.511,126.133 259.392,51.0086 361.272,25.0039 565.033,22.1145 565.033,22.1145 361.272,22.1145 259.392,35.1452 157.511,87.2678 55.6306,321.819 
  
  " fill="#e26f46" fill-opacity="0.5"/>
<polyline clip-path="url(#clip9902)" style="stroke:#e26f46; stroke-width:1; stroke-opacity:1; fill:none" points="
  55.6306,336.663 157.511,106.7 259.392,43.0769 361.272,23.5592 565.033,22.1145 
  "/>
<polygon clip-path="url(#clip9900)" points="
475.577,78.051 562.315,78.051 562.315,32.691 475.577,32.691 
  " fill="#ffffff" fill-opacity="1"/>
<polyline clip-path="url(#clip9900)" style="stroke:#000000; stroke-width:1; stroke-opacity:1; fill:none" points="
  475.577,78.051 562.315,78.051 562.315,32.691 475.577,32.691 475.577,78.051 
  "/>
<polyline clip-path="url(#clip9900)" style="stroke:#009af9; stroke-width:1; stroke-opacity:1; fill:none" points="
  481.577,47.811 517.577,47.811 
  "/>
<g clip-path="url(#clip9900)">
<text style="fill:#000000; fill-opacity:1; font-family:Arial,Helvetica Neue,Helvetica,sans-serif; font-size:12; text-anchor:start;" transform="rotate(0, 523.577, 52.311)" x="523.577" y="52.311">CNO</text>
</g>
<polyline clip-path="url(#clip9900)" style="stroke:#e26f46; stroke-width:1; stroke-opacity:1; fill:none" points="
  481.577,62.931 517.577,62.931 
  "/>
<g clip-path="url(#clip9900)">
<text style="fill:#000000; fill-opacity:1; font-family:Arial,Helvetica Neue,Helvetica,sans-serif; font-size:12; text-anchor:start;" transform="rotate(0, 523.577, 67.431)" x="523.577" y="67.431">SAL</text>
</g>
</svg>
