<?xml version="1.0" encoding="utf-8"?>
<svg xmlns="http://www.w3.org/2000/svg" xmlns:xlink="http://www.w3.org/1999/xlink" width="600" height="400" viewBox="0 0 600 400">
<defs>
  <clipPath id="clip2700">
    <rect x="0" y="0" width="600" height="400"/>
  </clipPath>
</defs>
<polygon clip-path="url(#clip2700)" points="
0,400 600,400 600,0 0,0 
  " fill="#ffffff" fill-opacity="1"/>
<defs>
  <clipPath id="clip2701">
    <rect x="120" y="0" width="421" height="400"/>
  </clipPath>
</defs>
<polygon clip-path="url(#clip2700)" points="
40.3485,375.869 580.315,375.869 580.315,11.811 40.3485,11.811 
  " fill="#ffffff" fill-opacity="1"/>
<defs>
  <clipPath id="clip2702">
    <rect x="40" y="11" width="541" height="365"/>
  </clipPath>
</defs>
<polyline clip-path="url(#clip2702)" style="stroke:#000000; stroke-width:0.5; stroke-opacity:0.1; fill:none" points="
  55.6306,375.869 55.6306,11.811 
  "/>
<polyline clip-path="url(#clip2702)" style="stroke:#000000; stroke-width:0.5; stroke-opacity:0.1; fill:none" points="
  182.981,375.869 182.981,11.811 
  "/>
<polyline clip-path="url(#clip2702)" style="stroke:#000000; stroke-width:0.5; stroke-opacity:0.1; fill:none" points="
  310.332,375.869 310.332,11.811 
  "/>
<polyline clip-path="url(#clip2702)" style="stroke:#000000; stroke-width:0.5; stroke-opacity:0.1; fill:none" points="
  437.682,375.869 437.682,11.811 
  "/>
<polyline clip-path="url(#clip2702)" style="stroke:#000000; stroke-width:0.5; stroke-opacity:0.1; fill:none" points="
  565.033,375.869 565.033,11.811 
  "/>
<polyline clip-path="url(#clip2702)" style="stroke:#000000; stroke-width:0.5; stroke-opacity:0.1; fill:none" points="
  40.3485,313.174 580.315,313.174 
  "/>
<polyline clip-path="url(#clip2702)" style="stroke:#000000; stroke-width:0.5; stroke-opacity:0.1; fill:none" points="
  40.3485,240.409 580.315,240.409 
  "/>
<polyline clip-path="url(#clip2702)" style="stroke:#000000; stroke-width:0.5; stroke-opacity:0.1; fill:none" points="
  40.3485,167.644 580.315,167.644 
  "/>
<polyline clip-path="url(#clip2702)" style="stroke:#000000; stroke-width:0.5; stroke-opacity:0.1; fill:none" points="
  40.3485,94.8794 580.315,94.8794 
  "/>
<polyline clip-path="url(#clip2702)" style="stroke:#000000; stroke-width:0.5; stroke-opacity:0.1; fill:none" points="
  40.3485,22.1145 580.315,22.1145 
  "/>
<polyline clip-path="url(#clip2700)" style="stroke:#000000; stroke-width:1; stroke-opacity:1; fill:none" points="
  40.3485,375.869 580.315,375.869 
  "/>
<polyline clip-path="url(#clip2700)" style="stroke:#000000; stroke-width:1; stroke-opacity:1; fill:none" points="
  40.3485,375.869 40.3485,11.811 
  "/>
<polyline clip-path="url(#clip2700)" style="stroke:#000000; stroke-width:1; stroke-opacity:1; fill:none" points="
  55.6306,375.869 55.6306,370.408 
  "/>
<polyline clip-path="url(#clip2700)" style="stroke:#000000; stroke-width:1; stroke-opacity:1; fill:none" points="
  182.981,375.869 182.981,370.408 
  "/>
<polyline clip-path="url(#clip2700)" style="stroke:#000000; stroke-width:1; stroke-opacity:1; fill:none" points="
  310.332,375.869 310.332,370.408 
  "/>
<polyline clip-path="url(#clip2700)" style="stroke:#000000; stroke-width:1; stroke-opacity:1; fill:none" points="
  437.682,375.869 437.682,370.408 
  "/>
<polyline clip-path="url(#clip2700)" style="stroke:#000000; stroke-width:1; stroke-opacity:1; fill:none" points="
  565.033,375.869 565.033,370.408 
  "/>
<polyline clip-path="url(#clip2700)" style="stroke:#000000; stroke-width:1; stroke-opacity:1; fill:none" points="
  40.3485,313.174 48.448,313.174 
  "/>
<polyline clip-path="url(#clip2700)" style="stroke:#000000; stroke-width:1; stroke-opacity:1; fill:none" points="
  40.3485,240.409 48.448,240.409 
  "/>
<polyline clip-path="url(#clip2700)" style="stroke:#000000; stroke-width:1; stroke-opacity:1; fill:none" points="
  40.3485,167.644 48.448,167.644 
  "/>
<polyline clip-path="url(#clip2700)" style="stroke:#000000; stroke-width:1; stroke-opacity:1; fill:none" points="
  40.3485,94.8794 48.448,94.8794 
  "/>
<polyline clip-path="url(#clip2700)" style="stroke:#000000; stroke-width:1; stroke-opacity:1; fill:none" points="
  40.3485,22.1145 48.448,22.1145 
  "/>
<g clip-path="url(#clip2700)">
<text style="fill:#000000; fill-opacity:1; font-family:Arial,Helvetica Neue,Helvetica,sans-serif; font-size:12; text-anchor:middle;" transform="rotate(0, 55.6306, 389.669)" x="55.6306" y="389.669">1.0</text>
</g>
<g clip-path="url(#clip2700)">
<text style="fill:#000000; fill-opacity:1; font-family:Arial,Helvetica Neue,Helvetica,sans-serif; font-size:12; text-anchor:middle;" transform="rotate(0, 182.981, 389.669)" x="182.981" y="389.669">1.5</text>
</g>
<g clip-path="url(#clip2700)">
<text style="fill:#000000; fill-opacity:1; font-family:Arial,Helvetica Neue,Helvetica,sans-serif; font-size:12; text-anchor:middle;" transform="rotate(0, 310.332, 389.669)" x="310.332" y="389.669">2.0</text>
</g>
<g clip-path="url(#clip2700)">
<text style="fill:#000000; fill-opacity:1; font-family:Arial,Helvetica Neue,Helvetica,sans-serif; font-size:12; text-anchor:middle;" transform="rotate(0, 437.682, 389.669)" x="437.682" y="389.669">2.5</text>
</g>
<g clip-path="url(#clip2700)">
<text style="fill:#000000; fill-opacity:1; font-family:Arial,Helvetica Neue,Helvetica,sans-serif; font-size:12; text-anchor:middle;" transform="rotate(0, 565.033, 389.669)" x="565.033" y="389.669">3.0</text>
</g>
<g clip-path="url(#clip2700)">
<text style="fill:#000000; fill-opacity:1; font-family:Arial,Helvetica Neue,Helvetica,sans-serif; font-size:12; text-anchor:end;" transform="rotate(0, 34.3485, 317.674)" x="34.3485" y="317.674">1.0</text>
</g>
<g clip-path="url(#clip2700)">
<text style="fill:#000000; fill-opacity:1; font-family:Arial,Helvetica Neue,Helvetica,sans-serif; font-size:12; text-anchor:end;" transform="rotate(0, 34.3485, 244.909)" x="34.3485" y="244.909">1.5</text>
</g>
<g clip-path="url(#clip2700)">
<text style="fill:#000000; fill-opacity:1; font-family:Arial,Helvetica Neue,Helvetica,sans-serif; font-size:12; text-anchor:end;" transform="rotate(0, 34.3485, 172.144)" x="34.3485" y="172.144">2.0</text>
</g>
<g clip-path="url(#clip2700)">
<text style="fill:#000000; fill-opacity:1; font-family:Arial,Helvetica Neue,Helvetica,sans-serif; font-size:12; text-anchor:end;" transform="rotate(0, 34.3485, 99.3794)" x="34.3485" y="99.3794">2.5</text>
</g>
<g clip-path="url(#clip2700)">
<text style="fill:#000000; fill-opacity:1; font-family:Arial,Helvetica Neue,Helvetica,sans-serif; font-size:12; text-anchor:end;" transform="rotate(0, 34.3485, 26.6145)" x="34.3485" y="26.6145">3.0</text>
</g>
<polygon clip-path="url(#clip2702)" points="
55.6306,365.565 310.332,284.982 565.033,351.559 565.033,129.259 310.332,219.097 55.6306,328.964 
  " fill="#009af9" fill-opacity="0.5"/>
<polyline clip-path="url(#clip2702)" style="stroke:#009af9; stroke-width:1; stroke-opacity:1; fill:none" points="
  55.6306,347.264 310.332,252.039 565.033,240.409 
  "/>
<polygon clip-path="url(#clip2702)" points="
55.6306,343.526 310.332,312.968 565.033,313.174 565.033,22.1145 310.332,261.984 55.6306,294.645 
  " fill="#e26f46" fill-opacity="0.5"/>
<polyline clip-path="url(#clip2702)" style="stroke:#e26f46; stroke-width:1; stroke-opacity:1; fill:none" points="
  55.6306,319.086 310.332,287.476 565.033,167.644 
  "/>
<polygon clip-path="url(#clip2700)" points="
475.577,78.051 562.315,78.051 562.315,32.691 475.577,32.691 
  " fill="#ffffff" fill-opacity="1"/>
<polyline clip-path="url(#clip2700)" style="stroke:#000000; stroke-width:1; stroke-opacity:1; fill:none" points="
  475.577,78.051 562.315,78.051 562.315,32.691 475.577,32.691 475.577,78.051 
  "/>
<polyline clip-path="url(#clip2700)" style="stroke:#009af9; stroke-width:1; stroke-opacity:1; fill:none" points="
  481.577,47.811 517.577,47.811 
  "/>
<g clip-path="url(#clip2700)">
<text style="fill:#000000; fill-opacity:1; font-family:Arial,Helvetica Neue,Helvetica,sans-serif; font-size:12; text-anchor:start;" transform="rotate(0, 523.577, 52.311)" x="523.577" y="52.311">CNO</text>
</g>
<polyline clip-path="url(#clip2700)" style="stroke:#e26f46; stroke-width:1; stroke-opacity:1; fill:none" points="
  481.577,62.931 517.577,62.931 
  "/>
<g clip-path="url(#clip2700)">
<text style="fill:#000000; fill-opacity:1; font-family:Arial,Helvetica Neue,Helvetica,sans-serif; font-size:12; text-anchor:start;" transform="rotate(0, 523.577, 67.431)" x="523.577" y="67.431">SAL</text>
</g>
</svg>
