<?xml version="1.0" encoding="utf-8"?>
<svg xmlns="http://www.w3.org/2000/svg" xmlns:xlink="http://www.w3.org/1999/xlink" width="600" height="400" viewBox="0 0 600 400">
<defs>
  <clipPath id="clip3100">
    <rect x="0" y="0" width="600" height="400"/>
  </clipPath>
</defs>
<polygon clip-path="url(#clip3100)" points="
0,400 600,400 600,0 0,0 
  " fill="#ffffff" fill-opacity="1"/>
<defs>
  <clipPath id="clip3101">
    <rect x="120" y="0" width="421" height="400"/>
  </clipPath>
</defs>
<polygon clip-path="url(#clip3100)" points="
40.3485,375.869 580.315,375.869 580.315,11.811 40.3485,11.811 
  " fill="#ffffff" fill-opacity="1"/>
<defs>
  <clipPath id="clip3102">
    <rect x="40" y="11" width="541" height="365"/>
  </clipPath>
</defs>
<polyline clip-path="url(#clip3102)" style="stroke:#000000; stroke-width:0.5; stroke-opacity:0.1; fill:none" points="
  55.6306,375.869 55.6306,11.811 
  "/>
<polyline clip-path="url(#clip3102)" style="stroke:#000000; stroke-width:0.5; stroke-opacity:0.1; fill:none" points="
  157.511,375.869 157.511,11.811 
  "/>
<polyline clip-path="url(#clip3102)" style="stroke:#000000; stroke-width:0.5; stroke-opacity:0.1; fill:none" points="
  259.392,375.869 259.392,11.811 
  "/>
<polyline clip-path="url(#clip3102)" style="stroke:#000000; stroke-width:0.5; stroke-opacity:0.1; fill:none" points="
  361.272,375.869 361.272,11.811 
  "/>
<polyline clip-path="url(#clip3102)" style="stroke:#000000; stroke-width:0.5; stroke-opacity:0.1; fill:none" points="
  463.152,375.869 463.152,11.811 
  "/>
<polyline clip-path="url(#clip3102)" style="stroke:#000000; stroke-width:0.5; stroke-opacity:0.1; fill:none" points="
  565.033,375.869 565.033,11.811 
  "/>
<polyline clip-path="url(#clip3102)" style="stroke:#000000; stroke-width:0.5; stroke-opacity:0.1; fill:none" points="
  40.3485,364.663 580.315,364.663 
  "/>
<polyline clip-path="url(#clip3102)" style="stroke:#000000; stroke-width:0.5; stroke-opacity:0.1; fill:none" points="
  40.3485,285.594 580.315,285.594 
  "/>
<polyline clip-path="url(#clip3102)" style="stroke:#000000; stroke-width:0.5; stroke-opacity:0.1; fill:none" points="
  40.3485,206.526 580.315,206.526 
  "/>
<polyline clip-path="url(#clip3102)" style="stroke:#000000; stroke-width:0.5; stroke-opacity:0.1; fill:none" points="
  40.3485,127.458 580.315,127.458 
  "/>
<polyline clip-path="url(#clip3102)" style="stroke:#000000; stroke-width:0.5; stroke-opacity:0.1; fill:none" points="
  40.3485,48.3894 580.315,48.3894 
  "/>
<polyline clip-path="url(#clip3100)" style="stroke:#000000; stroke-width:1; stroke-opacity:1; fill:none" points="
  40.3485,375.869 580.315,375.869 
  "/>
<polyline clip-path="url(#clip3100)" style="stroke:#000000; stroke-width:1; stroke-opacity:1; fill:none" points="
  40.3485,375.869 40.3485,11.811 
  "/>
<polyline clip-path="url(#clip3100)" style="stroke:#000000; stroke-width:1; stroke-opacity:1; fill:none" points="
  55.6306,375.869 55.6306,370.408 
  "/>
<polyline clip-path="url(#clip3100)" style="stroke:#000000; stroke-width:1; stroke-opacity:1; fill:none" points="
  157.511,375.869 157.511,370.408 
  "/>
<polyline clip-path="url(#clip3100)" style="stroke:#000000; stroke-width:1; stroke-opacity:1; fill:none" points="
  259.392,375.869 259.392,370.408 
  "/>
<polyline clip-path="url(#clip3100)" style="stroke:#000000; stroke-width:1; stroke-opacity:1; fill:none" points="
  361.272,375.869 361.272,370.408 
  "/>
<polyline clip-path="url(#clip3100)" style="stroke:#000000; stroke-width:1; stroke-opacity:1; fill:none" points="
  463.152,375.869 463.152,370.408 
  "/>
<polyline clip-path="url(#clip3100)" style="stroke:#000000; stroke-width:1; stroke-opacity:1; fill:none" points="
  565.033,375.869 565.033,370.408 
  "/>
<polyline clip-path="url(#clip3100)" style="stroke:#000000; stroke-width:1; stroke-opacity:1; fill:none" points="
  40.3485,364.663 48.448,364.663 
  "/>
<polyline clip-path="url(#clip3100)" style="stroke:#000000; stroke-width:1; stroke-opacity:1; fill:none" points="
  40.3485,285.594 48.448,285.594 
  "/>
<polyline clip-path="url(#clip3100)" style="stroke:#000000; stroke-width:1; stroke-opacity:1; fill:none" points="
  40.3485,206.526 48.448,206.526 
  "/>
<polyline clip-path="url(#clip3100)" style="stroke:#000000; stroke-width:1; stroke-opacity:1; fill:none" points="
  40.3485,127.458 48.448,127.458 
  "/>
<polyline clip-path="url(#clip3100)" style="stroke:#000000; stroke-width:1; stroke-opacity:1; fill:none" points="
  40.3485,48.3894 48.448,48.3894 
  "/>
<g clip-path="url(#clip3100)">
<text style="fill:#000000; fill-opacity:1; font-family:Arial,Helvetica Neue,Helvetica,sans-serif; font-size:12; text-anchor:middle;" transform="rotate(0, 55.6306, 389.669)" x="55.6306" y="389.669">20180710</text>
</g>
<g clip-path="url(#clip3100)">
<text style="fill:#000000; fill-opacity:1; font-family:Arial,Helvetica Neue,Helvetica,sans-serif; font-size:12; text-anchor:middle;" transform="rotate(0, 157.511, 389.669)" x="157.511" y="389.669">20180711</text>
</g>
<g clip-path="url(#clip3100)">
<text style="fill:#000000; fill-opacity:1; font-family:Arial,Helvetica Neue,Helvetica,sans-serif; font-size:12; text-anchor:middle;" transform="rotate(0, 259.392, 389.669)" x="259.392" y="389.669">20180712</text>
</g>
<g clip-path="url(#clip3100)">
<text style="fill:#000000; fill-opacity:1; font-family:Arial,Helvetica Neue,Helvetica,sans-serif; font-size:12; text-anchor:middle;" transform="rotate(0, 361.272, 389.669)" x="361.272" y="389.669">20180713</text>
</g>
<g clip-path="url(#clip3100)">
<text style="fill:#000000; fill-opacity:1; font-family:Arial,Helvetica Neue,Helvetica,sans-serif; font-size:12; text-anchor:middle;" transform="rotate(0, 463.152, 389.669)" x="463.152" y="389.669">20180714</text>
</g>
<g clip-path="url(#clip3100)">
<text style="fill:#000000; fill-opacity:1; font-family:Arial,Helvetica Neue,Helvetica,sans-serif; font-size:12; text-anchor:middle;" transform="rotate(0, 565.033, 389.669)" x="565.033" y="389.669">20180715</text>
</g>
<g clip-path="url(#clip3100)">
<text style="fill:#000000; fill-opacity:1; font-family:Arial,Helvetica Neue,Helvetica,sans-serif; font-size:12; text-anchor:end;" transform="rotate(0, 34.3485, 369.163)" x="34.3485" y="369.163">0.5</text>
</g>
<g clip-path="url(#clip3100)">
<text style="fill:#000000; fill-opacity:1; font-family:Arial,Helvetica Neue,Helvetica,sans-serif; font-size:12; text-anchor:end;" transform="rotate(0, 34.3485, 290.094)" x="34.3485" y="290.094">1.0</text>
</g>
<g clip-path="url(#clip3100)">
<text style="fill:#000000; fill-opacity:1; font-family:Arial,Helvetica Neue,Helvetica,sans-serif; font-size:12; text-anchor:end;" transform="rotate(0, 34.3485, 211.026)" x="34.3485" y="211.026">1.5</text>
</g>
<g clip-path="url(#clip3100)">
<text style="fill:#000000; fill-opacity:1; font-family:Arial,Helvetica Neue,Helvetica,sans-serif; font-size:12; text-anchor:end;" transform="rotate(0, 34.3485, 131.958)" x="34.3485" y="131.958">2.0</text>
</g>
<g clip-path="url(#clip3100)">
<text style="fill:#000000; fill-opacity:1; font-family:Arial,Helvetica Neue,Helvetica,sans-serif; font-size:12; text-anchor:end;" transform="rotate(0, 34.3485, 52.8894)" x="34.3485" y="52.8894">2.5</text>
</g>
<circle clip-path="url(#clip3102)" style="fill:#000000; stroke:none; fill-opacity:1" cx="157.511" cy="305.497" r="4"/>
<circle clip-path="url(#clip3102)" style="fill:#009af9; stroke:none; fill-opacity:1" cx="157.511" cy="305.497" r="3"/>
<circle clip-path="url(#clip3102)" style="fill:#000000; stroke:none; fill-opacity:1" cx="361.272" cy="335.11" r="4"/>
<circle clip-path="url(#clip3102)" style="fill:#009af9; stroke:none; fill-opacity:1" cx="361.272" cy="335.11" r="3"/>
<circle clip-path="url(#clip3102)" style="fill:#000000; stroke:none; fill-opacity:1" cx="565.033" cy="308.645" r="4"/>
<circle clip-path="url(#clip3102)" style="fill:#009af9; stroke:none; fill-opacity:1" cx="565.033" cy="308.645" r="3"/>
<polyline clip-path="url(#clip3102)" style="stroke:#009af9; stroke-width:1; stroke-opacity:1; fill:none" points="
  157.511,354.51 157.511,256.484 
  "/>
<polyline clip-path="url(#clip3102)" style="stroke:#009af9; stroke-width:1; stroke-opacity:1; fill:none" points="
  361.272,365.565 361.272,304.654 
  "/>
<polyline clip-path="url(#clip3102)" style="stroke:#009af9; stroke-width:1; stroke-opacity:1; fill:none" points="
  565.033,331.027 565.033,286.262 
  "/>
<line clip-path="url(#clip3102)" x1="162.511" y1="354.51" x2="152.511" y2="354.51" style="stroke:#000000; stroke-opacity:1"/>
<line clip-path="url(#clip3102)" x1="162.511" y1="256.484" x2="152.511" y2="256.484" style="stroke:#000000; stroke-opacity:1"/>
<line clip-path="url(#clip3102)" x1="366.272" y1="365.565" x2="356.272" y2="365.565" style="stroke:#000000; stroke-opacity:1"/>
<line clip-path="url(#clip3102)" x1="366.272" y1="304.654" x2="356.272" y2="304.654" style="stroke:#000000; stroke-opacity:1"/>
<line clip-path="url(#clip3102)" x1="570.033" y1="331.027" x2="560.033" y2="331.027" style="stroke:#000000; stroke-opacity:1"/>
<line clip-path="url(#clip3102)" x1="570.033" y1="286.262" x2="560.033" y2="286.262" style="stroke:#000000; stroke-opacity:1"/>
<circle clip-path="url(#clip3102)" style="fill:#000000; stroke:none; fill-opacity:1" cx="55.6306" cy="127.539" r="4"/>
<circle clip-path="url(#clip3102)" style="fill:#e26f46; stroke:none; fill-opacity:1" cx="55.6306" cy="127.539" r="3"/>
<circle clip-path="url(#clip3102)" style="fill:#000000; stroke:none; fill-opacity:1" cx="259.392" cy="321.674" r="4"/>
<circle clip-path="url(#clip3102)" style="fill:#e26f46; stroke:none; fill-opacity:1" cx="259.392" cy="321.674" r="3"/>
<circle clip-path="url(#clip3102)" style="fill:#000000; stroke:none; fill-opacity:1" cx="463.152" cy="322.236" r="4"/>
<circle clip-path="url(#clip3102)" style="fill:#e26f46; stroke:none; fill-opacity:1" cx="463.152" cy="322.236" r="3"/>
<polyline clip-path="url(#clip3102)" style="stroke:#e26f46; stroke-width:1; stroke-opacity:1; fill:none" points="
  55.6306,232.963 55.6306,22.1145 
  "/>
<polyline clip-path="url(#clip3102)" style="stroke:#e26f46; stroke-width:1; stroke-opacity:1; fill:none" points="
  259.392,345.915 259.392,297.432 
  "/>
<polyline clip-path="url(#clip3102)" style="stroke:#e26f46; stroke-width:1; stroke-opacity:1; fill:none" points="
  463.152,344.28 463.152,300.193 
  "/>
<line clip-path="url(#clip3102)" x1="60.6306" y1="232.963" x2="50.6306" y2="232.963" style="stroke:#000000; stroke-opacity:1"/>
<line clip-path="url(#clip3102)" x1="60.6306" y1="22.1145" x2="50.6306" y2="22.1145" style="stroke:#000000; stroke-opacity:1"/>
<line clip-path="url(#clip3102)" x1="264.392" y1="345.915" x2="254.392" y2="345.915" style="stroke:#000000; stroke-opacity:1"/>
<line clip-path="url(#clip3102)" x1="264.392" y1="297.432" x2="254.392" y2="297.432" style="stroke:#000000; stroke-opacity:1"/>
<line clip-path="url(#clip3102)" x1="468.152" y1="344.28" x2="458.152" y2="344.28" style="stroke:#000000; stroke-opacity:1"/>
<line clip-path="url(#clip3102)" x1="468.152" y1="300.193" x2="458.152" y2="300.193" style="stroke:#000000; stroke-opacity:1"/>
<polygon clip-path="url(#clip3100)" points="
475.577,78.051 562.315,78.051 562.315,32.691 475.577,32.691 
  " fill="#ffffff" fill-opacity="1"/>
<polyline clip-path="url(#clip3100)" style="stroke:#000000; stroke-width:1; stroke-opacity:1; fill:none" points="
  475.577,78.051 562.315,78.051 562.315,32.691 475.577,32.691 475.577,78.051 
  "/>
<circle clip-path="url(#clip3100)" style="fill:#000000; stroke:none; fill-opacity:1" cx="502.577" cy="47.811" r="6"/>
<circle clip-path="url(#clip3100)" style="fill:#009af9; stroke:none; fill-opacity:1" cx="502.577" cy="47.811" r="5"/>
<g clip-path="url(#clip3100)">
<text style="fill:#000000; fill-opacity:1; font-family:Arial,Helvetica Neue,Helvetica,sans-serif; font-size:12; text-anchor:start;" transform="rotate(0, 523.577, 52.311)" x="523.577" y="52.311">CNO</text>
</g>
<circle clip-path="url(#clip3100)" style="fill:#000000; stroke:none; fill-opacity:1" cx="502.577" cy="62.931" r="6"/>
<circle clip-path="url(#clip3100)" style="fill:#e26f46; stroke:none; fill-opacity:1" cx="502.577" cy="62.931" r="5"/>
<g clip-path="url(#clip3100)">
<text style="fill:#000000; fill-opacity:1; font-family:Arial,Helvetica Neue,Helvetica,sans-serif; font-size:12; text-anchor:start;" transform="rotate(0, 523.577, 67.431)" x="523.577" y="67.431">SAL</text>
</g>
</svg>
