<?xml version="1.0" encoding="utf-8"?>
<svg xmlns="http://www.w3.org/2000/svg" xmlns:xlink="http://www.w3.org/1999/xlink" width="600" height="400" viewBox="0 0 600 400">
<defs>
  <clipPath id="clip9500">
    <rect x="0" y="0" width="600" height="400"/>
  </clipPath>
</defs>
<polygon clip-path="url(#clip9500)" points="
0,400 600,400 600,0 0,0 
  " fill="#ffffff" fill-opacity="1"/>
<defs>
  <clipPath id="clip9501">
    <rect x="120" y="0" width="421" height="400"/>
  </clipPath>
</defs>
<polygon clip-path="url(#clip9500)" points="
40.3485,375.869 580.315,375.869 580.315,11.811 40.3485,11.811 
  " fill="#ffffff" fill-opacity="1"/>
<defs>
  <clipPath id="clip9502">
    <rect x="40" y="11" width="541" height="365"/>
  </clipPath>
</defs>
<polyline clip-path="url(#clip9502)" style="stroke:#000000; stroke-width:0.5; stroke-opacity:0.1; fill:none" points="
  55.6306,375.869 55.6306,11.811 
  "/>
<polyline clip-path="url(#clip9502)" style="stroke:#000000; stroke-width:0.5; stroke-opacity:0.1; fill:none" points="
  140.531,375.869 140.531,11.811 
  "/>
<polyline clip-path="url(#clip9502)" style="stroke:#000000; stroke-width:0.5; stroke-opacity:0.1; fill:none" points="
  225.431,375.869 225.431,11.811 
  "/>
<polyline clip-path="url(#clip9502)" style="stroke:#000000; stroke-width:0.5; stroke-opacity:0.1; fill:none" points="
  310.332,375.869 310.332,11.811 
  "/>
<polyline clip-path="url(#clip9502)" style="stroke:#000000; stroke-width:0.5; stroke-opacity:0.1; fill:none" points="
  395.232,375.869 395.232,11.811 
  "/>
<polyline clip-path="url(#clip9502)" style="stroke:#000000; stroke-width:0.5; stroke-opacity:0.1; fill:none" points="
  480.133,375.869 480.133,11.811 
  "/>
<polyline clip-path="url(#clip9502)" style="stroke:#000000; stroke-width:0.5; stroke-opacity:0.1; fill:none" points="
  565.033,375.869 565.033,11.811 
  "/>
<polyline clip-path="url(#clip9502)" style="stroke:#000000; stroke-width:0.5; stroke-opacity:0.1; fill:none" points="
  40.3485,348.474 580.315,348.474 
  "/>
<polyline clip-path="url(#clip9502)" style="stroke:#000000; stroke-width:0.5; stroke-opacity:0.1; fill:none" points="
  40.3485,294.081 580.315,294.081 
  "/>
<polyline clip-path="url(#clip9502)" style="stroke:#000000; stroke-width:0.5; stroke-opacity:0.1; fill:none" points="
  40.3485,239.687 580.315,239.687 
  "/>
<polyline clip-path="url(#clip9502)" style="stroke:#000000; stroke-width:0.5; stroke-opacity:0.1; fill:none" points="
  40.3485,185.294 580.315,185.294 
  "/>
<polyline clip-path="url(#clip9502)" style="stroke:#000000; stroke-width:0.5; stroke-opacity:0.1; fill:none" points="
  40.3485,130.901 580.315,130.901 
  "/>
<polyline clip-path="url(#clip9502)" style="stroke:#000000; stroke-width:0.5; stroke-opacity:0.1; fill:none" points="
  40.3485,76.5078 580.315,76.5078 
  "/>
<polyline clip-path="url(#clip9502)" style="stroke:#000000; stroke-width:0.5; stroke-opacity:0.1; fill:none" points="
  40.3485,22.1145 580.315,22.1145 
  "/>
<polyline clip-path="url(#clip9500)" style="stroke:#000000; stroke-width:1; stroke-opacity:1; fill:none" points="
  40.3485,375.869 580.315,375.869 
  "/>
<polyline clip-path="url(#clip9500)" style="stroke:#000000; stroke-width:1; stroke-opacity:1; fill:none" points="
  40.3485,375.869 40.3485,11.811 
  "/>
<polyline clip-path="url(#clip9500)" style="stroke:#000000; stroke-width:1; stroke-opacity:1; fill:none" points="
  55.6306,375.869 55.6306,370.408 
  "/>
<polyline clip-path="url(#clip9500)" style="stroke:#000000; stroke-width:1; stroke-opacity:1; fill:none" points="
  140.531,375.869 140.531,370.408 
  "/>
<polyline clip-path="url(#clip9500)" style="stroke:#000000; stroke-width:1; stroke-opacity:1; fill:none" points="
  225.431,375.869 225.431,370.408 
  "/>
<polyline clip-path="url(#clip9500)" style="stroke:#000000; stroke-width:1; stroke-opacity:1; fill:none" points="
  310.332,375.869 310.332,370.408 
  "/>
<polyline clip-path="url(#clip9500)" style="stroke:#000000; stroke-width:1; stroke-opacity:1; fill:none" points="
  395.232,375.869 395.232,370.408 
  "/>
<polyline clip-path="url(#clip9500)" style="stroke:#000000; stroke-width:1; stroke-opacity:1; fill:none" points="
  480.133,375.869 480.133,370.408 
  "/>
<polyline clip-path="url(#clip9500)" style="stroke:#000000; stroke-width:1; stroke-opacity:1; fill:none" points="
  565.033,375.869 565.033,370.408 
  "/>
<polyline clip-path="url(#clip9500)" style="stroke:#000000; stroke-width:1; stroke-opacity:1; fill:none" points="
  40.3485,348.474 48.448,348.474 
  "/>
<polyline clip-path="url(#clip9500)" style="stroke:#000000; stroke-width:1; stroke-opacity:1; fill:none" points="
  40.3485,294.081 48.448,294.081 
  "/>
<polyline clip-path="url(#clip9500)" style="stroke:#000000; stroke-width:1; stroke-opacity:1; fill:none" points="
  40.3485,239.687 48.448,239.687 
  "/>
<polyline clip-path="url(#clip9500)" style="stroke:#000000; stroke-width:1; stroke-opacity:1; fill:none" points="
  40.3485,185.294 48.448,185.294 
  "/>
<polyline clip-path="url(#clip9500)" style="stroke:#000000; stroke-width:1; stroke-opacity:1; fill:none" points="
  40.3485,130.901 48.448,130.901 
  "/>
<polyline clip-path="url(#clip9500)" style="stroke:#000000; stroke-width:1; stroke-opacity:1; fill:none" points="
  40.3485,76.5078 48.448,76.5078 
  "/>
<polyline clip-path="url(#clip9500)" style="stroke:#000000; stroke-width:1; stroke-opacity:1; fill:none" points="
  40.3485,22.1145 48.448,22.1145 
  "/>
<g clip-path="url(#clip9500)">
<text style="fill:#000000; fill-opacity:1; font-family:Arial,Helvetica Neue,Helvetica,sans-serif; font-size:12; text-anchor:middle;" transform="rotate(0, 55.6306, 389.669)" x="55.6306" y="389.669">0</text>
</g>
<g clip-path="url(#clip9500)">
<text style="fill:#000000; fill-opacity:1; font-family:Arial,Helvetica Neue,Helvetica,sans-serif; font-size:12; text-anchor:middle;" transform="rotate(0, 140.531, 389.669)" x="140.531" y="389.669">1</text>
</g>
<g clip-path="url(#clip9500)">
<text style="fill:#000000; fill-opacity:1; font-family:Arial,Helvetica Neue,Helvetica,sans-serif; font-size:12; text-anchor:middle;" transform="rotate(0, 225.431, 389.669)" x="225.431" y="389.669">2</text>
</g>
<g clip-path="url(#clip9500)">
<text style="fill:#000000; fill-opacity:1; font-family:Arial,Helvetica Neue,Helvetica,sans-serif; font-size:12; text-anchor:middle;" transform="rotate(0, 310.332, 389.669)" x="310.332" y="389.669">3</text>
</g>
<g clip-path="url(#clip9500)">
<text style="fill:#000000; fill-opacity:1; font-family:Arial,Helvetica Neue,Helvetica,sans-serif; font-size:12; text-anchor:middle;" transform="rotate(0, 395.232, 389.669)" x="395.232" y="389.669">4</text>
</g>
<g clip-path="url(#clip9500)">
<text style="fill:#000000; fill-opacity:1; font-family:Arial,Helvetica Neue,Helvetica,sans-serif; font-size:12; text-anchor:middle;" transform="rotate(0, 480.133, 389.669)" x="480.133" y="389.669">5</text>
</g>
<g clip-path="url(#clip9500)">
<text style="fill:#000000; fill-opacity:1; font-family:Arial,Helvetica Neue,Helvetica,sans-serif; font-size:12; text-anchor:middle;" transform="rotate(0, 565.033, 389.669)" x="565.033" y="389.669">6</text>
</g>
<g clip-path="url(#clip9500)">
<text style="fill:#000000; fill-opacity:1; font-family:Arial,Helvetica Neue,Helvetica,sans-serif; font-size:12; text-anchor:end;" transform="rotate(0, 34.3485, 352.974)" x="34.3485" y="352.974">0.4</text>
</g>
<g clip-path="url(#clip9500)">
<text style="fill:#000000; fill-opacity:1; font-family:Arial,Helvetica Neue,Helvetica,sans-serif; font-size:12; text-anchor:end;" transform="rotate(0, 34.3485, 298.581)" x="34.3485" y="298.581">0.5</text>
</g>
<g clip-path="url(#clip9500)">
<text style="fill:#000000; fill-opacity:1; font-family:Arial,Helvetica Neue,Helvetica,sans-serif; font-size:12; text-anchor:end;" transform="rotate(0, 34.3485, 244.187)" x="34.3485" y="244.187">0.6</text>
</g>
<g clip-path="url(#clip9500)">
<text style="fill:#000000; fill-opacity:1; font-family:Arial,Helvetica Neue,Helvetica,sans-serif; font-size:12; text-anchor:end;" transform="rotate(0, 34.3485, 189.794)" x="34.3485" y="189.794">0.7</text>
</g>
<g clip-path="url(#clip9500)">
<text style="fill:#000000; fill-opacity:1; font-family:Arial,Helvetica Neue,Helvetica,sans-serif; font-size:12; text-anchor:end;" transform="rotate(0, 34.3485, 135.401)" x="34.3485" y="135.401">0.8</text>
</g>
<g clip-path="url(#clip9500)">
<text style="fill:#000000; fill-opacity:1; font-family:Arial,Helvetica Neue,Helvetica,sans-serif; font-size:12; text-anchor:end;" transform="rotate(0, 34.3485, 81.0078)" x="34.3485" y="81.0078">0.9</text>
</g>
<g clip-path="url(#clip9500)">
<text style="fill:#000000; fill-opacity:1; font-family:Arial,Helvetica Neue,Helvetica,sans-serif; font-size:12; text-anchor:end;" transform="rotate(0, 34.3485, 26.6145)" x="34.3485" y="26.6145">1.0</text>
</g>
<polygon clip-path="url(#clip9502)" points="
55.6306,334.394 140.531,150.818 225.431,68.8988 310.332,36.5734 395.232,29.0825 480.133,25.0672 565.033,22.1145 565.033,22.1145 480.133,22.7934 395.232,24.9037 
  310.332,27.3239 225.431,47.0265 140.531,100.401 55.6306,265.25 
  " fill="#009af9" fill-opacity="0.5"/>
<polyline clip-path="url(#clip9502)" style="stroke:#009af9; stroke-width:1; stroke-opacity:1; fill:none" points="
  55.6306,299.822 140.531,125.609 225.431,57.9627 310.332,31.9487 395.232,26.9931 480.133,23.9303 565.033,22.1145 
  "/>
<polygon clip-path="url(#clip9502)" points="
55.6306,365.565 140.531,175.496 225.431,92.2009 310.332,56.607 395.232,36.8146 480.133,25.2651 565.033,22.1145 565.033,22.1145 480.133,22.9314 395.232,28.0426 
  310.332,39.3827 225.431,63.0149 140.531,123.009 55.6306,287.542 
  " fill="#e26f46" fill-opacity="0.5"/>
<polyline clip-path="url(#clip9502)" style="stroke:#e26f46; stroke-width:1; stroke-opacity:1; fill:none" points="
  55.6306,326.554 140.531,149.252 225.431,77.6079 310.332,47.9948 395.232,32.4286 480.133,24.0983 565.033,22.1145 
  "/>
<polygon clip-path="url(#clip9500)" points="
475.577,78.051 562.315,78.051 562.315,32.691 475.577,32.691 
  " fill="#ffffff" fill-opacity="1"/>
<polyline clip-path="url(#clip9500)" style="stroke:#000000; stroke-width:1; stroke-opacity:1; fill:none" points="
  475.577,78.051 562.315,78.051 562.315,32.691 475.577,32.691 475.577,78.051 
  "/>
<polyline clip-path="url(#clip9500)" style="stroke:#009af9; stroke-width:1; stroke-opacity:1; fill:none" points="
  481.577,47.811 517.577,47.811 
  "/>
<g clip-path="url(#clip9500)">
<text style="fill:#000000; fill-opacity:1; font-family:Arial,Helvetica Neue,Helvetica,sans-serif; font-size:12; text-anchor:start;" transform="rotate(0, 523.577, 52.311)" x="523.577" y="52.311">CNO</text>
</g>
<polyline clip-path="url(#clip9500)" style="stroke:#e26f46; stroke-width:1; stroke-opacity:1; fill:none" points="
  481.577,62.931 517.577,62.931 
  "/>
<g clip-path="url(#clip9500)">
<text style="fill:#000000; fill-opacity:1; font-family:Arial,Helvetica Neue,Helvetica,sans-serif; font-size:12; text-anchor:start;" transform="rotate(0, 523.577, 67.431)" x="523.577" y="67.431">SAL</text>
</g>
</svg>
