<?xml version="1.0" encoding="utf-8"?>
<svg xmlns="http://www.w3.org/2000/svg" xmlns:xlink="http://www.w3.org/1999/xlink" width="600" height="400" viewBox="0 0 600 400">
<defs>
  <clipPath id="clip4500">
    <rect x="0" y="0" width="600" height="400"/>
  </clipPath>
</defs>
<polygon clip-path="url(#clip4500)" points="
0,400 600,400 600,0 0,0 
  " fill="#ffffff" fill-opacity="1"/>
<defs>
  <clipPath id="clip4501">
    <rect x="120" y="0" width="421" height="400"/>
  </clipPath>
</defs>
<polygon clip-path="url(#clip4500)" points="
40.3485,375.869 580.315,375.869 580.315,11.811 40.3485,11.811 
  " fill="#ffffff" fill-opacity="1"/>
<defs>
  <clipPath id="clip4502">
    <rect x="40" y="11" width="541" height="365"/>
  </clipPath>
</defs>
<polyline clip-path="url(#clip4502)" style="stroke:#000000; stroke-width:0.5; stroke-opacity:0.1; fill:none" points="
  55.6306,375.869 55.6306,11.811 
  "/>
<polyline clip-path="url(#clip4502)" style="stroke:#000000; stroke-width:0.5; stroke-opacity:0.1; fill:none" points="
  140.531,375.869 140.531,11.811 
  "/>
<polyline clip-path="url(#clip4502)" style="stroke:#000000; stroke-width:0.5; stroke-opacity:0.1; fill:none" points="
  225.431,375.869 225.431,11.811 
  "/>
<polyline clip-path="url(#clip4502)" style="stroke:#000000; stroke-width:0.5; stroke-opacity:0.1; fill:none" points="
  310.332,375.869 310.332,11.811 
  "/>
<polyline clip-path="url(#clip4502)" style="stroke:#000000; stroke-width:0.5; stroke-opacity:0.1; fill:none" points="
  395.232,375.869 395.232,11.811 
  "/>
<polyline clip-path="url(#clip4502)" style="stroke:#000000; stroke-width:0.5; stroke-opacity:0.1; fill:none" points="
  480.133,375.869 480.133,11.811 
  "/>
<polyline clip-path="url(#clip4502)" style="stroke:#000000; stroke-width:0.5; stroke-opacity:0.1; fill:none" points="
  565.033,375.869 565.033,11.811 
  "/>
<polyline clip-path="url(#clip4502)" style="stroke:#000000; stroke-width:0.5; stroke-opacity:0.1; fill:none" points="
  40.3485,366.342 580.315,366.342 
  "/>
<polyline clip-path="url(#clip4502)" style="stroke:#000000; stroke-width:0.5; stroke-opacity:0.1; fill:none" points="
  40.3485,304.095 580.315,304.095 
  "/>
<polyline clip-path="url(#clip4502)" style="stroke:#000000; stroke-width:0.5; stroke-opacity:0.1; fill:none" points="
  40.3485,241.848 580.315,241.848 
  "/>
<polyline clip-path="url(#clip4502)" style="stroke:#000000; stroke-width:0.5; stroke-opacity:0.1; fill:none" points="
  40.3485,179.602 580.315,179.602 
  "/>
<polyline clip-path="url(#clip4502)" style="stroke:#000000; stroke-width:0.5; stroke-opacity:0.1; fill:none" points="
  40.3485,117.355 580.315,117.355 
  "/>
<polyline clip-path="url(#clip4502)" style="stroke:#000000; stroke-width:0.5; stroke-opacity:0.1; fill:none" points="
  40.3485,55.1082 580.315,55.1082 
  "/>
<polyline clip-path="url(#clip4500)" style="stroke:#000000; stroke-width:1; stroke-opacity:1; fill:none" points="
  40.3485,375.869 580.315,375.869 
  "/>
<polyline clip-path="url(#clip4500)" style="stroke:#000000; stroke-width:1; stroke-opacity:1; fill:none" points="
  40.3485,375.869 40.3485,11.811 
  "/>
<polyline clip-path="url(#clip4500)" style="stroke:#000000; stroke-width:1; stroke-opacity:1; fill:none" points="
  55.6306,375.869 55.6306,370.408 
  "/>
<polyline clip-path="url(#clip4500)" style="stroke:#000000; stroke-width:1; stroke-opacity:1; fill:none" points="
  140.531,375.869 140.531,370.408 
  "/>
<polyline clip-path="url(#clip4500)" style="stroke:#000000; stroke-width:1; stroke-opacity:1; fill:none" points="
  225.431,375.869 225.431,370.408 
  "/>
<polyline clip-path="url(#clip4500)" style="stroke:#000000; stroke-width:1; stroke-opacity:1; fill:none" points="
  310.332,375.869 310.332,370.408 
  "/>
<polyline clip-path="url(#clip4500)" style="stroke:#000000; stroke-width:1; stroke-opacity:1; fill:none" points="
  395.232,375.869 395.232,370.408 
  "/>
<polyline clip-path="url(#clip4500)" style="stroke:#000000; stroke-width:1; stroke-opacity:1; fill:none" points="
  480.133,375.869 480.133,370.408 
  "/>
<polyline clip-path="url(#clip4500)" style="stroke:#000000; stroke-width:1; stroke-opacity:1; fill:none" points="
  565.033,375.869 565.033,370.408 
  "/>
<polyline clip-path="url(#clip4500)" style="stroke:#000000; stroke-width:1; stroke-opacity:1; fill:none" points="
  40.3485,366.342 48.448,366.342 
  "/>
<polyline clip-path="url(#clip4500)" style="stroke:#000000; stroke-width:1; stroke-opacity:1; fill:none" points="
  40.3485,304.095 48.448,304.095 
  "/>
<polyline clip-path="url(#clip4500)" style="stroke:#000000; stroke-width:1; stroke-opacity:1; fill:none" points="
  40.3485,241.848 48.448,241.848 
  "/>
<polyline clip-path="url(#clip4500)" style="stroke:#000000; stroke-width:1; stroke-opacity:1; fill:none" points="
  40.3485,179.602 48.448,179.602 
  "/>
<polyline clip-path="url(#clip4500)" style="stroke:#000000; stroke-width:1; stroke-opacity:1; fill:none" points="
  40.3485,117.355 48.448,117.355 
  "/>
<polyline clip-path="url(#clip4500)" style="stroke:#000000; stroke-width:1; stroke-opacity:1; fill:none" points="
  40.3485,55.1082 48.448,55.1082 
  "/>
<g clip-path="url(#clip4500)">
<text style="fill:#000000; fill-opacity:1; font-family:Arial,Helvetica Neue,Helvetica,sans-serif; font-size:12; text-anchor:middle;" transform="rotate(0, 55.6306, 389.669)" x="55.6306" y="389.669">0</text>
</g>
<g clip-path="url(#clip4500)">
<text style="fill:#000000; fill-opacity:1; font-family:Arial,Helvetica Neue,Helvetica,sans-serif; font-size:12; text-anchor:middle;" transform="rotate(0, 140.531, 389.669)" x="140.531" y="389.669">1</text>
</g>
<g clip-path="url(#clip4500)">
<text style="fill:#000000; fill-opacity:1; font-family:Arial,Helvetica Neue,Helvetica,sans-serif; font-size:12; text-anchor:middle;" transform="rotate(0, 225.431, 389.669)" x="225.431" y="389.669">2</text>
</g>
<g clip-path="url(#clip4500)">
<text style="fill:#000000; fill-opacity:1; font-family:Arial,Helvetica Neue,Helvetica,sans-serif; font-size:12; text-anchor:middle;" transform="rotate(0, 310.332, 389.669)" x="310.332" y="389.669">3</text>
</g>
<g clip-path="url(#clip4500)">
<text style="fill:#000000; fill-opacity:1; font-family:Arial,Helvetica Neue,Helvetica,sans-serif; font-size:12; text-anchor:middle;" transform="rotate(0, 395.232, 389.669)" x="395.232" y="389.669">4</text>
</g>
<g clip-path="url(#clip4500)">
<text style="fill:#000000; fill-opacity:1; font-family:Arial,Helvetica Neue,Helvetica,sans-serif; font-size:12; text-anchor:middle;" transform="rotate(0, 480.133, 389.669)" x="480.133" y="389.669">5</text>
</g>
<g clip-path="url(#clip4500)">
<text style="fill:#000000; fill-opacity:1; font-family:Arial,Helvetica Neue,Helvetica,sans-serif; font-size:12; text-anchor:middle;" transform="rotate(0, 565.033, 389.669)" x="565.033" y="389.669">6</text>
</g>
<g clip-path="url(#clip4500)">
<text style="fill:#000000; fill-opacity:1; font-family:Arial,Helvetica Neue,Helvetica,sans-serif; font-size:12; text-anchor:end;" transform="rotate(0, 34.3485, 370.842)" x="34.3485" y="370.842">0.0</text>
</g>
<g clip-path="url(#clip4500)">
<text style="fill:#000000; fill-opacity:1; font-family:Arial,Helvetica Neue,Helvetica,sans-serif; font-size:12; text-anchor:end;" transform="rotate(0, 34.3485, 308.595)" x="34.3485" y="308.595">0.1</text>
</g>
<g clip-path="url(#clip4500)">
<text style="fill:#000000; fill-opacity:1; font-family:Arial,Helvetica Neue,Helvetica,sans-serif; font-size:12; text-anchor:end;" transform="rotate(0, 34.3485, 246.348)" x="34.3485" y="246.348">0.2</text>
</g>
<g clip-path="url(#clip4500)">
<text style="fill:#000000; fill-opacity:1; font-family:Arial,Helvetica Neue,Helvetica,sans-serif; font-size:12; text-anchor:end;" transform="rotate(0, 34.3485, 184.102)" x="34.3485" y="184.102">0.3</text>
</g>
<g clip-path="url(#clip4500)">
<text style="fill:#000000; fill-opacity:1; font-family:Arial,Helvetica Neue,Helvetica,sans-serif; font-size:12; text-anchor:end;" transform="rotate(0, 34.3485, 121.855)" x="34.3485" y="121.855">0.4</text>
</g>
<g clip-path="url(#clip4500)">
<text style="fill:#000000; fill-opacity:1; font-family:Arial,Helvetica Neue,Helvetica,sans-serif; font-size:12; text-anchor:end;" transform="rotate(0, 34.3485, 59.6082)" x="34.3485" y="59.6082">0.5</text>
</g>
<polygon clip-path="url(#clip4502)" points="
55.6306,101.242 140.531,197.308 225.431,305.629 310.332,344.197 395.232,363.848 480.133,364.984 565.033,365.565 565.033,362.963 480.133,360.69 395.232,357.494 
  310.332,328.947 225.431,272.228 140.531,136.644 55.6306,22.1145 
  " fill="#009af9" fill-opacity="0.5"/>
<polyline clip-path="url(#clip4502)" style="stroke:#009af9; stroke-width:1; stroke-opacity:1; fill:none" points="
  55.6306,61.6783 140.531,166.976 225.431,288.928 310.332,336.572 395.232,360.671 480.133,362.837 565.033,364.264 
  "/>
<polygon clip-path="url(#clip4502)" points="
55.6306,136.914 140.531,181.801 225.431,299.588 310.332,340.976 395.232,353.736 480.133,360.83 565.033,365.407 565.033,362.737 480.133,352.788 395.232,343.32 
  310.332,323.931 225.431,269.118 140.531,145.082 55.6306,47.6261 
  " fill="#e26f46" fill-opacity="0.5"/>
<polyline clip-path="url(#clip4502)" style="stroke:#e26f46; stroke-width:1; stroke-opacity:1; fill:none" points="
  55.6306,92.27 140.531,163.441 225.431,284.353 310.332,332.453 395.232,348.528 480.133,356.809 565.033,364.072 
  "/>
<polygon clip-path="url(#clip4500)" points="
475.577,78.051 562.315,78.051 562.315,32.691 475.577,32.691 
  " fill="#ffffff" fill-opacity="1"/>
<polyline clip-path="url(#clip4500)" style="stroke:#000000; stroke-width:1; stroke-opacity:1; fill:none" points="
  475.577,78.051 562.315,78.051 562.315,32.691 475.577,32.691 475.577,78.051 
  "/>
<polyline clip-path="url(#clip4500)" style="stroke:#009af9; stroke-width:1; stroke-opacity:1; fill:none" points="
  481.577,47.811 517.577,47.811 
  "/>
<g clip-path="url(#clip4500)">
<text style="fill:#000000; fill-opacity:1; font-family:Arial,Helvetica Neue,Helvetica,sans-serif; font-size:12; text-anchor:start;" transform="rotate(0, 523.577, 52.311)" x="523.577" y="52.311">CNO</text>
</g>
<polyline clip-path="url(#clip4500)" style="stroke:#e26f46; stroke-width:1; stroke-opacity:1; fill:none" points="
  481.577,62.931 517.577,62.931 
  "/>
<g clip-path="url(#clip4500)">
<text style="fill:#000000; fill-opacity:1; font-family:Arial,Helvetica Neue,Helvetica,sans-serif; font-size:12; text-anchor:start;" transform="rotate(0, 523.577, 67.431)" x="523.577" y="67.431">SAL</text>
</g>
</svg>
