<?xml version="1.0" encoding="utf-8"?>
<svg xmlns="http://www.w3.org/2000/svg" xmlns:xlink="http://www.w3.org/1999/xlink" width="600" height="400" viewBox="0 0 600 400">
<defs>
  <clipPath id="clip2100">
    <rect x="0" y="0" width="600" height="400"/>
  </clipPath>
</defs>
<polygon clip-path="url(#clip2100)" points="
0,400 600,400 600,0 0,0 
  " fill="#ffffff" fill-opacity="1"/>
<defs>
  <clipPath id="clip2101">
    <rect x="120" y="0" width="421" height="400"/>
  </clipPath>
</defs>
<polygon clip-path="url(#clip2100)" points="
40.3485,375.869 580.315,375.869 580.315,11.811 40.3485,11.811 
  " fill="#ffffff" fill-opacity="1"/>
<defs>
  <clipPath id="clip2102">
    <rect x="40" y="11" width="541" height="365"/>
  </clipPath>
</defs>
<polyline clip-path="url(#clip2102)" style="stroke:#000000; stroke-width:0.5; stroke-opacity:0.1; fill:none" points="
  55.6306,375.869 55.6306,11.811 
  "/>
<polyline clip-path="url(#clip2102)" style="stroke:#000000; stroke-width:0.5; stroke-opacity:0.1; fill:none" points="
  182.981,375.869 182.981,11.811 
  "/>
<polyline clip-path="url(#clip2102)" style="stroke:#000000; stroke-width:0.5; stroke-opacity:0.1; fill:none" points="
  310.332,375.869 310.332,11.811 
  "/>
<polyline clip-path="url(#clip2102)" style="stroke:#000000; stroke-width:0.5; stroke-opacity:0.1; fill:none" points="
  437.682,375.869 437.682,11.811 
  "/>
<polyline clip-path="url(#clip2102)" style="stroke:#000000; stroke-width:0.5; stroke-opacity:0.1; fill:none" points="
  565.033,375.869 565.033,11.811 
  "/>
<polyline clip-path="url(#clip2102)" style="stroke:#000000; stroke-width:0.5; stroke-opacity:0.1; fill:none" points="
  40.3485,365.565 580.315,365.565 
  "/>
<polyline clip-path="url(#clip2102)" style="stroke:#000000; stroke-width:0.5; stroke-opacity:0.1; fill:none" points="
  40.3485,308.997 580.315,308.997 
  "/>
<polyline clip-path="url(#clip2102)" style="stroke:#000000; stroke-width:0.5; stroke-opacity:0.1; fill:none" points="
  40.3485,252.428 580.315,252.428 
  "/>
<polyline clip-path="url(#clip2102)" style="stroke:#000000; stroke-width:0.5; stroke-opacity:0.1; fill:none" points="
  40.3485,195.86 580.315,195.86 
  "/>
<polyline clip-path="url(#clip2102)" style="stroke:#000000; stroke-width:0.5; stroke-opacity:0.1; fill:none" points="
  40.3485,139.292 580.315,139.292 
  "/>
<polyline clip-path="url(#clip2102)" style="stroke:#000000; stroke-width:0.5; stroke-opacity:0.1; fill:none" points="
  40.3485,82.7235 580.315,82.7235 
  "/>
<polyline clip-path="url(#clip2102)" style="stroke:#000000; stroke-width:0.5; stroke-opacity:0.1; fill:none" points="
  40.3485,26.1551 580.315,26.1551 
  "/>
<polyline clip-path="url(#clip2100)" style="stroke:#000000; stroke-width:1; stroke-opacity:1; fill:none" points="
  40.3485,375.869 580.315,375.869 
  "/>
<polyline clip-path="url(#clip2100)" style="stroke:#000000; stroke-width:1; stroke-opacity:1; fill:none" points="
  40.3485,375.869 40.3485,11.811 
  "/>
<polyline clip-path="url(#clip2100)" style="stroke:#000000; stroke-width:1; stroke-opacity:1; fill:none" points="
  55.6306,375.869 55.6306,370.408 
  "/>
<polyline clip-path="url(#clip2100)" style="stroke:#000000; stroke-width:1; stroke-opacity:1; fill:none" points="
  182.981,375.869 182.981,370.408 
  "/>
<polyline clip-path="url(#clip2100)" style="stroke:#000000; stroke-width:1; stroke-opacity:1; fill:none" points="
  310.332,375.869 310.332,370.408 
  "/>
<polyline clip-path="url(#clip2100)" style="stroke:#000000; stroke-width:1; stroke-opacity:1; fill:none" points="
  437.682,375.869 437.682,370.408 
  "/>
<polyline clip-path="url(#clip2100)" style="stroke:#000000; stroke-width:1; stroke-opacity:1; fill:none" points="
  565.033,375.869 565.033,370.408 
  "/>
<polyline clip-path="url(#clip2100)" style="stroke:#000000; stroke-width:1; stroke-opacity:1; fill:none" points="
  40.3485,365.565 48.448,365.565 
  "/>
<polyline clip-path="url(#clip2100)" style="stroke:#000000; stroke-width:1; stroke-opacity:1; fill:none" points="
  40.3485,308.997 48.448,308.997 
  "/>
<polyline clip-path="url(#clip2100)" style="stroke:#000000; stroke-width:1; stroke-opacity:1; fill:none" points="
  40.3485,252.428 48.448,252.428 
  "/>
<polyline clip-path="url(#clip2100)" style="stroke:#000000; stroke-width:1; stroke-opacity:1; fill:none" points="
  40.3485,195.86 48.448,195.86 
  "/>
<polyline clip-path="url(#clip2100)" style="stroke:#000000; stroke-width:1; stroke-opacity:1; fill:none" points="
  40.3485,139.292 48.448,139.292 
  "/>
<polyline clip-path="url(#clip2100)" style="stroke:#000000; stroke-width:1; stroke-opacity:1; fill:none" points="
  40.3485,82.7235 48.448,82.7235 
  "/>
<polyline clip-path="url(#clip2100)" style="stroke:#000000; stroke-width:1; stroke-opacity:1; fill:none" points="
  40.3485,26.1551 48.448,26.1551 
  "/>
<g clip-path="url(#clip2100)">
<text style="fill:#000000; fill-opacity:1; font-family:Arial,Helvetica Neue,Helvetica,sans-serif; font-size:12; text-anchor:middle;" transform="rotate(0, 55.6306, 389.669)" x="55.6306" y="389.669">1.0</text>
</g>
<g clip-path="url(#clip2100)">
<text style="fill:#000000; fill-opacity:1; font-family:Arial,Helvetica Neue,Helvetica,sans-serif; font-size:12; text-anchor:middle;" transform="rotate(0, 182.981, 389.669)" x="182.981" y="389.669">1.5</text>
</g>
<g clip-path="url(#clip2100)">
<text style="fill:#000000; fill-opacity:1; font-family:Arial,Helvetica Neue,Helvetica,sans-serif; font-size:12; text-anchor:middle;" transform="rotate(0, 310.332, 389.669)" x="310.332" y="389.669">2.0</text>
</g>
<g clip-path="url(#clip2100)">
<text style="fill:#000000; fill-opacity:1; font-family:Arial,Helvetica Neue,Helvetica,sans-serif; font-size:12; text-anchor:middle;" transform="rotate(0, 437.682, 389.669)" x="437.682" y="389.669">2.5</text>
</g>
<g clip-path="url(#clip2100)">
<text style="fill:#000000; fill-opacity:1; font-family:Arial,Helvetica Neue,Helvetica,sans-serif; font-size:12; text-anchor:middle;" transform="rotate(0, 565.033, 389.669)" x="565.033" y="389.669">3.0</text>
</g>
<g clip-path="url(#clip2100)">
<text style="fill:#000000; fill-opacity:1; font-family:Arial,Helvetica Neue,Helvetica,sans-serif; font-size:12; text-anchor:end;" transform="rotate(0, 34.3485, 370.065)" x="34.3485" y="370.065">0.0</text>
</g>
<g clip-path="url(#clip2100)">
<text style="fill:#000000; fill-opacity:1; font-family:Arial,Helvetica Neue,Helvetica,sans-serif; font-size:12; text-anchor:end;" transform="rotate(0, 34.3485, 313.497)" x="34.3485" y="313.497">0.2</text>
</g>
<g clip-path="url(#clip2100)">
<text style="fill:#000000; fill-opacity:1; font-family:Arial,Helvetica Neue,Helvetica,sans-serif; font-size:12; text-anchor:end;" transform="rotate(0, 34.3485, 256.928)" x="34.3485" y="256.928">0.4</text>
</g>
<g clip-path="url(#clip2100)">
<text style="fill:#000000; fill-opacity:1; font-family:Arial,Helvetica Neue,Helvetica,sans-serif; font-size:12; text-anchor:end;" transform="rotate(0, 34.3485, 200.36)" x="34.3485" y="200.36">0.6</text>
</g>
<g clip-path="url(#clip2100)">
<text style="fill:#000000; fill-opacity:1; font-family:Arial,Helvetica Neue,Helvetica,sans-serif; font-size:12; text-anchor:end;" transform="rotate(0, 34.3485, 143.792)" x="34.3485" y="143.792">0.8</text>
</g>
<g clip-path="url(#clip2100)">
<text style="fill:#000000; fill-opacity:1; font-family:Arial,Helvetica Neue,Helvetica,sans-serif; font-size:12; text-anchor:end;" transform="rotate(0, 34.3485, 87.2235)" x="34.3485" y="87.2235">1.0</text>
</g>
<g clip-path="url(#clip2100)">
<text style="fill:#000000; fill-opacity:1; font-family:Arial,Helvetica Neue,Helvetica,sans-serif; font-size:12; text-anchor:end;" transform="rotate(0, 34.3485, 30.6551)" x="34.3485" y="30.6551">1.2</text>
</g>
<polygon clip-path="url(#clip2102)" points="
55.6306,201.211 310.332,118.079 310.332,22.1145 55.6306,171.112 
  " fill="#009af9" fill-opacity="0.5"/>
<polyline clip-path="url(#clip2102)" style="stroke:#009af9; stroke-width:1; stroke-opacity:1; fill:none" points="
  55.6306,186.161 310.332,70.0966 
  "/>
<polygon clip-path="url(#clip2102)" points="
55.6306,222.259 310.332,365.565 565.033,365.565 565.033,82.7235 310.332,139.292 55.6306,205.865 
  " fill="#e26f46" fill-opacity="0.5"/>
<polyline clip-path="url(#clip2102)" style="stroke:#e26f46; stroke-width:1; stroke-opacity:1; fill:none" points="
  55.6306,214.062 310.332,252.428 565.033,224.144 
  "/>
<polygon clip-path="url(#clip2100)" points="
475.577,78.051 562.315,78.051 562.315,32.691 475.577,32.691 
  " fill="#ffffff" fill-opacity="1"/>
<polyline clip-path="url(#clip2100)" style="stroke:#000000; stroke-width:1; stroke-opacity:1; fill:none" points="
  475.577,78.051 562.315,78.051 562.315,32.691 475.577,32.691 475.577,78.051 
  "/>
<polyline clip-path="url(#clip2100)" style="stroke:#009af9; stroke-width:1; stroke-opacity:1; fill:none" points="
  481.577,47.811 517.577,47.811 
  "/>
<g clip-path="url(#clip2100)">
<text style="fill:#000000; fill-opacity:1; font-family:Arial,Helvetica Neue,Helvetica,sans-serif; font-size:12; text-anchor:start;" transform="rotate(0, 523.577, 52.311)" x="523.577" y="52.311">CNO</text>
</g>
<polyline clip-path="url(#clip2100)" style="stroke:#e26f46; stroke-width:1; stroke-opacity:1; fill:none" points="
  481.577,62.931 517.577,62.931 
  "/>
<g clip-path="url(#clip2100)">
<text style="fill:#000000; fill-opacity:1; font-family:Arial,Helvetica Neue,Helvetica,sans-serif; font-size:12; text-anchor:start;" transform="rotate(0, 523.577, 67.431)" x="523.577" y="67.431">SAL</text>
</g>
</svg>
