<?xml version="1.0" encoding="utf-8"?>
<svg xmlns="http://www.w3.org/2000/svg" xmlns:xlink="http://www.w3.org/1999/xlink" width="600" height="400" viewBox="0 0 600 400">
<defs>
  <clipPath id="clip1700">
    <rect x="0" y="0" width="600" height="400"/>
  </clipPath>
</defs>
<polygon clip-path="url(#clip1700)" points="
0,400 600,400 600,0 0,0 
  " fill="#ffffff" fill-opacity="1"/>
<defs>
  <clipPath id="clip1701">
    <rect x="120" y="0" width="421" height="400"/>
  </clipPath>
</defs>
<polygon clip-path="url(#clip1700)" points="
40.3485,375.869 580.315,375.869 580.315,11.811 40.3485,11.811 
  " fill="#ffffff" fill-opacity="1"/>
<defs>
  <clipPath id="clip1702">
    <rect x="40" y="11" width="541" height="365"/>
  </clipPath>
</defs>
<polyline clip-path="url(#clip1702)" style="stroke:#000000; stroke-width:0.5; stroke-opacity:0.1; fill:none" points="
  55.6306,375.869 55.6306,11.811 
  "/>
<polyline clip-path="url(#clip1702)" style="stroke:#000000; stroke-width:0.5; stroke-opacity:0.1; fill:none" points="
  182.981,375.869 182.981,11.811 
  "/>
<polyline clip-path="url(#clip1702)" style="stroke:#000000; stroke-width:0.5; stroke-opacity:0.1; fill:none" points="
  310.332,375.869 310.332,11.811 
  "/>
<polyline clip-path="url(#clip1702)" style="stroke:#000000; stroke-width:0.5; stroke-opacity:0.1; fill:none" points="
  437.682,375.869 437.682,11.811 
  "/>
<polyline clip-path="url(#clip1702)" style="stroke:#000000; stroke-width:0.5; stroke-opacity:0.1; fill:none" points="
  565.033,375.869 565.033,11.811 
  "/>
<polyline clip-path="url(#clip1702)" style="stroke:#000000; stroke-width:0.5; stroke-opacity:0.1; fill:none" points="
  40.3485,321.092 580.315,321.092 
  "/>
<polyline clip-path="url(#clip1702)" style="stroke:#000000; stroke-width:0.5; stroke-opacity:0.1; fill:none" points="
  40.3485,229.099 580.315,229.099 
  "/>
<polyline clip-path="url(#clip1702)" style="stroke:#000000; stroke-width:0.5; stroke-opacity:0.1; fill:none" points="
  40.3485,137.106 580.315,137.106 
  "/>
<polyline clip-path="url(#clip1702)" style="stroke:#000000; stroke-width:0.5; stroke-opacity:0.1; fill:none" points="
  40.3485,45.1128 580.315,45.1128 
  "/>
<polyline clip-path="url(#clip1700)" style="stroke:#000000; stroke-width:1; stroke-opacity:1; fill:none" points="
  40.3485,375.869 580.315,375.869 
  "/>
<polyline clip-path="url(#clip1700)" style="stroke:#000000; stroke-width:1; stroke-opacity:1; fill:none" points="
  40.3485,375.869 40.3485,11.811 
  "/>
<polyline clip-path="url(#clip1700)" style="stroke:#000000; stroke-width:1; stroke-opacity:1; fill:none" points="
  55.6306,375.869 55.6306,370.408 
  "/>
<polyline clip-path="url(#clip1700)" style="stroke:#000000; stroke-width:1; stroke-opacity:1; fill:none" points="
  182.981,375.869 182.981,370.408 
  "/>
<polyline clip-path="url(#clip1700)" style="stroke:#000000; stroke-width:1; stroke-opacity:1; fill:none" points="
  310.332,375.869 310.332,370.408 
  "/>
<polyline clip-path="url(#clip1700)" style="stroke:#000000; stroke-width:1; stroke-opacity:1; fill:none" points="
  437.682,375.869 437.682,370.408 
  "/>
<polyline clip-path="url(#clip1700)" style="stroke:#000000; stroke-width:1; stroke-opacity:1; fill:none" points="
  565.033,375.869 565.033,370.408 
  "/>
<polyline clip-path="url(#clip1700)" style="stroke:#000000; stroke-width:1; stroke-opacity:1; fill:none" points="
  40.3485,321.092 48.448,321.092 
  "/>
<polyline clip-path="url(#clip1700)" style="stroke:#000000; stroke-width:1; stroke-opacity:1; fill:none" points="
  40.3485,229.099 48.448,229.099 
  "/>
<polyline clip-path="url(#clip1700)" style="stroke:#000000; stroke-width:1; stroke-opacity:1; fill:none" points="
  40.3485,137.106 48.448,137.106 
  "/>
<polyline clip-path="url(#clip1700)" style="stroke:#000000; stroke-width:1; stroke-opacity:1; fill:none" points="
  40.3485,45.1128 48.448,45.1128 
  "/>
<g clip-path="url(#clip1700)">
<text style="fill:#000000; fill-opacity:1; font-family:Arial,Helvetica Neue,Helvetica,sans-serif; font-size:12; text-anchor:middle;" transform="rotate(0, 55.6306, 389.669)" x="55.6306" y="389.669">1.00</text>
</g>
<g clip-path="url(#clip1700)">
<text style="fill:#000000; fill-opacity:1; font-family:Arial,Helvetica Neue,Helvetica,sans-serif; font-size:12; text-anchor:middle;" transform="rotate(0, 182.981, 389.669)" x="182.981" y="389.669">1.25</text>
</g>
<g clip-path="url(#clip1700)">
<text style="fill:#000000; fill-opacity:1; font-family:Arial,Helvetica Neue,Helvetica,sans-serif; font-size:12; text-anchor:middle;" transform="rotate(0, 310.332, 389.669)" x="310.332" y="389.669">1.50</text>
</g>
<g clip-path="url(#clip1700)">
<text style="fill:#000000; fill-opacity:1; font-family:Arial,Helvetica Neue,Helvetica,sans-serif; font-size:12; text-anchor:middle;" transform="rotate(0, 437.682, 389.669)" x="437.682" y="389.669">1.75</text>
</g>
<g clip-path="url(#clip1700)">
<text style="fill:#000000; fill-opacity:1; font-family:Arial,Helvetica Neue,Helvetica,sans-serif; font-size:12; text-anchor:middle;" transform="rotate(0, 565.033, 389.669)" x="565.033" y="389.669">2.00</text>
</g>
<g clip-path="url(#clip1700)">
<text style="fill:#000000; fill-opacity:1; font-family:Arial,Helvetica Neue,Helvetica,sans-serif; font-size:12; text-anchor:end;" transform="rotate(0, 34.3485, 325.592)" x="34.3485" y="325.592">0.6</text>
</g>
<g clip-path="url(#clip1700)">
<text style="fill:#000000; fill-opacity:1; font-family:Arial,Helvetica Neue,Helvetica,sans-serif; font-size:12; text-anchor:end;" transform="rotate(0, 34.3485, 233.599)" x="34.3485" y="233.599">0.8</text>
</g>
<g clip-path="url(#clip1700)">
<text style="fill:#000000; fill-opacity:1; font-family:Arial,Helvetica Neue,Helvetica,sans-serif; font-size:12; text-anchor:end;" transform="rotate(0, 34.3485, 141.606)" x="34.3485" y="141.606">1.0</text>
</g>
<g clip-path="url(#clip1700)">
<text style="fill:#000000; fill-opacity:1; font-family:Arial,Helvetica Neue,Helvetica,sans-serif; font-size:12; text-anchor:end;" transform="rotate(0, 34.3485, 49.6128)" x="34.3485" y="49.6128">1.2</text>
</g>
<polygon clip-path="url(#clip1702)" points="
55.6306,324.804 565.033,334.234 565.033,22.1145 55.6306,279.573 
  " fill="#009af9" fill-opacity="0.5"/>
<polyline clip-path="url(#clip1702)" style="stroke:#009af9; stroke-width:1; stroke-opacity:1; fill:none" points="
  55.6306,302.189 565.033,178.174 
  "/>
<polygon clip-path="url(#clip1702)" points="
55.6306,365.565 565.033,229.099 565.033,95.2908 55.6306,337.363 
  " fill="#e26f46" fill-opacity="0.5"/>
<polyline clip-path="url(#clip1702)" style="stroke:#e26f46; stroke-width:1; stroke-opacity:1; fill:none" points="
  55.6306,351.464 565.033,162.195 
  "/>
<polygon clip-path="url(#clip1700)" points="
475.577,78.051 562.315,78.051 562.315,32.691 475.577,32.691 
  " fill="#ffffff" fill-opacity="1"/>
<polyline clip-path="url(#clip1700)" style="stroke:#000000; stroke-width:1; stroke-opacity:1; fill:none" points="
  475.577,78.051 562.315,78.051 562.315,32.691 475.577,32.691 475.577,78.051 
  "/>
<polyline clip-path="url(#clip1700)" style="stroke:#009af9; stroke-width:1; stroke-opacity:1; fill:none" points="
  481.577,47.811 517.577,47.811 
  "/>
<g clip-path="url(#clip1700)">
<text style="fill:#000000; fill-opacity:1; font-family:Arial,Helvetica Neue,Helvetica,sans-serif; font-size:12; text-anchor:start;" transform="rotate(0, 523.577, 52.311)" x="523.577" y="52.311">CNO</text>
</g>
<polyline clip-path="url(#clip1700)" style="stroke:#e26f46; stroke-width:1; stroke-opacity:1; fill:none" points="
  481.577,62.931 517.577,62.931 
  "/>
<g clip-path="url(#clip1700)">
<text style="fill:#000000; fill-opacity:1; font-family:Arial,Helvetica Neue,Helvetica,sans-serif; font-size:12; text-anchor:start;" transform="rotate(0, 523.577, 67.431)" x="523.577" y="67.431">SAL</text>
</g>
</svg>
