<?xml version="1.0" encoding="utf-8"?>
<svg xmlns="http://www.w3.org/2000/svg" xmlns:xlink="http://www.w3.org/1999/xlink" width="600" height="400" viewBox="0 0 600 400">
<defs>
  <clipPath id="clip8300">
    <rect x="0" y="0" width="600" height="400"/>
  </clipPath>
</defs>
<polygon clip-path="url(#clip8300)" points="
0,400 600,400 600,0 0,0 
  " fill="#ffffff" fill-opacity="1"/>
<defs>
  <clipPath id="clip8301">
    <rect x="120" y="0" width="421" height="400"/>
  </clipPath>
</defs>
<polygon clip-path="url(#clip8300)" points="
47.0391,375.869 580.315,375.869 580.315,11.811 47.0391,11.811 
  " fill="#ffffff" fill-opacity="1"/>
<defs>
  <clipPath id="clip8302">
    <rect x="47" y="11" width="534" height="365"/>
  </clipPath>
</defs>
<polyline clip-path="url(#clip8302)" style="stroke:#000000; stroke-width:0.5; stroke-opacity:0.1; fill:none" points="
  48.5249,375.869 48.5249,11.811 
  "/>
<polyline clip-path="url(#clip8302)" style="stroke:#000000; stroke-width:0.5; stroke-opacity:0.1; fill:none" points="
  144.891,375.869 144.891,11.811 
  "/>
<polyline clip-path="url(#clip8302)" style="stroke:#000000; stroke-width:0.5; stroke-opacity:0.1; fill:none" points="
  241.258,375.869 241.258,11.811 
  "/>
<polyline clip-path="url(#clip8302)" style="stroke:#000000; stroke-width:0.5; stroke-opacity:0.1; fill:none" points="
  337.624,375.869 337.624,11.811 
  "/>
<polyline clip-path="url(#clip8302)" style="stroke:#000000; stroke-width:0.5; stroke-opacity:0.1; fill:none" points="
  433.99,375.869 433.99,11.811 
  "/>
<polyline clip-path="url(#clip8302)" style="stroke:#000000; stroke-width:0.5; stroke-opacity:0.1; fill:none" points="
  530.357,375.869 530.357,11.811 
  "/>
<polyline clip-path="url(#clip8302)" style="stroke:#000000; stroke-width:0.5; stroke-opacity:0.1; fill:none" points="
  47.0391,365.565 580.315,365.565 
  "/>
<polyline clip-path="url(#clip8302)" style="stroke:#000000; stroke-width:0.5; stroke-opacity:0.1; fill:none" points="
  47.0391,279.703 580.315,279.703 
  "/>
<polyline clip-path="url(#clip8302)" style="stroke:#000000; stroke-width:0.5; stroke-opacity:0.1; fill:none" points="
  47.0391,193.84 580.315,193.84 
  "/>
<polyline clip-path="url(#clip8302)" style="stroke:#000000; stroke-width:0.5; stroke-opacity:0.1; fill:none" points="
  47.0391,107.977 580.315,107.977 
  "/>
<polyline clip-path="url(#clip8302)" style="stroke:#000000; stroke-width:0.5; stroke-opacity:0.1; fill:none" points="
  47.0391,22.1145 580.315,22.1145 
  "/>
<polyline clip-path="url(#clip8300)" style="stroke:#000000; stroke-width:1; stroke-opacity:1; fill:none" points="
  47.0391,375.869 580.315,375.869 
  "/>
<polyline clip-path="url(#clip8300)" style="stroke:#000000; stroke-width:1; stroke-opacity:1; fill:none" points="
  47.0391,375.869 47.0391,11.811 
  "/>
<polyline clip-path="url(#clip8300)" style="stroke:#000000; stroke-width:1; stroke-opacity:1; fill:none" points="
  48.5249,375.869 48.5249,370.408 
  "/>
<polyline clip-path="url(#clip8300)" style="stroke:#000000; stroke-width:1; stroke-opacity:1; fill:none" points="
  144.891,375.869 144.891,370.408 
  "/>
<polyline clip-path="url(#clip8300)" style="stroke:#000000; stroke-width:1; stroke-opacity:1; fill:none" points="
  241.258,375.869 241.258,370.408 
  "/>
<polyline clip-path="url(#clip8300)" style="stroke:#000000; stroke-width:1; stroke-opacity:1; fill:none" points="
  337.624,375.869 337.624,370.408 
  "/>
<polyline clip-path="url(#clip8300)" style="stroke:#000000; stroke-width:1; stroke-opacity:1; fill:none" points="
  433.99,375.869 433.99,370.408 
  "/>
<polyline clip-path="url(#clip8300)" style="stroke:#000000; stroke-width:1; stroke-opacity:1; fill:none" points="
  530.357,375.869 530.357,370.408 
  "/>
<polyline clip-path="url(#clip8300)" style="stroke:#000000; stroke-width:1; stroke-opacity:1; fill:none" points="
  47.0391,365.565 55.0382,365.565 
  "/>
<polyline clip-path="url(#clip8300)" style="stroke:#000000; stroke-width:1; stroke-opacity:1; fill:none" points="
  47.0391,279.703 55.0382,279.703 
  "/>
<polyline clip-path="url(#clip8300)" style="stroke:#000000; stroke-width:1; stroke-opacity:1; fill:none" points="
  47.0391,193.84 55.0382,193.84 
  "/>
<polyline clip-path="url(#clip8300)" style="stroke:#000000; stroke-width:1; stroke-opacity:1; fill:none" points="
  47.0391,107.977 55.0382,107.977 
  "/>
<polyline clip-path="url(#clip8300)" style="stroke:#000000; stroke-width:1; stroke-opacity:1; fill:none" points="
  47.0391,22.1145 55.0382,22.1145 
  "/>
<g clip-path="url(#clip8300)">
<text style="fill:#000000; fill-opacity:1; font-family:Arial,Helvetica Neue,Helvetica,sans-serif; font-size:12; text-anchor:middle;" transform="rotate(0, 48.5249, 389.669)" x="48.5249" y="389.669">0</text>
</g>
<g clip-path="url(#clip8300)">
<text style="fill:#000000; fill-opacity:1; font-family:Arial,Helvetica Neue,Helvetica,sans-serif; font-size:12; text-anchor:middle;" transform="rotate(0, 144.891, 389.669)" x="144.891" y="389.669">5</text>
</g>
<g clip-path="url(#clip8300)">
<text style="fill:#000000; fill-opacity:1; font-family:Arial,Helvetica Neue,Helvetica,sans-serif; font-size:12; text-anchor:middle;" transform="rotate(0, 241.258, 389.669)" x="241.258" y="389.669">10</text>
</g>
<g clip-path="url(#clip8300)">
<text style="fill:#000000; fill-opacity:1; font-family:Arial,Helvetica Neue,Helvetica,sans-serif; font-size:12; text-anchor:middle;" transform="rotate(0, 337.624, 389.669)" x="337.624" y="389.669">15</text>
</g>
<g clip-path="url(#clip8300)">
<text style="fill:#000000; fill-opacity:1; font-family:Arial,Helvetica Neue,Helvetica,sans-serif; font-size:12; text-anchor:middle;" transform="rotate(0, 433.99, 389.669)" x="433.99" y="389.669">20</text>
</g>
<g clip-path="url(#clip8300)">
<text style="fill:#000000; fill-opacity:1; font-family:Arial,Helvetica Neue,Helvetica,sans-serif; font-size:12; text-anchor:middle;" transform="rotate(0, 530.357, 389.669)" x="530.357" y="389.669">25</text>
</g>
<g clip-path="url(#clip8300)">
<text style="fill:#000000; fill-opacity:1; font-family:Arial,Helvetica Neue,Helvetica,sans-serif; font-size:12; text-anchor:end;" transform="rotate(0, 41.0391, 370.065)" x="41.0391" y="370.065">0.00</text>
</g>
<g clip-path="url(#clip8300)">
<text style="fill:#000000; fill-opacity:1; font-family:Arial,Helvetica Neue,Helvetica,sans-serif; font-size:12; text-anchor:end;" transform="rotate(0, 41.0391, 284.203)" x="41.0391" y="284.203">0.25</text>
</g>
<g clip-path="url(#clip8300)">
<text style="fill:#000000; fill-opacity:1; font-family:Arial,Helvetica Neue,Helvetica,sans-serif; font-size:12; text-anchor:end;" transform="rotate(0, 41.0391, 198.34)" x="41.0391" y="198.34">0.50</text>
</g>
<g clip-path="url(#clip8300)">
<text style="fill:#000000; fill-opacity:1; font-family:Arial,Helvetica Neue,Helvetica,sans-serif; font-size:12; text-anchor:end;" transform="rotate(0, 41.0391, 112.477)" x="41.0391" y="112.477">0.75</text>
</g>
<g clip-path="url(#clip8300)">
<text style="fill:#000000; fill-opacity:1; font-family:Arial,Helvetica Neue,Helvetica,sans-serif; font-size:12; text-anchor:end;" transform="rotate(0, 41.0391, 26.6145)" x="41.0391" y="26.6145">1.00</text>
</g>
<polygon clip-path="url(#clip8302)" points="
62.1318,365.565 67.2135,341.033 72.2953,289.082 77.377,240.018 82.4587,212.6 87.5404,185.181 92.6221,160.988 97.7039,147.549 102.786,138.589 107.867,123.656 
  112.949,107.231 118.031,104.244 123.112,99.7642 128.194,87.8181 133.276,86.3249 138.358,78.8586 143.439,75.872 148.521,69.899 153.603,66.9124 158.685,63.9259 
  163.766,63.9259 168.848,59.4461 173.93,57.9529 179.011,57.9529 184.093,53.4731 189.175,53.4731 194.257,50.4866 199.338,47.5 204.42,47.5 209.502,47.5 
  214.583,43.0202 219.665,41.527 224.747,41.527 229.829,41.527 234.91,41.527 239.992,40.0337 245.074,40.0337 250.156,37.0472 255.237,37.0472 260.319,35.5539 
  265.401,35.5539 270.482,35.5539 275.564,35.5539 280.646,32.5674 285.728,31.0741 290.809,29.5809 295.891,29.5809 300.973,29.5809 306.054,29.5809 311.136,29.5809 
  316.218,29.5809 321.3,29.5809 326.381,28.0876 331.463,28.0876 336.545,28.0876 341.626,28.0876 346.708,28.0876 351.79,26.5943 356.872,26.5943 361.953,26.5943 
  367.035,26.5943 372.117,26.5943 377.199,26.5943 382.28,25.1011 387.362,25.1011 392.444,25.1011 397.525,25.1011 402.607,25.1011 407.689,25.1011 412.771,25.1011 
  417.852,25.1011 422.934,25.1011 428.016,25.1011 433.097,25.1011 438.179,25.1011 443.261,25.1011 448.343,25.1011 453.424,25.1011 458.506,25.1011 463.588,25.1011 
  468.67,25.1011 473.751,25.1011 478.833,25.1011 483.915,25.1011 488.996,25.1011 494.078,25.1011 499.16,25.1011 504.242,25.1011 509.323,25.1011 514.405,25.1011 
  519.487,25.1011 524.568,25.1011 529.65,25.1011 534.732,25.1011 539.814,23.6078 544.895,23.6078 549.977,23.6078 555.059,23.6078 560.141,23.6078 565.222,22.1145 
  565.222,22.1145 560.141,23.5576 555.059,23.5576 549.977,23.5576 544.895,23.5576 539.814,23.5576 534.732,23.5576 529.65,23.5576 524.568,23.5576 519.487,23.5576 
  514.405,23.5576 509.323,23.5576 504.242,23.5576 499.16,25.0007 494.078,25.0007 488.996,25.0007 483.915,25.0007 478.833,25.0007 473.751,25.0007 468.67,25.0007 
  463.588,25.0007 458.506,25.0007 453.424,25.0007 448.343,25.0007 443.261,25.0007 438.179,25.0007 433.097,25.0007 428.016,25.0007 422.934,25.0007 417.852,25.0007 
  412.771,25.0007 407.689,25.0007 402.607,25.0007 397.525,25.0007 392.444,25.0007 387.362,25.0007 382.28,25.0007 377.199,25.0007 372.117,25.0007 367.035,26.4438 
  361.953,26.4438 356.872,26.4438 351.79,26.4438 346.708,26.4438 341.626,26.4438 336.545,26.4438 331.463,26.4438 326.381,26.4438 321.3,26.4438 316.218,26.4438 
  311.136,26.4438 306.054,26.4438 300.973,26.4438 295.891,26.4438 290.809,26.4438 285.728,26.4438 280.646,26.4438 275.564,26.4438 270.482,27.8868 265.401,27.8868 
  260.319,27.8868 255.237,27.8868 250.156,27.8868 245.074,27.8868 239.992,27.8868 234.91,27.8868 229.829,30.773 224.747,30.773 219.665,30.773 214.583,30.773 
  209.502,35.1022 204.42,36.5452 199.338,37.9883 194.257,37.9883 189.175,39.4314 184.093,42.3175 179.011,42.3175 173.93,45.2037 168.848,46.6467 163.766,48.0898 
  158.685,49.5329 153.603,52.419 148.521,59.6344 143.439,62.5205 138.358,66.8497 133.276,71.1789 128.194,79.8373 123.112,89.9388 118.031,95.7111 112.949,105.813 
  107.867,110.142 102.786,133.231 97.7039,143.332 92.6221,160.649 87.5404,183.387 82.4587,207.279 77.377,232.665 72.2953,267.01 67.2135,331.22 62.1318,364.072 
  
  " fill="#009af9" fill-opacity="0.5"/>
<polyline clip-path="url(#clip8302)" style="stroke:#009af9; stroke-width:1; stroke-opacity:1; fill:none" points="
  62.1318,364.819 67.2135,336.127 72.2953,278.046 77.377,236.341 82.4587,209.939 87.5404,184.284 92.6221,160.819 97.7039,145.441 102.786,135.91 107.867,116.899 
  112.949,106.522 118.031,99.9776 123.112,94.8515 128.194,83.8277 133.276,78.7519 138.358,72.8541 143.439,69.1963 148.521,64.7667 153.603,59.6657 158.685,56.7294 
  163.766,56.0079 168.848,53.0464 173.93,51.5783 179.011,50.1352 184.093,47.8953 189.175,46.4522 194.257,44.2374 199.338,42.7442 204.42,42.0226 209.502,41.3011 
  214.583,36.8966 219.665,36.15 224.747,36.15 229.829,36.15 234.91,34.7069 239.992,33.9603 245.074,33.9603 250.156,32.467 255.237,32.467 260.319,31.7204 
  265.401,31.7204 270.482,31.7204 275.564,30.9988 280.646,29.5056 285.728,28.7589 290.809,28.0123 295.891,28.0123 300.973,28.0123 306.054,28.0123 311.136,28.0123 
  316.218,28.0123 321.3,28.0123 326.381,27.2657 331.463,27.2657 336.545,27.2657 341.626,27.2657 346.708,27.2657 351.79,26.519 356.872,26.519 361.953,26.519 
  367.035,26.519 372.117,25.7975 377.199,25.7975 382.28,25.0509 387.362,25.0509 392.444,25.0509 397.525,25.0509 402.607,25.0509 407.689,25.0509 412.771,25.0509 
  417.852,25.0509 422.934,25.0509 428.016,25.0509 433.097,25.0509 438.179,25.0509 443.261,25.0509 448.343,25.0509 453.424,25.0509 458.506,25.0509 463.588,25.0509 
  468.67,25.0509 473.751,25.0509 478.833,25.0509 483.915,25.0509 488.996,25.0509 494.078,25.0509 499.16,25.0509 504.242,24.3293 509.323,24.3293 514.405,24.3293 
  519.487,24.3293 524.568,24.3293 529.65,24.3293 534.732,24.3293 539.814,23.5827 544.895,23.5827 549.977,23.5827 555.059,23.5827 560.141,23.5827 565.222,22.1145 
  
  "/>
<polygon clip-path="url(#clip8302)" points="
63.3653,365.565 68.061,338.686 72.7566,284.753 77.4523,265.517 82.148,232.665 86.8437,201.306 91.5393,186.374 96.235,162.481 100.931,143.069 105.626,129.63 
  110.322,113.204 115.018,99.7642 119.713,87.8181 124.409,83.3383 129.105,77.3653 133.8,71.3922 138.496,71.3922 143.192,65.4192 147.887,65.4192 152.583,62.4327 
  157.279,62.4327 161.974,57.9529 166.67,53.4731 171.366,53.4731 176.061,51.9798 180.757,51.9798 185.453,48.9933 190.148,48.9933 194.844,48.9933 199.54,47.5 
  204.235,47.5 208.931,46.0068 213.627,46.0068 218.322,43.0202 223.018,40.0337 227.714,35.5539 232.409,32.5674 237.105,31.0936 241.801,31.0936 246.497,29.5809 
  251.192,29.5809 255.888,29.5809 260.584,28.0876 265.279,28.0876 269.975,28.0876 274.671,28.0876 279.366,26.6041 284.062,26.6041 288.758,26.6041 293.453,26.6041 
  298.149,26.6041 302.845,26.6041 307.54,26.6041 312.236,26.6041 316.932,26.6041 321.627,26.6041 326.323,26.6041 331.019,26.6041 335.714,26.6041 340.41,26.6041 
  345.106,26.6041 349.801,26.6041 354.497,26.6041 359.193,26.6041 363.888,26.6041 368.584,26.6041 373.28,26.6041 377.975,26.6041 382.671,26.6041 387.367,26.6041 
  392.062,26.6041 396.758,26.6041 401.454,26.6041 406.149,26.6041 410.845,26.6041 415.541,26.6041 420.236,26.6041 424.932,26.6041 429.628,24.3593 434.323,24.3593 
  439.019,24.3593 443.715,24.3593 448.41,24.3593 453.106,24.3593 457.802,24.3593 462.497,24.3593 467.193,24.3593 471.889,24.3593 476.584,24.3593 481.28,24.3593 
  485.976,24.3593 490.671,24.3593 495.367,24.3593 500.063,24.3593 504.758,24.3593 509.454,24.3593 514.15,24.3593 518.845,24.3593 523.541,24.3593 528.237,22.1145 
  528.237,22.1145 523.541,22.1145 518.845,22.1145 514.15,22.1145 509.454,22.1145 504.758,22.1145 500.063,22.1145 495.367,22.1145 490.671,22.1145 485.976,22.1145 
  481.28,22.1145 476.584,22.1145 471.889,22.1145 467.193,22.1145 462.497,22.1145 457.802,22.1145 453.106,22.1145 448.41,22.1145 443.715,22.1145 439.019,22.1145 
  434.323,22.1145 429.628,22.1145 424.932,22.1145 420.236,22.1145 415.541,22.1145 410.845,22.1145 406.149,22.1145 401.454,22.1145 396.758,22.1145 392.062,22.1145 
  387.367,22.1145 382.671,22.1145 377.975,22.1145 373.28,22.1145 368.584,22.1145 363.888,22.1145 359.193,22.1145 354.497,22.1145 349.801,23.6078 345.106,23.6078 
  340.41,23.6078 335.714,23.6078 331.019,23.6078 326.323,23.6078 321.627,23.6078 316.932,23.6078 312.236,23.6078 307.54,23.6078 302.845,23.6078 298.149,25.1011 
  293.453,25.1011 288.758,25.1011 284.062,26.5943 279.366,26.5943 274.671,26.6041 269.975,26.6041 265.279,26.6041 260.584,26.6041 255.888,28.8489 251.192,28.8489 
  246.497,28.8489 241.801,29.5809 237.105,31.0741 232.409,31.0936 227.714,31.0936 223.018,33.3384 218.322,33.3384 213.627,35.5832 208.931,35.5832 204.235,37.828 
  199.54,37.828 194.844,37.828 190.148,37.828 185.453,40.0727 180.757,40.0727 176.061,42.3175 171.366,44.5623 166.67,44.5623 161.974,46.8071 157.279,46.8071 
  152.583,46.8071 147.887,46.8071 143.192,49.0518 138.496,51.2966 133.8,55.7862 129.105,58.0309 124.409,62.5205 119.713,67.01 115.018,78.2339 110.322,87.213 
  105.626,91.7026 100.931,96.1921 96.235,107.416 91.5393,141.088 86.8437,156.801 82.148,192.717 77.4523,235.368 72.7566,283.436 68.061,336.383 63.3653,364.072 
  
  " fill="#e26f46" fill-opacity="0.5"/>
<polyline clip-path="url(#clip8302)" style="stroke:#e26f46; stroke-width:1; stroke-opacity:1; fill:none" points="
  63.3653,364.819 68.061,337.535 72.7566,284.094 77.4523,250.442 82.148,212.691 86.8437,179.054 91.5393,163.731 96.235,134.949 100.931,119.631 105.626,110.666 
  110.322,100.208 115.018,88.9991 119.713,77.4141 124.409,72.9294 129.105,67.6981 133.8,63.5892 138.496,61.3444 143.192,57.2355 147.887,56.1131 152.583,54.6199 
  157.279,54.6199 161.974,52.38 166.67,49.0177 171.366,49.0177 176.061,47.1487 180.757,46.0263 185.453,44.533 190.148,43.4106 194.844,43.4106 199.54,42.664 
  204.235,42.664 208.931,40.795 213.627,40.795 218.322,38.1793 223.018,36.6861 227.714,33.3238 232.409,31.8305 237.105,31.0839 241.801,30.3373 246.497,29.2149 
  251.192,29.2149 255.888,29.2149 260.584,27.3458 265.279,27.3458 269.975,27.3458 274.671,27.3458 279.366,26.5992 284.062,26.5992 288.758,25.8526 293.453,25.8526 
  298.149,25.8526 302.845,25.1059 307.54,25.1059 312.236,25.1059 316.932,25.1059 321.627,25.1059 326.323,25.1059 331.019,25.1059 335.714,25.1059 340.41,25.1059 
  345.106,25.1059 349.801,25.1059 354.497,24.3593 359.193,24.3593 363.888,24.3593 368.584,24.3593 373.28,24.3593 377.975,24.3593 382.671,24.3593 387.367,24.3593 
  392.062,24.3593 396.758,24.3593 401.454,24.3593 406.149,24.3593 410.845,24.3593 415.541,24.3593 420.236,24.3593 424.932,24.3593 429.628,23.2369 434.323,23.2369 
  439.019,23.2369 443.715,23.2369 448.41,23.2369 453.106,23.2369 457.802,23.2369 462.497,23.2369 467.193,23.2369 471.889,23.2369 476.584,23.2369 481.28,23.2369 
  485.976,23.2369 490.671,23.2369 495.367,23.2369 500.063,23.2369 504.758,23.2369 509.454,23.2369 514.15,23.2369 518.845,23.2369 523.541,23.2369 528.237,22.1145 
  
  "/>
<polygon clip-path="url(#clip8300)" points="
475.577,78.051 562.315,78.051 562.315,32.691 475.577,32.691 
  " fill="#ffffff" fill-opacity="1"/>
<polyline clip-path="url(#clip8300)" style="stroke:#000000; stroke-width:1; stroke-opacity:1; fill:none" points="
  475.577,78.051 562.315,78.051 562.315,32.691 475.577,32.691 475.577,78.051 
  "/>
<polyline clip-path="url(#clip8300)" style="stroke:#009af9; stroke-width:1; stroke-opacity:1; fill:none" points="
  481.577,47.811 517.577,47.811 
  "/>
<g clip-path="url(#clip8300)">
<text style="fill:#000000; fill-opacity:1; font-family:Arial,Helvetica Neue,Helvetica,sans-serif; font-size:12; text-anchor:start;" transform="rotate(0, 523.577, 52.311)" x="523.577" y="52.311">CNO</text>
</g>
<polyline clip-path="url(#clip8300)" style="stroke:#e26f46; stroke-width:1; stroke-opacity:1; fill:none" points="
  481.577,62.931 517.577,62.931 
  "/>
<g clip-path="url(#clip8300)">
<text style="fill:#000000; fill-opacity:1; font-family:Arial,Helvetica Neue,Helvetica,sans-serif; font-size:12; text-anchor:start;" transform="rotate(0, 523.577, 67.431)" x="523.577" y="67.431">SAL</text>
</g>
</svg>
