<?xml version="1.0" encoding="utf-8"?>
<svg xmlns="http://www.w3.org/2000/svg" xmlns:xlink="http://www.w3.org/1999/xlink" width="600" height="400" viewBox="0 0 600 400">
<defs>
  <clipPath id="clip5900">
    <rect x="0" y="0" width="600" height="400"/>
  </clipPath>
</defs>
<polygon clip-path="url(#clip5900)" points="
0,400 600,400 600,0 0,0 
  " fill="#ffffff" fill-opacity="1"/>
<defs>
  <clipPath id="clip5901">
    <rect x="120" y="0" width="421" height="400"/>
  </clipPath>
</defs>
<polygon clip-path="url(#clip5900)" points="
47.0391,375.869 580.315,375.869 580.315,11.811 47.0391,11.811 
  " fill="#ffffff" fill-opacity="1"/>
<defs>
  <clipPath id="clip5902">
    <rect x="47" y="11" width="534" height="365"/>
  </clipPath>
</defs>
<polyline clip-path="url(#clip5902)" style="stroke:#000000; stroke-width:0.5; stroke-opacity:0.1; fill:none" points="
  180.16,375.869 180.16,11.811 
  "/>
<polyline clip-path="url(#clip5902)" style="stroke:#000000; stroke-width:0.5; stroke-opacity:0.1; fill:none" points="
  447.194,375.869 447.194,11.811 
  "/>
<polyline clip-path="url(#clip5902)" style="stroke:#000000; stroke-width:0.5; stroke-opacity:0.1; fill:none" points="
  47.0391,365.565 580.315,365.565 
  "/>
<polyline clip-path="url(#clip5902)" style="stroke:#000000; stroke-width:0.5; stroke-opacity:0.1; fill:none" points="
  47.0391,292.234 580.315,292.234 
  "/>
<polyline clip-path="url(#clip5902)" style="stroke:#000000; stroke-width:0.5; stroke-opacity:0.1; fill:none" points="
  47.0391,218.904 580.315,218.904 
  "/>
<polyline clip-path="url(#clip5902)" style="stroke:#000000; stroke-width:0.5; stroke-opacity:0.1; fill:none" points="
  47.0391,145.573 580.315,145.573 
  "/>
<polyline clip-path="url(#clip5902)" style="stroke:#000000; stroke-width:0.5; stroke-opacity:0.1; fill:none" points="
  47.0391,72.2419 580.315,72.2419 
  "/>
<polyline clip-path="url(#clip5900)" style="stroke:#000000; stroke-width:1; stroke-opacity:1; fill:none" points="
  47.0391,375.869 580.315,375.869 
  "/>
<polyline clip-path="url(#clip5900)" style="stroke:#000000; stroke-width:1; stroke-opacity:1; fill:none" points="
  47.0391,375.869 47.0391,11.811 
  "/>
<polyline clip-path="url(#clip5900)" style="stroke:#000000; stroke-width:1; stroke-opacity:1; fill:none" points="
  180.16,375.869 180.16,370.408 
  "/>
<polyline clip-path="url(#clip5900)" style="stroke:#000000; stroke-width:1; stroke-opacity:1; fill:none" points="
  447.194,375.869 447.194,370.408 
  "/>
<polyline clip-path="url(#clip5900)" style="stroke:#000000; stroke-width:1; stroke-opacity:1; fill:none" points="
  47.0391,365.565 55.0382,365.565 
  "/>
<polyline clip-path="url(#clip5900)" style="stroke:#000000; stroke-width:1; stroke-opacity:1; fill:none" points="
  47.0391,292.234 55.0382,292.234 
  "/>
<polyline clip-path="url(#clip5900)" style="stroke:#000000; stroke-width:1; stroke-opacity:1; fill:none" points="
  47.0391,218.904 55.0382,218.904 
  "/>
<polyline clip-path="url(#clip5900)" style="stroke:#000000; stroke-width:1; stroke-opacity:1; fill:none" points="
  47.0391,145.573 55.0382,145.573 
  "/>
<polyline clip-path="url(#clip5900)" style="stroke:#000000; stroke-width:1; stroke-opacity:1; fill:none" points="
  47.0391,72.2419 55.0382,72.2419 
  "/>
<g clip-path="url(#clip5900)">
<text style="fill:#000000; fill-opacity:1; font-family:Arial,Helvetica Neue,Helvetica,sans-serif; font-size:12; text-anchor:middle;" transform="rotate(0, 180.16, 389.669)" x="180.16" y="389.669">HET</text>
</g>
<g clip-path="url(#clip5900)">
<text style="fill:#000000; fill-opacity:1; font-family:Arial,Helvetica Neue,Helvetica,sans-serif; font-size:12; text-anchor:middle;" transform="rotate(0, 447.194, 389.669)" x="447.194" y="389.669">WT</text>
</g>
<g clip-path="url(#clip5900)">
<text style="fill:#000000; fill-opacity:1; font-family:Arial,Helvetica Neue,Helvetica,sans-serif; font-size:12; text-anchor:end;" transform="rotate(0, 41.0391, 370.065)" x="41.0391" y="370.065">0.00</text>
</g>
<g clip-path="url(#clip5900)">
<text style="fill:#000000; fill-opacity:1; font-family:Arial,Helvetica Neue,Helvetica,sans-serif; font-size:12; text-anchor:end;" transform="rotate(0, 41.0391, 296.734)" x="41.0391" y="296.734">0.25</text>
</g>
<g clip-path="url(#clip5900)">
<text style="fill:#000000; fill-opacity:1; font-family:Arial,Helvetica Neue,Helvetica,sans-serif; font-size:12; text-anchor:end;" transform="rotate(0, 41.0391, 223.404)" x="41.0391" y="223.404">0.50</text>
</g>
<g clip-path="url(#clip5900)">
<text style="fill:#000000; fill-opacity:1; font-family:Arial,Helvetica Neue,Helvetica,sans-serif; font-size:12; text-anchor:end;" transform="rotate(0, 41.0391, 150.073)" x="41.0391" y="150.073">0.75</text>
</g>
<g clip-path="url(#clip5900)">
<text style="fill:#000000; fill-opacity:1; font-family:Arial,Helvetica Neue,Helvetica,sans-serif; font-size:12; text-anchor:end;" transform="rotate(0, 41.0391, 76.7419)" x="41.0391" y="76.7419">1.00</text>
</g>
<polygon clip-path="url(#clip5902)" points="
73.3472,128.919 73.3472,365.565 180.16,365.565 180.16,128.919 73.3472,128.919 73.3472,128.919 
  " fill="#009af9" fill-opacity="1"/>
<polyline clip-path="url(#clip5902)" style="stroke:#000000; stroke-width:1; stroke-opacity:1; fill:none" points="
  73.3472,128.919 73.3472,365.565 180.16,365.565 180.16,128.919 73.3472,128.919 
  "/>
<polygon clip-path="url(#clip5902)" points="
340.38,168.565 340.38,365.565 447.194,365.565 447.194,168.565 340.38,168.565 340.38,168.565 
  " fill="#009af9" fill-opacity="1"/>
<polyline clip-path="url(#clip5902)" style="stroke:#000000; stroke-width:1; stroke-opacity:1; fill:none" points="
  340.38,168.565 340.38,365.565 447.194,365.565 447.194,168.565 340.38,168.565 
  "/>
<polyline clip-path="url(#clip5902)" style="stroke:#009af9; stroke-width:1; stroke-opacity:1; fill:none" points="
  126.754,166.048 126.754,91.7909 
  "/>
<polyline clip-path="url(#clip5902)" style="stroke:#009af9; stroke-width:1; stroke-opacity:1; fill:none" points="
  393.787,183.41 393.787,153.721 
  "/>
<line clip-path="url(#clip5902)" x1="131.754" y1="166.048" x2="121.754" y2="166.048" style="stroke:#000000; stroke-opacity:1"/>
<line clip-path="url(#clip5902)" x1="131.754" y1="91.7909" x2="121.754" y2="91.7909" style="stroke:#000000; stroke-opacity:1"/>
<line clip-path="url(#clip5902)" x1="398.787" y1="183.41" x2="388.787" y2="183.41" style="stroke:#000000; stroke-opacity:1"/>
<line clip-path="url(#clip5902)" x1="398.787" y1="153.721" x2="388.787" y2="153.721" style="stroke:#000000; stroke-opacity:1"/>
<polygon clip-path="url(#clip5902)" points="
180.16,73.1084 180.16,365.565 286.974,365.565 286.974,73.1084 180.16,73.1084 180.16,73.1084 
  " fill="#e26f46" fill-opacity="1"/>
<polyline clip-path="url(#clip5902)" style="stroke:#000000; stroke-width:1; stroke-opacity:1; fill:none" points="
  180.16,73.1084 180.16,365.565 286.974,365.565 286.974,73.1084 180.16,73.1084 
  "/>
<polygon clip-path="url(#clip5902)" points="
447.194,178.578 447.194,365.565 554.007,365.565 554.007,178.578 447.194,178.578 447.194,178.578 
  " fill="#e26f46" fill-opacity="1"/>
<polyline clip-path="url(#clip5902)" style="stroke:#000000; stroke-width:1; stroke-opacity:1; fill:none" points="
  447.194,178.578 447.194,365.565 554.007,365.565 554.007,178.578 447.194,178.578 
  "/>
<polyline clip-path="url(#clip5902)" style="stroke:#e26f46; stroke-width:1; stroke-opacity:1; fill:none" points="
  233.567,124.102 233.567,22.1145 
  "/>
<polyline clip-path="url(#clip5902)" style="stroke:#e26f46; stroke-width:1; stroke-opacity:1; fill:none" points="
  500.6,196.264 500.6,160.891 
  "/>
<line clip-path="url(#clip5902)" x1="238.567" y1="124.102" x2="228.567" y2="124.102" style="stroke:#000000; stroke-opacity:1"/>
<line clip-path="url(#clip5902)" x1="238.567" y1="22.1145" x2="228.567" y2="22.1145" style="stroke:#000000; stroke-opacity:1"/>
<line clip-path="url(#clip5902)" x1="505.6" y1="196.264" x2="495.6" y2="196.264" style="stroke:#000000; stroke-opacity:1"/>
<line clip-path="url(#clip5902)" x1="505.6" y1="160.891" x2="495.6" y2="160.891" style="stroke:#000000; stroke-opacity:1"/>
<polygon clip-path="url(#clip5900)" points="
475.577,78.051 562.315,78.051 562.315,32.691 475.577,32.691 
  " fill="#ffffff" fill-opacity="1"/>
<polyline clip-path="url(#clip5900)" style="stroke:#000000; stroke-width:1; stroke-opacity:1; fill:none" points="
  475.577,78.051 562.315,78.051 562.315,32.691 475.577,32.691 475.577,78.051 
  "/>
<polygon clip-path="url(#clip5900)" points="
481.577,53.859 517.577,53.859 517.577,41.763 481.577,41.763 481.577,53.859 
  " fill="#009af9" fill-opacity="1"/>
<polyline clip-path="url(#clip5900)" style="stroke:#000000; stroke-width:1; stroke-opacity:1; fill:none" points="
  481.577,53.859 517.577,53.859 517.577,41.763 481.577,41.763 481.577,53.859 
  "/>
<g clip-path="url(#clip5900)">
<text style="fill:#000000; fill-opacity:1; font-family:Arial,Helvetica Neue,Helvetica,sans-serif; font-size:12; text-anchor:start;" transform="rotate(0, 523.577, 52.311)" x="523.577" y="52.311">CNO</text>
</g>
<polygon clip-path="url(#clip5900)" points="
481.577,68.979 517.577,68.979 517.577,56.883 481.577,56.883 481.577,68.979 
  " fill="#e26f46" fill-opacity="1"/>
<polyline clip-path="url(#clip5900)" style="stroke:#000000; stroke-width:1; stroke-opacity:1; fill:none" points="
  481.577,68.979 517.577,68.979 517.577,56.883 481.577,56.883 481.577,68.979 
  "/>
<g clip-path="url(#clip5900)">
<text style="fill:#000000; fill-opacity:1; font-family:Arial,Helvetica Neue,Helvetica,sans-serif; font-size:12; text-anchor:start;" transform="rotate(0, 523.577, 67.431)" x="523.577" y="67.431">SAL</text>
</g>
</svg>
